  0
SECTION
  2
HEADER
  9
$ACADVER
  1
AC1015
  9
$ACADMAINTVER
 70
     6
  9
$DWGCODEPAGE
  3
ANSI_1252
  9
$INSBASE
 10
0.0
 20
0.0
 30
0.0
  9
$EXTMIN
 10
1.000000000000000E+20
 20
1.000000000000000E+20
 30
1.000000000000000E+20
  9
$EXTMAX
 10
-1.000000000000000E+20
 20
-1.000000000000000E+20
 30
-1.000000000000000E+20
  9
$LIMMIN
 10
0.0
 20
0.0
  9
$LIMMAX
 10
12.0
 20
9.0
  9
$ORTHOMODE
 70
     0
  9
$REGENMODE
 70
     1
  9
$FILLMODE
 70
     1
  9
$QTEXTMODE
 70
     0
  9
$MIRRTEXT
 70
     1
  9
$LTSCALE
 40
1.0
  9
$ATTMODE
 70
     1
  9
$TEXTSIZE
 40
0.2
  9
$TRACEWID
 40
0.05
  9
$TEXTSTYLE
  7
Standard
  9
$CLAYER
  8
0
  9
$CELTYPE
  6
ByLayer
  9
$CECOLOR
 62
   256
  9
$CELTSCALE
 40
1.0
  9
$DISPSILH
 70
     0
  9
$DIMSCALE
 40
1.0
  9
$DIMASZ
 40
0.18
  9
$DIMEXO
 40
0.0625
  9
$DIMDLI
 40
0.38
  9
$DIMRND
 40
0.0
  9
$DIMDLE
 40
0.0
  9
$DIMEXE
 40
0.18
  9
$DIMTP
 40
0.0
  9
$DIMTM
 40
0.0
  9
$DIMTXT
 40
0.18
  9
$DIMCEN
 40
0.09
  9
$DIMTSZ
 40
0.0
  9
$DIMTOL
 70
     0
  9
$DIMLIM
 70
     0
  9
$DIMTIH
 70
     1
  9
$DIMTOH
 70
     1
  9
$DIMSE1
 70
     0
  9
$DIMSE2
 70
     0
  9
$DIMTAD
 70
     0
  9
$DIMZIN
 70
     0
  9
$DIMBLK
  1

  9
$DIMASO
 70
     1
  9
$DIMSHO
 70
     1
  9
$DIMPOST
  1

  9
$DIMAPOST
  1

  9
$DIMALT
 70
     0
  9
$DIMALTD
 70
     2
  9
$DIMALTF
 40
25.4
  9
$DIMLFAC
 40
1.0
  9
$DIMTOFL
 70
     0
  9
$DIMTVP
 40
0.0
  9
$DIMTIX
 70
     0
  9
$DIMSOXD
 70
     0
  9
$DIMSAH
 70
     0
  9
$DIMBLK1
  1

  9
$DIMBLK2
  1

  9
$DIMSTYLE
  2
Standard
  9
$DIMCLRD
 70
     0
  9
$DIMCLRE
 70
     0
  9
$DIMCLRT
 70
     0
  9
$DIMTFAC
 40
1.0
  9
$DIMGAP
 40
0.09
  9
$DIMJUST
 70
     0
  9
$DIMSD1
 70
     0
  9
$DIMSD2
 70
     0
  9
$DIMTOLJ
 70
     1
  9
$DIMTZIN
 70
     0
  9
$DIMALTZ
 70
     0
  9
$DIMALTTZ
 70
     0
  9
$DIMUPT
 70
     0
  9
$DIMDEC
 70
     4
  9
$DIMTDEC
 70
     4
  9
$DIMALTU
 70
     2
  9
$DIMALTTD
 70
     2
  9
$DIMTXSTY
  7
Standard
  9
$DIMAUNIT
 70
     0
  9
$DIMADEC
 70
     0
  9
$DIMALTRND
 40
0.0
  9
$DIMAZIN
 70
     0
  9
$DIMDSEP
 70
    46
  9
$DIMATFIT
 70
     3
  9
$DIMFRAC
 70
     0
  9
$DIMLDRBLK
  1

  9
$DIMLUNIT
 70
     2
  9
$DIMLWD
 70
    -2
  9
$DIMLWE
 70
    -2
  9
$DIMTMOVE
 70
     0
  9
$LUNITS
 70
     2
  9
$LUPREC
 70
     4
  9
$SKETCHINC
 40
0.1
  9
$FILLETRAD
 40
0.5
  9
$AUNITS
 70
     0
  9
$AUPREC
 70
     0
  9
$MENU
  1
.
  9
$ELEVATION
 40
0.0
  9
$PELEVATION
 40
0.0
  9
$THICKNESS
 40
0.0
  9
$LIMCHECK
 70
     0
  9
$CHAMFERA
 40
0.5
  9
$CHAMFERB
 40
0.5
  9
$CHAMFERC
 40
1.0
  9
$CHAMFERD
 40
0.0
  9
$SKPOLY
 70
     0
  9
$TDCREATE
 40
2458829.713229236
  9
$TDUCREATE
 40
2458829.671562569
  9
$TDUPDATE
 40
2458829.713229248
  9
$TDUUPDATE
 40
2458829.671562581
  9
$TDINDWG
 40
0.0000000116
  9
$TDUSRTIMER
 40
0.0000000116
  9
$USRTIMER
 70
     1
  9
$ANGBASE
 50
0.0
  9
$ANGDIR
 70
     0
  9
$PDMODE
 70
     0
  9
$PDSIZE
 40
0.0
  9
$PLINEWID
 40
0.0
  9
$SPLFRAME
 70
     0
  9
$SPLINETYPE
 70
     6
  9
$SPLINESEGS
 70
     8
  9
$HANDSEED
  5
56
  9
$SURFTAB1
 70
     6
  9
$SURFTAB2
 70
     6
  9
$SURFTYPE
 70
     6
  9
$SURFU
 70
     6
  9
$SURFV
 70
     6
  9
$UCSBASE
  2

  9
$UCSNAME
  2

  9
$UCSORG
 10
0.0
 20
0.0
 30
0.0
  9
$UCSXDIR
 10
1.0
 20
0.0
 30
0.0
  9
$UCSYDIR
 10
0.0
 20
1.0
 30
0.0
  9
$UCSORTHOREF
  2

  9
$UCSORTHOVIEW
 70
     0
  9
$UCSORGTOP
 10
0.0
 20
0.0
 30
0.0
  9
$UCSORGBOTTOM
 10
0.0
 20
0.0
 30
0.0
  9
$UCSORGLEFT
 10
0.0
 20
0.0
 30
0.0
  9
$UCSORGRIGHT
 10
0.0
 20
0.0
 30
0.0
  9
$UCSORGFRONT
 10
0.0
 20
0.0
 30
0.0
  9
$UCSORGBACK
 10
0.0
 20
0.0
 30
0.0
  9
$PUCSBASE
  2

  9
$PUCSNAME
  2

  9
$PUCSORG
 10
0.0
 20
0.0
 30
0.0
  9
$PUCSXDIR
 10
1.0
 20
0.0
 30
0.0
  9
$PUCSYDIR
 10
0.0
 20
1.0
 30
0.0
  9
$PUCSORTHOREF
  2

  9
$PUCSORTHOVIEW
 70
     0
  9
$PUCSORGTOP
 10
0.0
 20
0.0
 30
0.0
  9
$PUCSORGBOTTOM
 10
0.0
 20
0.0
 30
0.0
  9
$PUCSORGLEFT
 10
0.0
 20
0.0
 30
0.0
  9
$PUCSORGRIGHT
 10
0.0
 20
0.0
 30
0.0
  9
$PUCSORGFRONT
 10
0.0
 20
0.0
 30
0.0
  9
$PUCSORGBACK
 10
0.0
 20
0.0
 30
0.0
  9
$USERI1
 70
     0
  9
$USERI2
 70
     0
  9
$USERI3
 70
     0
  9
$USERI4
 70
     0
  9
$USERI5
 70
     0
  9
$USERR1
 40
0.0
  9
$USERR2
 40
0.0
  9
$USERR3
 40
0.0
  9
$USERR4
 40
0.0
  9
$USERR5
 40
0.0
  9
$WORLDVIEW
 70
     1
  9
$SHADEDGE
 70
     3
  9
$SHADEDIF
 70
    70
  9
$TILEMODE
 70
     1
  9
$MAXACTVP
 70
    64
  9
$PINSBASE
 10
0.0
 20
0.0
 30
0.0
  9
$PLIMCHECK
 70
     0
  9
$PEXTMIN
 10
1.000000000000000E+20
 20
1.000000000000000E+20
 30
1.000000000000000E+20
  9
$PEXTMAX
 10
-1.000000000000000E+20
 20
-1.000000000000000E+20
 30
-1.000000000000000E+20
  9
$PLIMMIN
 10
0.0
 20
0.0
  9
$PLIMMAX
 10
12.0
 20
9.0
  9
$UNITMODE
 70
     0
  9
$VISRETAIN
 70
     1
  9
$PLINEGEN
 70
     0
  9
$PSLTSCALE
 70
     1
  9
$TREEDEPTH
 70
  3020
  9
$CMLSTYLE
  2
Standard
  9
$CMLJUST
 70
     0
  9
$CMLSCALE
 40
1.0
  9
$PROXYGRAPHICS
 70
     1
  9
$MEASUREMENT
 70
     0
  9
$CELWEIGHT
370
    -1
  9
$ENDCAPS
280
     0
  9
$JOINSTYLE
280
     0
  9
$LWDISPLAY
290
     1
  9
$INSUNITS
 70
     1
  9
$HYPERLINKBASE
  1

  9
$STYLESHEET
  1

  9
$XEDIT
290
     1
  9
$CEPSNTYPE
380
     0
  9
$PSTYLEMODE
290
     1
  9
$FINGERPRINTGUID
  2
{01A66A16-74C9-4239-BF0D-A8FE01B29AB8}
  9
$VERSIONGUID
  2
{FAEB1C32-E019-11D5-929B-00C0DF256EC4}
  9
$EXTNAMES
290
     1
  9
$PSVPSCALE
 40
0.0
  9
$OLESTARTUP
290
     0
  0
ENDSEC
  0
SECTION
  2
CLASSES
  0
CLASS
  1
ACDBDICTIONARYWDFLT
  2
AcDbDictionaryWithDefault
  3
ObjectDBX Classes
 90
        0
280
     0
281
     0
  0
CLASS
  1
VISUALSTYLE
  2
AcDbVisualStyle
  3
ObjectDBX Classes
 90
     4095
280
     0
281
     0
  0
CLASS
  1
ACDBPLACEHOLDER
  2
AcDbPlaceHolder
  3
ObjectDBX Classes
 90
        0
280
     0
281
     0
  0
CLASS
  1
LAYOUT
  2
AcDbLayout
  3
ObjectDBX Classes
 90
        0
280
     0
281
     0
  0
ENDSEC
  0
SECTION
  2
TABLES
  0
TABLE
  2
VPORT
  5
8
330
0
100
AcDbSymbolTable
 70
     1
  0
VPORT
  5
29
330
8
100
AcDbSymbolTableRecord
100
AcDbViewportTableRecord
  2
*Active
 70
     0
 10
0.0
 20
0.0
 11
1.0
 21
1.0
 12
0.0
 22
0.0
 13
0.0
 23
0.0
 14
0.5
 24
0.5
 15
0.5
 25
0.5
 16
0.0
 26
0.0
 36
1.0
 17
221.5444443890584
 27
-191.5583332854438
 37
0.0
 40
383.1166665708875
 41
1.156537753222836
 42
50.0
 43
0.0
 44
0.0
 50
0.0
 51
0.0
 71
     0
 72
   100
 73
     1
 74
     3
 75
     0
 76
     0
 77
     0
 78
     0
281
     0
 65
     1
110
0.0
120
0.0
130
0.0
111
1.0
121
0.0
131
0.0
112
0.0
122
1.0
132
0.0
 79
     0
146
0.0
  0
ENDTAB
  0
TABLE
  2
LTYPE
  5
5
330
0
100
AcDbSymbolTable
 70
     1
  0
LTYPE
  5
14
330
5
100
AcDbSymbolTableRecord
100
AcDbLinetypeTableRecord
  2
ByBlock
 70
     0
  3

 72
    65
 73
     0
 40
0.0
  0
LTYPE
  5
15
330
5
100
AcDbSymbolTableRecord
100
AcDbLinetypeTableRecord
  2
ByLayer
 70
     0
  3

 72
    65
 73
     0
 40
0.0
  0
LTYPE
  5
16
330
5
100
AcDbSymbolTableRecord
100
AcDbLinetypeTableRecord
  2
Continuous
 70
     0
  3
Solid line
 72
    65
 73
     0
 40
0.0
  0
ENDTAB
  0
TABLE
  2
LAYER
  5
2
330
0
100
AcDbSymbolTable
 70
     8
  0
LAYER
  5
10
330
2
100
AcDbSymbolTableRecord
100
AcDbLayerTableRecord
  2
0
 70
     0
 62
     7
  6
Continuous
370
    -3
390
F
  0
LAYER
  5
3B
330
2
100
AcDbSymbolTableRecord
100
AcDbLayerTableRecord
  2
Plexiglass_01_3mmThick
 70
     1
 62
     7
  6
Continuous
370
    -3
390
F
  0
LAYER
  5
3C
330
2
100
AcDbSymbolTableRecord
100
AcDbLayerTableRecord
  2
InnerCase_DraftForCAO
 70
     1
 62
     7
  6
Continuous
370
    -3
390
F
  0
LAYER
  5
3D
330
2
100
AcDbSymbolTableRecord
100
AcDbLayerTableRecord
  2
Wood_01_SensorSupport_3mmThick
 70
     1
 62
     7
  6
Continuous
370
    -3
390
F
  0
LAYER
  5
3E
330
2
100
AcDbSymbolTableRecord
100
AcDbLayerTableRecord
  2
Plexyglass_02_12mmThick
 70
     0
 62
     7
  6
Continuous
370
    -3
390
F
  0
LAYER
  5
52
330
2
100
AcDbSymbolTableRecord
100
AcDbLayerTableRecord
  2
Wood_02_VelostatGNDPattern
 70
     1
 62
     7
  6
Continuous
370
    -3
390
F
  0
LAYER
  5
53
330
2
100
AcDbSymbolTableRecord
100
AcDbLayerTableRecord
  2
Guid_3mmThick
 70
     1
 62
     7
  6
Continuous
370
    -3
390
F
  0
LAYER
  5
54
330
2
100
AcDbSymbolTableRecord
100
AcDbLayerTableRecord
  2
Holes
 70
     1
 62
     7
  6
Continuous
370
    -3
390
F
  0
ENDTAB
  0
TABLE
  2
STYLE
  5
3
330
0
100
AcDbSymbolTable
 70
     1
  0
STYLE
  5
11
330
3
100
AcDbSymbolTableRecord
100
AcDbTextStyleTableRecord
  2
Standard
 70
     0
 40
0.0
 41
1.0
 50
0.0
 71
     0
 42
0.2
  3
txt
  4

  0
ENDTAB
  0
TABLE
  2
VIEW
  5
6
330
0
100
AcDbSymbolTable
 70
     0
  0
ENDTAB
  0
TABLE
  2
UCS
  5
7
330
0
100
AcDbSymbolTable
 70
     0
  0
ENDTAB
  0
TABLE
  2
APPID
  5
9
330
0
100
AcDbSymbolTable
 70
     1
  0
APPID
  5
12
330
9
100
AcDbSymbolTableRecord
100
AcDbRegAppTableRecord
  2
ACAD
 70
     0
  0
ENDTAB
  0
TABLE
  2
DIMSTYLE
  5
A
330
0
100
AcDbSymbolTable
 70
     1
100
AcDbDimStyleTable
  0
DIMSTYLE
105
27
330
A
100
AcDbSymbolTableRecord
100
AcDbDimStyleTableRecord
  2
Standard
 70
     0
340
11
  0
ENDTAB
  0
TABLE
  2
BLOCK_RECORD
  5
1
330
0
100
AcDbSymbolTable
 70
     2
  0
BLOCK_RECORD
  5
1F
330
1
100
AcDbSymbolTableRecord
100
AcDbBlockTableRecord
  2
*Model_Space
340
22
  0
BLOCK_RECORD
  5
1B
330
1
100
AcDbSymbolTableRecord
100
AcDbBlockTableRecord
  2
*Paper_Space
340
1E
  0
BLOCK_RECORD
  5
23
330
1
100
AcDbSymbolTableRecord
100
AcDbBlockTableRecord
  2
*Paper_Space0
340
26
  0
BLOCK_RECORD
  5
3F
330
1
100
AcDbSymbolTableRecord
100
AcDbBlockTableRecord
  2
block 2
340
0
102
{BLKREFS
331
40
102
}
  0
ENDTAB
  0
ENDSEC
  0
SECTION
  2
BLOCKS
  0
BLOCK
  5
20
330
1F
100
AcDbEntity
  8
0
100
AcDbBlockBegin
  2
*Model_Space
 70
     0
 71
     0
 10
0.0
 20
0.0
 30
0.0
  3
*Model_Space
  1

  0
ENDBLK
  5
21
330
1F
100
AcDbEntity
  8
0
100
AcDbBlockEnd
  0
BLOCK
  5
1C
330
1B
100
AcDbEntity
 67
     1
  8
0
100
AcDbBlockBegin
  2
*Paper_Space
 70
     0
 71
     0
 10
0.0
 20
0.0
 30
0.0
  3
*Paper_Space
  1

  0
ENDBLK
  5
1D
330
1B
100
AcDbEntity
 67
     1
  8
0
100
AcDbBlockEnd
  0
BLOCK
  5
24
330
23
100
AcDbEntity
  8
0
100
AcDbBlockBegin
  2
*Paper_Space0
 70
     0
 71
     0
 10
0.0
 20
0.0
 30
0.0
  3
*Paper_Space0
  1

  0
ENDBLK
  5
25
330
23
100
AcDbEntity
  8
0
100
AcDbBlockEnd
  0
BLOCK
  5
41
330
3F
100
AcDbEntity
  8
0
100
AcDbBlockBegin
  2
block 2
 70
     0
 71
     0
 10
0.0
 20
0.0
 30
0.0
  3
block 2
  1

  0
SPLINE
  5
43
330
3F
100
AcDbEntity
  8
Plexyglass_02_12mmThick
 62
     7
370
    35
100
AcDbSpline
210
0.0
220
0.0
230
1.0
 70
    11
 71
     3
 72
    59
 73
    55
 74
     0
 42
0.0000000001
 43
0.0000000001
 40
0.0
 40
0.0
 40
0.0
 40
0.0
 40
1.0
 40
1.0
 40
1.0
 40
2.0
 40
2.0
 40
2.0
 40
3.0
 40
3.0
 40
3.0
 40
4.0
 40
4.0
 40
4.0
 40
5.0
 40
5.0
 40
5.0
 40
6.0
 40
6.0
 40
6.0
 40
7.0
 40
7.0
 40
7.0
 40
8.0
 40
8.0
 40
8.0
 40
9.0
 40
9.0
 40
9.0
 40
10.0
 40
10.0
 40
10.0
 40
11.0
 40
11.0
 40
11.0
 40
12.0
 40
12.0
 40
12.0
 40
13.0
 40
13.0
 40
13.0
 40
14.0
 40
14.0
 40
14.0
 40
15.0
 40
15.0
 40
15.0
 40
16.0
 40
16.0
 40
16.0
 40
17.0
 40
17.0
 40
17.0
 40
18.0
 40
18.0
 40
18.0
 40
18.0
 10
319.1326306710849
 20
-310.1230169580596
 30
0.0
 10
303.6827554579335
 20
-310.1230169580596
 30
0.0
 10
289.4369411168769
 20
-302.0284206059165
 30
0.0
 10
281.4601670303294
 20
-288.8609211517431
 30
0.0
 10
274.8541964373629
 20
-293.8924831079505
 30
0.0
 10
267.6484347204143
 20
-298.126160949774
 30
0.0
 10
260.0134141060036
 20
-301.4596353413017
 30
0.0
 10
246.8483262186699
 20
-307.2081216679896
 30
0.0
 10
232.864166879718
 20
-310.1230169580596
 30
0.0
 10
218.4502318789812
 20
-310.1230169580596
 30
0.0
 10
190.6944755925174
 20
-310.1230169580596
 30
0.0
 10
164.5995998394925
 20
-299.3143743826367
 30
0.0
 10
144.9725463504756
 20
-279.6880099127169
 30
0.0
 10
125.3454928614588
 20
-260.0609564237001
 30
0.0
 10
114.5361612669389
 20
-233.9657361611266
 30
0.0
 10
114.5361612669389
 20
-206.2092908555657
 30
0.0
 10
114.5361612669389
 20
-178.4525010404563
 30
0.0
 10
125.3454928614588
 20
-152.3572807778829
 30
0.0
 10
144.9722018409271
 20
-132.7307440531889
 30
0.0
 10
164.5985663108469
 20
-113.1042073284948
 30
0.0
 10
190.6937865734203
 20
-102.2953924982977
 30
0.0
 10
218.4502318789812
 20
-102.2953924982977
 30
0.0
 10
238.8582885145042
 20
-102.2953924982977
 30
0.0
 10
258.4613985898986
 20
-108.1430975749608
 30
0.0
 10
275.3447780344624
 20
-119.236132782691
 30
0.0
 10
276.8402939846094
 20
-109.7447224660534
 30
0.0
 10
285.0768282707447
 20
-102.4626518841066
 30
0.0
 10
294.9818223003865
 20
-102.4626518841066
 30
0.0
 10
305.9430826058059
 20
-102.4626518841066
 30
0.0
 10
314.8610567789236
 20
-111.38045380245
 30
0.0
 10
314.8610567789236
 20
-122.3418863626437
 30
0.0
 10
314.8610567789236
 20
-122.3418863626437
 30
0.0
 10
314.8610567789236
 20
-266.092974108824
 30
0.0
 10
314.8610567789236
 20
-266.092974108824
 30
0.0
 10
314.8610567789236
 20
-268.4483858920893
 30
0.0
 10
316.7772188878196
 20
-270.3645480009853
 30
0.0
 10
319.1326306710849
 20
-270.3645480009853
 30
0.0
 10
320.3577066256398
 20
-270.3645480009853
 30
0.0
 10
321.5273165428821
 20
-269.8350368249024
 30
0.0
 10
322.3420816251436
 20
-268.9114067253069
 30
0.0
 10
326.1137721623952
 20
-264.6370767567574
 30
0.0
 10
331.5477212712797
 20
-262.1855468094536
 30
0.0
 10
337.2500433184653
 20
-262.1855468094536
 30
0.0
 10
342.0955701184692
 20
-262.1855468094536
 30
0.0
 10
346.7657415582739
 20
-263.9518472647412
 30
0.0
 10
350.4003172952125
 20
-267.1588866519603
 30
0.0
 10
354.3818141475157
 20
-270.6725395373666
 30
0.0
 10
356.7572074845954
 20
-275.5259900569866
 30
0.0
 10
357.0882811607279
 20
-280.8252359323978
 30
0.0
 10
357.4190103273119
 20
-286.1258598460033
 30
0.0
 10
355.6658012348683
 20
-291.237692527017
 30
0.0
 10
352.152148349462
 20
-295.2185003602232
 30
0.0
 10
343.7943467022459
 20
-304.6904458873691
 30
0.0
 10
331.7589056245255
 20
-310.1230169580596
 30
0.0
 10
319.1326306710849
 20
-310.1230169580596
 30
0.0
  0
SPLINE
  5
44
330
3F
100
AcDbEntity
  8
Plexyglass_02_12mmThick
 62
     7
370
    35
100
AcDbSpline
210
0.0
220
0.0
230
1.0
 70
    11
 71
     3
 72
    77
 73
    73
 74
     0
 42
0.0000000001
 43
0.0000000001
 40
0.0
 40
0.0
 40
0.0
 40
0.0
 40
1.0
 40
1.0
 40
1.0
 40
2.0
 40
2.0
 40
2.0
 40
3.0
 40
3.0
 40
3.0
 40
4.0
 40
4.0
 40
4.0
 40
5.0
 40
5.0
 40
5.0
 40
6.0
 40
6.0
 40
6.0
 40
7.0
 40
7.0
 40
7.0
 40
8.0
 40
8.0
 40
8.0
 40
9.0
 40
9.0
 40
9.0
 40
10.0
 40
10.0
 40
10.0
 40
11.0
 40
11.0
 40
11.0
 40
12.0
 40
12.0
 40
12.0
 40
13.0
 40
13.0
 40
13.0
 40
14.0
 40
14.0
 40
14.0
 40
15.0
 40
15.0
 40
15.0
 40
16.0
 40
16.0
 40
16.0
 40
17.0
 40
17.0
 40
17.0
 40
18.0
 40
18.0
 40
18.0
 40
19.0
 40
19.0
 40
19.0
 40
20.0
 40
20.0
 40
20.0
 40
21.0
 40
21.0
 40
21.0
 40
22.0
 40
22.0
 40
22.0
 40
23.0
 40
23.0
 40
23.0
 40
24.0
 40
24.0
 40
24.0
 40
24.0
 10
319.1326306710849
 20
-300.1232828025734
 30
0.0
 10
305.9706433696879
 20
-300.1232828025734
 30
0.0
 10
293.858032153098
 20
-292.3914550050271
 30
0.0
 10
288.2738768810565
 20
-280.4256048561089
 30
0.0
 10
288.2738768810565
 20
-280.4256048561089
 30
0.0
 10
284.8659884270474
 20
-273.1240694846704
 30
0.0
 10
284.8659884270474
 20
-273.1240694846704
 30
0.0
 10
284.8659884270474
 20
-273.1240694846704
 30
0.0
 10
278.6813530119269
 20
-278.2886121266084
 30
0.0
 10
278.6813530119269
 20
-278.2886121266084
 30
0.0
 10
271.8380153400266
 20
-284.0033365175408
 30
0.0
 10
264.210918445232
 20
-288.7158826318141
 30
0.0
 10
256.0119356998859
 20
-292.2949923314401
 30
0.0
 10
244.1156764797697
 20
-297.4895073040998
 30
0.0
 10
231.4778604564535
 20
-300.1232828025734
 30
0.0
 10
218.4502318789812
 20
-300.1232828025734
 30
0.0
 10
193.3654581222316
 20
-300.1232828025734
 30
0.0
 10
169.7817124684053
 20
-290.3547145541474
 30
0.0
 10
152.0429158148539
 20
-272.6166069196931
 30
0.0
 10
134.3048081803995
 20
-254.8781547756902
 30
0.0
 10
124.5358954224251
 20
-231.2940646123154
 30
0.0
 10
124.5358954224251
 20
-206.2092908555657
 30
0.0
 10
124.5358954224251
 20
-181.1241725892676
 30
0.0
 10
134.3048081803995
 20
-157.5404269354413
 30
0.0
 10
152.0429158148539
 20
-139.8019747914384
 30
0.0
 10
169.7813679588567
 20
-122.0642116665326
 30
0.0
 10
193.365113612683
 20
-112.2956434181066
 30
0.0
 10
218.4502318789812
 20
-112.2956434181066
 30
0.0
 10
239.1356187010668
 20
-112.2956434181066
 30
0.0
 10
258.743207400592
 20
-118.8814602024845
 30
0.0
 10
275.152886215934
 20
-131.3413370439876
 30
0.0
 10
275.152886215934
 20
-131.3413370439876
 30
0.0
 10
283.2354247338786
 20
-137.4779133770889
 30
0.0
 10
283.2354247338786
 20
-137.4779133770889
 30
0.0
 10
283.432484195635
 20
-137.6067599482372
 30
0.0
 10
283.6688177459231
 20
-137.6777289152334
 30
0.0
 10
283.9030842389201
 20
-137.6777289152334
 30
0.0
 10
284.5865911831937
 20
-137.6777289152334
 30
0.0
 10
285.1023219773355
 20
-137.1830132035515
 30
0.0
 10
285.1023219773355
 20
-136.5270670231599
 30
0.0
 10
285.1023219773355
 20
-136.5270670231599
 30
0.0
 10
285.1023219773355
 20
-122.3418863626437
 30
0.0
 10
285.1023219773355
 20
-122.3418863626437
 30
0.0
 10
285.1023219773355
 20
-116.8945013813667
 30
0.0
 10
289.5340928095609
 20
-112.4629028039155
 30
0.0
 10
294.9818223003865
 20
-112.4629028039155
 30
0.0
 10
300.4295517912121
 20
-112.4629028039155
 30
0.0
 10
304.8613226234374
 20
-116.8945013813667
 30
0.0
 10
304.8613226234374
 20
-122.3418863626437
 30
0.0
 10
304.8613226234374
 20
-122.3418863626437
 30
0.0
 10
304.8613226234374
 20
-266.092974108824
 30
0.0
 10
304.8613226234374
 20
-266.092974108824
 30
0.0
 10
304.8613226234374
 20
-273.9622612162317
 30
0.0
 10
311.2633435636772
 20
-280.3642821564715
 30
0.0
 10
319.1326306710849
 20
-280.3642821564715
 30
0.0
 10
323.2260931266588
 20
-280.3642821564715
 30
0.0
 10
327.1290418018983
 20
-278.6014267966691
 30
0.0
 10
329.8406764583385
 20
-275.5277126047292
 30
0.0
 10
331.7151529118629
 20
-273.4034667285242
 30
0.0
 10
334.4157632627503
 20
-272.1852809649398
 30
0.0
 10
337.2500433184653
 20
-272.1852809649398
 30
0.0
 10
339.6571315340094
 20
-272.1852809649398
 30
0.0
 10
341.9777478528736
 20
-273.0630912945815
 30
0.0
 10
343.7843559253387
 20
-274.6574814851551
 30
0.0
 10
345.7628742625176
 20
-276.4027668579827
 30
0.0
 10
346.9431639757642
 20
-278.814678207206
 30
0.0
 10
347.1078395399592
 20
-281.4484537056796
 30
0.0
 10
347.2718260850571
 20
-284.0832627327986
 30
0.0
 10
346.4009059463859
 20
-286.6233316340733
 30
0.0
 10
344.6549315544613
 20
-288.6015054617038
 30
0.0
 10
338.1936549718752
 20
-295.9237114060538
 30
0.0
 10
328.8912081426036
 20
-300.1232828025734
 30
0.0
 10
319.1326306710849
 20
-300.1232828025734
 30
0.0
  0
ENDBLK
  5
42
330
3F
100
AcDbEntity
  8
0
100
AcDbBlockEnd
  0
ENDSEC
  0
SECTION
  2
ENTITIES
  0
INSERT
  5
40
330
1F
100
AcDbEntity
  8
Plexyglass_02_12mmThick
100
AcDbBlockReference
  2
block 2
 10
0.0
 20
0.0
 30
0.0
  0
SPLINE
  5
45
330
1F
100
AcDbEntity
  8
Plexyglass_02_12mmThick
 62
     7
370
    35
100
AcDbSpline
210
0.0
220
0.0
230
1.0
 70
    11
 71
     3
 72
    17
 73
    13
 74
     0
 42
0.0000000001
 43
0.0000000001
 40
0.0
 40
0.0
 40
0.0
 40
0.0
 40
1.0
 40
1.0
 40
1.0
 40
2.0
 40
2.0
 40
2.0
 40
3.0
 40
3.0
 40
3.0
 40
4.0
 40
4.0
 40
4.0
 40
4.0
 10
220.1502142461777
 20
-109.8856268714001
 30
0.0
 10
220.1502142461777
 20
-110.824587645905
 30
0.0
 10
219.389192653486
 20
-111.5856092385967
 30
0.0
 10
218.4502318789812
 20
-111.5856092385967
 30
0.0
 10
217.5112711044764
 20
-111.5856092385967
 30
0.0
 10
216.7502495117847
 20
-110.824587645905
 30
0.0
 10
216.7502495117847
 20
-109.8856268714001
 30
0.0
 10
216.7502495117847
 20
-108.9466660968953
 30
0.0
 10
217.5112711044764
 20
-108.1856445042036
 30
0.0
 10
218.4502318789812
 20
-108.1856445042036
 30
0.0
 10
219.389192653486
 20
-108.1856445042036
 30
0.0
 10
220.1502142461777
 20
-108.9466660968953
 30
0.0
 10
220.1502142461777
 20
-109.8856268714001
 30
0.0
  0
SPLINE
  5
46
330
1F
100
AcDbEntity
  8
Plexyglass_02_12mmThick
 62
     7
370
    35
100
AcDbSpline
210
0.0
220
0.0
230
1.0
 70
    11
 71
     3
 72
    17
 73
    13
 74
     0
 42
0.0000000001
 43
0.0000000001
 40
0.0
 40
0.0
 40
0.0
 40
0.0
 40
1.0
 40
1.0
 40
1.0
 40
2.0
 40
2.0
 40
2.0
 40
3.0
 40
3.0
 40
3.0
 40
4.0
 40
4.0
 40
4.0
 40
4.0
 10
220.1502142461777
 20
-302.5334716040542
 30
0.0
 10
220.1502142461777
 20
-303.4722601237847
 30
0.0
 10
219.389192653486
 20
-304.233626226025
 30
0.0
 10
218.4502318789812
 20
-304.233626226025
 30
0.0
 10
217.5112711044764
 20
-304.233626226025
 30
0.0
 10
216.7502495117847
 20
-303.4722601237847
 30
0.0
 10
216.7502495117847
 20
-302.5334716040542
 30
0.0
 10
216.7502495117847
 20
-301.5946830843235
 30
0.0
 10
217.5112711044764
 20
-300.8333169820834
 30
0.0
 10
218.4502318789812
 20
-300.8333169820834
 30
0.0
 10
219.389192653486
 20
-300.8333169820834
 30
0.0
 10
220.1502142461777
 20
-301.5946830843235
 30
0.0
 10
220.1502142461777
 20
-302.5334716040542
 30
0.0
  0
SPLINE
  5
47
330
1F
100
AcDbEntity
  8
Plexyglass_02_12mmThick
 62
     7
370
    35
100
AcDbSpline
210
0.0
220
0.0
230
1.0
 70
    11
 71
     3
 72
    17
 73
    13
 74
     0
 42
0.0000000001
 43
0.0000000001
 40
0.0
 40
0.0
 40
0.0
 40
0.0
 40
1.0
 40
1.0
 40
1.0
 40
2.0
 40
2.0
 40
2.0
 40
3.0
 40
3.0
 40
3.0
 40
4.0
 40
4.0
 40
4.0
 40
4.0
 10
151.540965402653
 20
-136.8960367496302
 30
0.0
 10
152.2050075574349
 20
-137.5599066496378
 30
0.0
 10
152.2050075574349
 20
-138.6364989887784
 30
0.0
 10
151.540965402653
 20
-139.300368888786
 30
0.0
 10
150.8770955026453
 20
-139.9642387887937
 30
0.0
 10
149.800675418279
 20
-139.9642387887937
 30
0.0
 10
149.1368055182714
 20
-139.300368888786
 30
0.0
 10
148.4729356182637
 20
-138.6364989887784
 30
0.0
 10
148.4729356182637
 20
-137.5599066496378
 30
0.0
 10
149.1368055182714
 20
-136.8960367496302
 30
0.0
 10
149.800675418279
 20
-136.2321668496225
 30
0.0
 10
150.8770955026453
 20
-136.2321668496225
 30
0.0
 10
151.540965402653
 20
-136.8960367496302
 30
0.0
  0
SPLINE
  5
48
330
1F
100
AcDbEntity
  8
Plexyglass_02_12mmThick
 62
     7
370
    35
100
AcDbSpline
210
0.0
220
0.0
230
1.0
 70
    11
 71
     3
 72
    17
 73
    13
 74
     0
 42
0.0000000001
 43
0.0000000001
 40
0.0
 40
0.0
 40
0.0
 40
0.0
 40
1.0
 40
1.0
 40
1.0
 40
2.0
 40
2.0
 40
2.0
 40
3.0
 40
3.0
 40
3.0
 40
4.0
 40
4.0
 40
4.0
 40
4.0
 10
275.1649440501324
 20
-128.0359401806646
 30
0.0
 10
274.5010741501247
 20
-128.6998100806723
 30
0.0
 10
274.5010741501247
 20
-129.7760579102643
 30
0.0
 10
275.1649440501324
 20
-130.4401000650462
 30
0.0
 10
275.82881395014
 20
-131.1039699650539
 30
0.0
 10
276.9054062892806
 20
-131.1039699650539
 30
0.0
 10
277.5692761892882
 20
-130.4401000650462
 30
0.0
 10
278.2331460892959
 20
-129.7760579102643
 30
0.0
 10
278.2331460892959
 20
-128.6998100806723
 30
0.0
 10
277.5692761892882
 20
-128.0359401806646
 30
0.0
 10
276.9054062892806
 20
-127.372070280657
 30
0.0
 10
275.82881395014
 20
-127.372070280657
 30
0.0
 10
275.1649440501324
 20
-128.0359401806646
 30
0.0
  0
SPLINE
  5
49
330
1F
100
AcDbEntity
  8
Plexyglass_02_12mmThick
 62
     7
370
    35
100
AcDbSpline
210
0.0
220
0.0
230
1.0
 70
    11
 71
     3
 72
    17
 73
    13
 74
     0
 42
0.0000000001
 43
0.0000000001
 40
0.0
 40
0.0
 40
0.0
 40
0.0
 40
1.0
 40
1.0
 40
1.0
 40
2.0
 40
2.0
 40
2.0
 40
3.0
 40
3.0
 40
3.0
 40
4.0
 40
4.0
 40
4.0
 40
4.0
 10
151.540965402653
 20
-275.5228894710498
 30
0.0
 10
150.8770955026453
 20
-276.1867593710575
 30
0.0
 10
149.800675418279
 20
-276.1867593710575
 30
0.0
 10
149.1368055182714
 20
-275.5228894710498
 30
0.0
 10
148.4729356182637
 20
-274.8590195710422
 30
0.0
 10
148.4729356182637
 20
-273.7827717414502
 30
0.0
 10
149.1368055182714
 20
-273.1189018414425
 30
0.0
 10
149.800675418279
 20
-272.4550319414349
 30
0.0
 10
150.8770955026453
 20
-272.4550319414349
 30
0.0
 10
151.540965402653
 20
-273.1189018414425
 30
0.0
 10
152.2050075574349
 20
-273.7827717414502
 30
0.0
 10
152.2050075574349
 20
-274.8590195710422
 30
0.0
 10
151.540965402653
 20
-275.5228894710498
 30
0.0
  0
SPLINE
  5
4A
330
1F
100
AcDbEntity
  8
Plexyglass_02_12mmThick
 62
     7
370
    35
100
AcDbSpline
210
0.0
220
0.0
230
1.0
 70
    11
 71
     3
 72
    17
 73
    13
 74
     0
 42
0.0000000001
 43
0.0000000001
 40
0.0
 40
0.0
 40
0.0
 40
0.0
 40
1.0
 40
1.0
 40
1.0
 40
2.0
 40
2.0
 40
2.0
 40
3.0
 40
3.0
 40
3.0
 40
4.0
 40
4.0
 40
4.0
 40
4.0
 10
307.2715114249182
 20
-207.3737331295802
 30
0.0
 10
306.3327229051877
 20
-207.3737331295802
 30
0.0
 10
305.571701312496
 20
-206.6127115368885
 30
0.0
 10
305.571701312496
 20
-205.6739230171579
 30
0.0
 10
305.571701312496
 20
-204.7347899878788
 30
0.0
 10
306.3327229051877
 20
-203.9737683951871
 30
0.0
 10
307.2715114249182
 20
-203.9737683951871
 30
0.0
 10
308.2102999446489
 20
-203.9737683951871
 30
0.0
 10
308.971666046889
 20
-204.7347899878788
 30
0.0
 10
308.971666046889
 20
-205.6739230171579
 30
0.0
 10
308.971666046889
 20
-206.6127115368885
 30
0.0
 10
308.2102999446489
 20
-207.3737331295802
 30
0.0
 10
307.2715114249182
 20
-207.3737331295802
 30
0.0
  0
SPLINE
  5
4B
330
1F
100
AcDbEntity
  8
Plexyglass_02_12mmThick
 62
     7
370
    35
100
AcDbSpline
210
0.0
220
0.0
230
1.0
 70
    11
 71
     3
 72
    17
 73
    13
 74
     0
 42
0.0000000001
 43
0.0000000001
 40
0.0
 40
0.0
 40
0.0
 40
0.0
 40
1.0
 40
1.0
 40
1.0
 40
2.0
 40
2.0
 40
2.0
 40
3.0
 40
3.0
 40
3.0
 40
4.0
 40
4.0
 40
4.0
 40
4.0
 10
307.2715114249182
 20
-146.9546820379141
 30
0.0
 10
306.3327229051877
 20
-146.9546820379141
 30
0.0
 10
305.571701312496
 20
-146.1936604452224
 30
0.0
 10
305.571701312496
 20
-145.2545274159433
 30
0.0
 10
305.571701312496
 20
-144.3157388962127
 30
0.0
 10
306.3327229051877
 20
-143.554717303521
 30
0.0
 10
307.2715114249182
 20
-143.554717303521
 30
0.0
 10
308.2102999446489
 20
-143.554717303521
 30
0.0
 10
308.971666046889
 20
-144.3157388962127
 30
0.0
 10
308.971666046889
 20
-145.2545274159433
 30
0.0
 10
308.971666046889
 20
-146.1936604452224
 30
0.0
 10
308.2102999446489
 20
-146.9546820379141
 30
0.0
 10
307.2715114249182
 20
-146.9546820379141
 30
0.0
  0
SPLINE
  5
4C
330
1F
100
AcDbEntity
  8
Plexyglass_02_12mmThick
 62
     7
370
    35
100
AcDbSpline
210
0.0
220
0.0
230
1.0
 70
    11
 71
     3
 72
    17
 73
    13
 74
     0
 42
0.0000000001
 43
0.0000000001
 40
0.0
 40
0.0
 40
0.0
 40
0.0
 40
1.0
 40
1.0
 40
1.0
 40
2.0
 40
2.0
 40
2.0
 40
3.0
 40
3.0
 40
3.0
 40
4.0
 40
4.0
 40
4.0
 40
4.0
 10
294.9818223003865
 20
-111.7528686244055
 30
0.0
 10
294.0430337806559
 20
-111.7528686244055
 30
0.0
 10
293.2816676784157
 20
-110.9916747769396
 30
0.0
 10
293.2816676784157
 20
-110.052886257209
 30
0.0
 10
293.2816676784157
 20
-109.1139254827042
 30
0.0
 10
294.0430337806559
 20
-108.3529038900125
 30
0.0
 10
294.9818223003865
 20
-108.3529038900125
 30
0.0
 10
295.9206108201171
 20
-108.3529038900125
 30
0.0
 10
296.6819769223573
 20
-109.1139254827042
 30
0.0
 10
296.6819769223573
 20
-110.052886257209
 30
0.0
 10
296.6819769223573
 20
-110.9916747769396
 30
0.0
 10
295.9206108201171
 20
-111.7528686244055
 30
0.0
 10
294.9818223003865
 20
-111.7528686244055
 30
0.0
  0
SPLINE
  5
4D
330
1F
100
AcDbEntity
  8
Plexyglass_02_12mmThick
 62
     7
370
    35
100
AcDbSpline
210
0.0
220
0.0
230
1.0
 70
    11
 71
     3
 72
    17
 73
    13
 74
     0
 42
0.0000000001
 43
0.0000000001
 40
0.0
 40
0.0
 40
0.0
 40
0.0
 40
1.0
 40
1.0
 40
1.0
 40
2.0
 40
2.0
 40
2.0
 40
3.0
 40
3.0
 40
3.0
 40
4.0
 40
4.0
 40
4.0
 40
4.0
 10
307.2715114249182
 20
-264.3928194868532
 30
0.0
 10
306.3327229051877
 20
-264.3928194868532
 30
0.0
 10
305.571701312496
 20
-265.1541855890934
 30
0.0
 10
305.571701312496
 20
-266.092974108824
 30
0.0
 10
305.571701312496
 20
-267.0317626285546
 30
0.0
 10
306.3327229051877
 20
-267.7931287307948
 30
0.0
 10
307.2715114249182
 20
-267.7931287307948
 30
0.0
 10
308.2102999446489
 20
-267.7931287307948
 30
0.0
 10
308.971666046889
 20
-267.0317626285546
 30
0.0
 10
308.971666046889
 20
-266.092974108824
 30
0.0
 10
308.971666046889
 20
-265.1541855890934
 30
0.0
 10
308.2102999446489
 20
-264.3928194868532
 30
0.0
 10
307.2715114249182
 20
-264.3928194868532
 30
0.0
  0
SPLINE
  5
4E
330
1F
100
AcDbEntity
  8
Plexyglass_02_12mmThick
 62
     7
370
    35
100
AcDbSpline
210
0.0
220
0.0
230
1.0
 70
    11
 71
     3
 72
    17
 73
    13
 74
     0
 42
0.0000000001
 43
0.0000000001
 40
0.0
 40
0.0
 40
0.0
 40
0.0
 40
1.0
 40
1.0
 40
1.0
 40
2.0
 40
2.0
 40
2.0
 40
3.0
 40
3.0
 40
3.0
 40
4.0
 40
4.0
 40
4.0
 40
4.0
 10
319.1326306710849
 20
-300.8333169820834
 30
0.0
 10
318.1938421513543
 20
-300.8333169820834
 30
0.0
 10
317.4324760491141
 20
-301.5946830843235
 30
0.0
 10
317.4324760491141
 20
-302.5334716040542
 30
0.0
 10
317.4324760491141
 20
-303.4722601237847
 30
0.0
 10
318.1938421513543
 20
-304.233626226025
 30
0.0
 10
319.1326306710849
 20
-304.233626226025
 30
0.0
 10
320.0714191908155
 20
-304.233626226025
 30
0.0
 10
320.8327852930557
 20
-303.4722601237847
 30
0.0
 10
320.8327852930557
 20
-302.5334716040542
 30
0.0
 10
320.8327852930557
 20
-301.5946830843235
 30
0.0
 10
320.0714191908155
 20
-300.8333169820834
 30
0.0
 10
319.1326306710849
 20
-300.8333169820834
 30
0.0
  0
SPLINE
  5
4F
330
1F
100
AcDbEntity
  8
Plexyglass_02_12mmThick
 62
     7
370
    35
100
AcDbSpline
210
0.0
220
0.0
230
1.0
 70
    11
 71
     3
 72
    17
 73
    13
 74
     0
 42
0.0000000001
 43
0.0000000001
 40
0.0
 40
0.0
 40
0.0
 40
0.0
 40
1.0
 40
1.0
 40
1.0
 40
2.0
 40
2.0
 40
2.0
 40
3.0
 40
3.0
 40
3.0
 40
4.0
 40
4.0
 40
4.0
 40
4.0
 10
346.1842094403637
 20
-271.9279323321916
 30
0.0
 10
345.2454209206331
 20
-271.9279323321916
 30
0.0
 10
344.4840548183929
 20
-272.6889539248833
 30
0.0
 10
344.4840548183929
 20
-273.6277424446139
 30
0.0
 10
344.4840548183929
 20
-274.5665309643445
 30
0.0
 10
345.2454209206331
 20
-275.3278970665847
 30
0.0
 10
346.1842094403637
 20
-275.3278970665847
 30
0.0
 10
347.1229979600943
 20
-275.3278970665847
 30
0.0
 10
347.884019552786
 20
-274.5665309643445
 30
0.0
 10
347.884019552786
 20
-273.6277424446139
 30
0.0
 10
347.884019552786
 20
-272.6889539248833
 30
0.0
 10
347.1229979600943
 20
-271.9279323321916
 30
0.0
 10
346.1842094403637
 20
-271.9279323321916
 30
0.0
  0
SPLINE
  5
50
330
1F
100
AcDbEntity
  8
Plexyglass_02_12mmThick
 62
     7
370
    35
100
AcDbSpline
210
0.0
220
0.0
230
1.0
 70
    11
 71
     3
 72
    17
 73
    13
 74
     0
 42
0.0000000001
 43
0.0000000001
 40
0.0
 40
0.0
 40
0.0
 40
0.0
 40
1.0
 40
1.0
 40
1.0
 40
2.0
 40
2.0
 40
2.0
 40
3.0
 40
3.0
 40
3.0
 40
4.0
 40
4.0
 40
4.0
 40
4.0
 10
271.0401312256428
 20
-288.6259656396491
 30
0.0
 10
270.1013427059122
 20
-288.6259656396491
 30
0.0
 10
269.339976603672
 20
-287.8645995374089
 30
0.0
 10
269.339976603672
 20
-286.9258110176783
 30
0.0
 10
269.339976603672
 20
-285.9870224979477
 30
0.0
 10
270.1013427059122
 20
-285.2256563957075
 30
0.0
 10
271.0401312256428
 20
-285.2256563957075
 30
0.0
 10
271.9789197453733
 20
-285.2256563957075
 30
0.0
 10
272.739941338065
 20
-285.9870224979477
 30
0.0
 10
272.739941338065
 20
-286.9258110176783
 30
0.0
 10
272.739941338065
 20
-287.8645995374089
 30
0.0
 10
271.9789197453733
 20
-288.6259656396491
 30
0.0
 10
271.0401312256428
 20
-288.6259656396491
 30
0.0
  0
SPLINE
  5
51
330
1F
100
AcDbEntity
  8
Plexyglass_02_12mmThick
 62
     7
370
    35
100
AcDbSpline
210
0.0
220
0.0
230
1.0
 70
    11
 71
     3
 72
    17
 73
    13
 74
     0
 42
0.0000000001
 43
0.0000000001
 40
0.0
 40
0.0
 40
0.0
 40
0.0
 40
1.0
 40
1.0
 40
1.0
 40
2.0
 40
2.0
 40
2.0
 40
3.0
 40
3.0
 40
3.0
 40
4.0
 40
4.0
 40
4.0
 40
4.0
 10
122.1262233852671
 20
-207.9094454775365
 30
0.0
 10
121.1874348655365
 20
-207.9094454775365
 30
0.0
 10
120.4262410180705
 20
-207.1484238848448
 30
0.0
 10
120.4262410180705
 20
-206.2096353651143
 30
0.0
 10
120.4262410180705
 20
-205.2705023358352
 30
0.0
 10
121.1874348655365
 20
-204.5094807431435
 30
0.0
 10
122.1262233852671
 20
-204.5094807431435
 30
0.0
 10
123.0651841597719
 20
-204.5094807431435
 30
0.0
 10
123.8263780072378
 20
-205.2705023358352
 30
0.0
 10
123.8263780072378
 20
-206.2096353651143
 30
0.0
 10
123.8263780072378
 20
-207.1484238848448
 30
0.0
 10
123.0651841597719
 20
-207.9094454775365
 30
0.0
 10
122.1262233852671
 20
-207.9094454775365
 30
0.0
  0
ENDSEC
  0
SECTION
  2
OBJECTS
  0
DICTIONARY
  5
C
330
0
100
AcDbDictionary
281
     1
  3
ACAD_GROUP
350
D
  3
ACAD_LAYOUT
350
1A
  3
ACAD_MLINESTYLE
350
17
  3
ACAD_PLOTSETTINGS
350
19
  3
ACAD_PLOTSTYLENAME
350
E
  3
ACAD_TABLESTYLE
350
55
  3
ACAD_VISUALSTYLE
350
2A
  0
DICTIONARY
  5
D
102
{ACAD_REACTORS
330
C
102
}
330
C
100
AcDbDictionary
281
     1
  0
DICTIONARY
  5
1A
102
{ACAD_REACTORS
330
C
102
}
330
C
100
AcDbDictionary
281
     1
  3
Layout1
350
1E
  3
Layout2
350
26
  3
Model
350
22
  0
DICTIONARY
  5
17
102
{ACAD_REACTORS
330
C
102
}
330
C
100
AcDbDictionary
281
     1
  3
Standard
350
18
  0
DICTIONARY
  5
19
102
{ACAD_REACTORS
330
C
102
}
330
C
100
AcDbDictionary
281
     1
  0
ACDBDICTIONARYWDFLT
  5
E
102
{ACAD_REACTORS
330
C
102
}
330
C
100
AcDbDictionary
281
     1
  3
Normal
350
F
100
AcDbDictionaryWithDefault
340
F
  0
DICTIONARY
  5
55
102
{ACAD_REACTORS
330
C
102
}
330
C
100
AcDbDictionary
281
     1
  0
DICTIONARY
  5
2A
102
{ACAD_REACTORS
330
C
102
}
330
C
100
AcDbDictionary
281
     1
  3
2dWireframe
350
2F
  3
3D Hidden
350
31
  3
3dWireframe
350
30
  3
Basic
350
32
  3
Brighten
350
36
  3
ColorChange
350
3A
  3
Conceptual
350
34
  3
Dim
350
35
  3
Facepattern
350
39
  3
Flat
350
2B
  3
FlatWithEdges
350
2C
  3
Gouraud
350
2D
  3
GouraudWithEdges
350
2E
  3
Linepattern
350
38
  3
Realistic
350
33
  3
Thicken
350
37
  0
LAYOUT
  5
1E
102
{ACAD_REACTORS
330
1A
102
}
330
1A
100
AcDbPlotSettings
  1

  2
none_device
  4

  6

 40
0.0
 41
0.0
 42
0.0
 43
0.0
 44
0.0
 45
0.0
 46
0.0
 47
0.0
 48
0.0
 49
0.0
140
0.0
141
0.0
142
1.0
143
1.0
 70
   688
 72
     0
 73
     0
 74
     5
  7

 75
    16
147
1.0
148
0.0
149
0.0
100
AcDbLayout
  1
Layout1
 70
     1
 71
     1
 10
0.0
 20
0.0
 11
12.0
 21
9.0
 12
0.0
 22
0.0
 32
0.0
 14
1.000000000000000E+20
 24
1.000000000000000E+20
 34
1.000000000000000E+20
 15
-1.000000000000000E+20
 25
-1.000000000000000E+20
 35
-1.000000000000000E+20
146
0.0
 13
0.0
 23
0.0
 33
0.0
 16
1.0
 26
0.0
 36
0.0
 17
0.0
 27
1.0
 37
0.0
 76
     0
330
1B
  0
LAYOUT
  5
26
102
{ACAD_REACTORS
330
1A
102
}
330
1A
100
AcDbPlotSettings
  1

  2
none_device
  4

  6

 40
0.0
 41
0.0
 42
0.0
 43
0.0
 44
0.0
 45
0.0
 46
0.0
 47
0.0
 48
0.0
 49
0.0
140
0.0
141
0.0
142
1.0
143
1.0
 70
   688
 72
     0
 73
     0
 74
     5
  7

 75
    16
147
1.0
148
0.0
149
0.0
100
AcDbLayout
  1
Layout2
 70
     1
 71
     2
 10
0.0
 20
0.0
 11
0.0
 21
0.0
 12
0.0
 22
0.0
 32
0.0
 14
0.0
 24
0.0
 34
0.0
 15
0.0
 25
0.0
 35
0.0
146
0.0
 13
0.0
 23
0.0
 33
0.0
 16
1.0
 26
0.0
 36
0.0
 17
0.0
 27
1.0
 37
0.0
 76
     0
330
23
  0
LAYOUT
  5
22
102
{ACAD_REACTORS
330
1A
102
}
330
1A
100
AcDbPlotSettings
  1

  2
none_device
  4

  6

 40
0.0
 41
0.0
 42
0.0
 43
0.0
 44
0.0
 45
0.0
 46
0.0
 47
0.0
 48
0.0
 49
0.0
140
0.0
141
0.0
142
1.0
143
1.0
 70
  1712
 72
     0
 73
     0
 74
     0
  7

 75
     0
147
1.0
148
0.0
149
0.0
100
AcDbLayout
  1
Model
 70
     1
 71
     0
 10
0.0
 20
0.0
 11
12.0
 21
9.0
 12
0.0
 22
0.0
 32
0.0
 14
1.000000000000000E+20
 24
1.000000000000000E+20
 34
1.000000000000000E+20
 15
-1.000000000000000E+20
 25
-1.000000000000000E+20
 35
-1.000000000000000E+20
146
0.0
 13
0.0
 23
0.0
 33
0.0
 16
1.0
 26
0.0
 36
0.0
 17
0.0
 27
1.0
 37
0.0
 76
     0
330
1F
331
29
  0
MLINESTYLE
  5
18
102
{ACAD_REACTORS
330
17
102
}
330
17
100
AcDbMlineStyle
  2
Standard
 70
     0
  3

 62
   256
 51
90.0
 52
90.0
 71
     2
 49
0.5
 62
   256
  6
BYLAYER
 49
-0.5
 62
   256
  6
BYLAYER
  0
ACDBPLACEHOLDER
  5
F
102
{ACAD_REACTORS
330
E
102
}
330
E
  0
VISUALSTYLE
  5
2F
102
{ACAD_REACTORS
330
2A
102
}
330
2A
100
AcDbVisualStyle
  2
2dWireframe
 70
     4
 71
     0
 72
     2
 73
     0
 90
        0
 40
-0.6
 41
-30.0
 62
     5
 63
     7
 74
     1
 91
        4
 64
     7
 65
   257
 75
     1
175
     1
 42
1.0
 92
        0
 66
   257
 43
1.0
 76
     1
 77
     6
 78
     2
 67
     7
 79
     5
170
     0
171
     0
290
     0
174
     0
 93
        1
 44
0.0
173
     0
291
     0
 45
0.0
1001
ACAD
1000
AcDbSavedByObjectVersion
1070
     0
  0
VISUALSTYLE
  5
31
102
{ACAD_REACTORS
330
2A
102
}
330
2A
100
AcDbVisualStyle
  2
3D Hidden
 70
     6
 71
     1
 72
     2
 73
     2
 90
        0
 40
-0.6
 41
-30.0
 62
     5
 63
     7
 74
     2
 91
        2
 64
     7
 65
   257
 75
     2
175
     1
 42
40.0
 92
        0
 66
   257
 43
1.0
 76
     1
 77
     6
 78
     2
 67
     7
 79
     3
170
     0
171
     0
290
     0
174
     0
 93
        1
 44
0.0
173
     0
291
     0
 45
0.0
1001
ACAD
1000
AcDbSavedByObjectVersion
1070
     0
  0
VISUALSTYLE
  5
30
102
{ACAD_REACTORS
330
2A
102
}
330
2A
100
AcDbVisualStyle
  2
3dWireframe
 70
     5
 71
     0
 72
     2
 73
     0
 90
        0
 40
-0.6
 41
-30.0
 62
     5
 63
     7
 74
     1
 91
        4
 64
     7
 65
   257
 75
     1
175
     1
 42
1.0
 92
        0
 66
   257
 43
1.0
 76
     1
 77
     6
 78
     2
 67
     7
 79
     5
170
     0
171
     0
290
     0
174
     0
 93
        1
 44
0.0
173
     0
291
     0
 45
0.0
1001
ACAD
1000
AcDbSavedByObjectVersion
1070
     0
  0
VISUALSTYLE
  5
32
102
{ACAD_REACTORS
330
2A
102
}
330
2A
100
AcDbVisualStyle
  2
Basic
 70
     7
 71
     1
 72
     0
 73
     1
 90
        0
 40
-0.6
 41
-30.0
 62
     5
 63
     7
 74
     0
 91
        4
 64
     7
 65
   257
 75
     1
175
     1
 42
1.0
 92
        8
 66
     7
 43
1.0
 76
     1
 77
     6
 78
     2
 67
     7
 79
     5
170
     0
171
     0
290
     0
174
     0
 93
        1
 44
0.0
173
     0
291
     1
 45
0.0
1001
ACAD
1000
AcDbSavedByObjectVersion
1070
     0
  0
VISUALSTYLE
  5
36
102
{ACAD_REACTORS
330
2A
102
}
330
2A
100
AcDbVisualStyle
  2
Brighten
 70
    12
 71
     2
 72
     2
 73
     0
 90
        0
 40
-0.6
 41
-30.0
 62
     5
 63
     7
 74
     1
 91
        4
 64
     7
 65
   257
 75
     1
175
     1
 42
1.0
 92
        8
 66
     7
 43
1.0
 76
     1
 77
     6
 78
     2
 67
     7
 79
     5
170
     0
171
     0
290
     0
174
     0
 93
        1
 44
50.0
173
     0
291
     1
 45
0.0
1001
ACAD
1000
AcDbSavedByObjectVersion
1070
     0
  0
VISUALSTYLE
  5
3A
102
{ACAD_REACTORS
330
2A
102
}
330
2A
100
AcDbVisualStyle
  2
ColorChange
 70
    16
 71
     2
 72
     2
 73
     3
 90
        0
 40
-0.6
 41
-30.0
 62
     5
 63
     8
 74
     1
 91
        4
 64
     7
 65
   257
 75
     1
175
     1
 42
1.0
 92
        8
 66
     8
 43
1.0
 76
     1
 77
     6
 78
     2
 67
     7
 79
     5
170
     0
171
     0
290
     0
174
     0
 93
        1
 44
0.0
173
     0
291
     1
 45
0.0
1001
ACAD
1000
AcDbSavedByObjectVersion
1070
     0
  0
VISUALSTYLE
  5
34
102
{ACAD_REACTORS
330
2A
102
}
330
2A
100
AcDbVisualStyle
  2
Conceptual
 70
     9
 71
     3
 72
     2
 73
     0
 90
        0
 40
-0.6
 41
-30.0
 62
     5
 63
     7
 74
     2
 91
        2
 64
     7
 65
   257
 75
     1
175
     1
 42
40.0
 92
        8
 66
     7
 43
1.0
 76
     1
 77
     6
 78
     2
 67
     7
 79
     3
170
     0
171
     0
290
     0
174
     0
 93
        1
 44
0.0
173
     0
291
     0
 45
0.0
1001
ACAD
1000
AcDbSavedByObjectVersion
1070
     0
  0
VISUALSTYLE
  5
35
102
{ACAD_REACTORS
330
2A
102
}
330
2A
100
AcDbVisualStyle
  2
Dim
 70
    11
 71
     2
 72
     2
 73
     0
 90
        0
 40
-0.6
 41
-30.0
 62
     5
 63
     7
 74
     1
 91
        4
 64
     7
 65
   257
 75
     1
175
     1
 42
1.0
 92
        8
 66
     7
 43
1.0
 76
     1
 77
     6
 78
     2
 67
     7
 79
     5
170
     0
171
     0
290
     0
174
     0
 93
        1
 44
-50.0
173
     0
291
     1
 45
0.0
1001
ACAD
1000
AcDbSavedByObjectVersion
1070
     0
  0
VISUALSTYLE
  5
39
102
{ACAD_REACTORS
330
2A
102
}
330
2A
100
AcDbVisualStyle
  2
Facepattern
 70
    15
 71
     2
 72
     2
 73
     0
 90
        0
 40
-0.6
 41
-30.0
 62
     5
 63
     7
 74
     1
 91
        4
 64
     7
 65
   257
 75
     1
175
     1
 42
1.0
 92
        8
 66
     7
 43
1.0
 76
     1
 77
     6
 78
     2
 67
     7
 79
     5
170
     0
171
     0
290
     0
174
     0
 93
        1
 44
0.0
173
     0
291
     1
 45
0.0
1001
ACAD
1000
AcDbSavedByObjectVersion
1070
     0
  0
VISUALSTYLE
  5
2B
102
{ACAD_REACTORS
330
2A
102
}
330
2A
100
AcDbVisualStyle
  2
Flat
 70
     0
 71
     2
 72
     1
 73
     1
 90
        2
 40
-0.6
 41
30.0
 62
     5
 63
     7
 74
     0
 91
        4
 64
     7
 65
   257
 75
     1
175
     1
 42
1.0
 92
        8
 66
     7
 43
1.0
 76
     1
 77
     6
 78
     2
 67
     7
 79
     5
170
     0
171
     0
290
     0
174
     0
 93
       13
 44
0.0
173
     0
291
     1
 45
0.0
1001
ACAD
1000
AcDbSavedByObjectVersion
1070
     0
  0
VISUALSTYLE
  5
2C
102
{ACAD_REACTORS
330
2A
102
}
330
2A
100
AcDbVisualStyle
  2
FlatWithEdges
 70
     1
 71
     2
 72
     1
 73
     1
 90
        2
 40
-0.6
 41
30.0
 62
     5
 63
     7
 74
     1
 91
        4
 64
     7
 65
   257
 75
     1
175
     1
 42
1.0
 92
        0
 66
   257
 43
1.0
 76
     1
 77
     6
 78
     2
 67
     7
 79
     5
170
     0
171
     0
290
     0
174
     0
 93
       13
 44
0.0
173
     0
291
     1
 45
0.0
1001
ACAD
1000
AcDbSavedByObjectVersion
1070
     0
  0
VISUALSTYLE
  5
2D
102
{ACAD_REACTORS
330
2A
102
}
330
2A
100
AcDbVisualStyle
  2
Gouraud
 70
     2
 71
     2
 72
     2
 73
     1
 90
        2
 40
-0.6
 41
30.0
 62
     5
 63
     7
 74
     0
 91
        4
 64
     7
 65
   257
 75
     1
175
     1
 42
1.0
 92
        0
 66
     7
 43
1.0
 76
     1
 77
     6
 78
     2
 67
     7
 79
     5
170
     0
171
     0
290
     0
174
     0
 93
       13
 44
0.0
173
     0
291
     1
 45
0.0
1001
ACAD
1000
AcDbSavedByObjectVersion
1070
     0
  0
VISUALSTYLE
  5
2E
102
{ACAD_REACTORS
330
2A
102
}
330
2A
100
AcDbVisualStyle
  2
GouraudWithEdges
 70
     3
 71
     2
 72
     2
 73
     1
 90
        2
 40
-0.6
 41
30.0
 62
     5
 63
     7
 74
     1
 91
        4
 64
     7
 65
   257
 75
     1
175
     1
 42
1.0
 92
        0
 66
   257
 43
1.0
 76
     1
 77
     6
 78
     2
 67
     7
 79
     5
170
     0
171
     0
290
     0
174
     0
 93
       13
 44
0.0
173
     0
291
     1
 45
0.0
1001
ACAD
1000
AcDbSavedByObjectVersion
1070
     0
  0
VISUALSTYLE
  5
38
102
{ACAD_REACTORS
330
2A
102
}
330
2A
100
AcDbVisualStyle
  2
Linepattern
 70
    14
 71
     2
 72
     2
 73
     0
 90
        0
 40
-0.6
 41
-30.0
 62
     5
 63
     7
 74
     1
 91
        4
 64
     7
 65
   257
 75
     7
175
     7
 42
1.0
 92
        8
 66
     7
 43
1.0
 76
     1
 77
     6
 78
     2
 67
     7
 79
     5
170
     0
171
     0
290
     0
174
     0
 93
        1
 44
0.0
173
     0
291
     1
 45
0.0
1001
ACAD
1000
AcDbSavedByObjectVersion
1070
     0
  0
VISUALSTYLE
  5
33
102
{ACAD_REACTORS
330
2A
102
}
330
2A
100
AcDbVisualStyle
  2
Realistic
 70
     8
 71
     2
 72
     2
 73
     0
 90
        0
 40
-0.6
 41
-30.0
 62
     5
 63
     7
 74
     1
 91
        0
 64
     7
 65
   257
 75
     1
175
     1
 42
1.0
 92
        8
 66
     8
 43
1.0
 76
     1
 77
     6
 78
     2
 67
     7
 79
     5
170
     0
171
     0
290
     0
174
     0
 93
       13
 44
0.0
173
     0
291
     0
 45
0.0
1001
ACAD
1000
AcDbSavedByObjectVersion
1070
     0
  0
VISUALSTYLE
  5
37
102
{ACAD_REACTORS
330
2A
102
}
330
2A
100
AcDbVisualStyle
  2
Thicken
 70
    13
 71
     2
 72
     2
 73
     0
 90
        0
 40
-0.6
 41
-30.0
 62
     5
 63
     7
 74
     1
 91
        4
 64
     7
 65
   257
 75
     1
175
     1
 42
1.0
 92
       12
 66
     7
 43
1.0
 76
     1
 77
     6
 78
     2
 67
     7
 79
     5
170
     0
171
     0
290
     0
174
     0
 93
        1
 44
0.0
173
     0
291
     1
 45
0.0
1001
ACAD
1000
AcDbSavedByObjectVersion
1070
     0
  0
ENDSEC
  0
EOF
