  0
SECTION
  2
HEADER
  9
$ACADVER
  1
AC1015
  9
$ACADMAINTVER
 70
     6
  9
$DWGCODEPAGE
  3
ANSI_1252
  9
$INSBASE
 10
0.0
 20
0.0
 30
0.0
  9
$EXTMIN
 10
1.000000000000000E+20
 20
1.000000000000000E+20
 30
1.000000000000000E+20
  9
$EXTMAX
 10
-1.000000000000000E+20
 20
-1.000000000000000E+20
 30
-1.000000000000000E+20
  9
$LIMMIN
 10
0.0
 20
0.0
  9
$LIMMAX
 10
12.0
 20
9.0
  9
$ORTHOMODE
 70
     0
  9
$REGENMODE
 70
     1
  9
$FILLMODE
 70
     1
  9
$QTEXTMODE
 70
     0
  9
$MIRRTEXT
 70
     1
  9
$LTSCALE
 40
1.0
  9
$ATTMODE
 70
     1
  9
$TEXTSIZE
 40
0.2
  9
$TRACEWID
 40
0.05
  9
$TEXTSTYLE
  7
Standard
  9
$CLAYER
  8
0
  9
$CELTYPE
  6
ByLayer
  9
$CECOLOR
 62
   256
  9
$CELTSCALE
 40
1.0
  9
$DISPSILH
 70
     0
  9
$DIMSCALE
 40
1.0
  9
$DIMASZ
 40
0.18
  9
$DIMEXO
 40
0.0625
  9
$DIMDLI
 40
0.38
  9
$DIMRND
 40
0.0
  9
$DIMDLE
 40
0.0
  9
$DIMEXE
 40
0.18
  9
$DIMTP
 40
0.0
  9
$DIMTM
 40
0.0
  9
$DIMTXT
 40
0.18
  9
$DIMCEN
 40
0.09
  9
$DIMTSZ
 40
0.0
  9
$DIMTOL
 70
     0
  9
$DIMLIM
 70
     0
  9
$DIMTIH
 70
     1
  9
$DIMTOH
 70
     1
  9
$DIMSE1
 70
     0
  9
$DIMSE2
 70
     0
  9
$DIMTAD
 70
     0
  9
$DIMZIN
 70
     0
  9
$DIMBLK
  1

  9
$DIMASO
 70
     1
  9
$DIMSHO
 70
     1
  9
$DIMPOST
  1

  9
$DIMAPOST
  1

  9
$DIMALT
 70
     0
  9
$DIMALTD
 70
     2
  9
$DIMALTF
 40
25.4
  9
$DIMLFAC
 40
1.0
  9
$DIMTOFL
 70
     0
  9
$DIMTVP
 40
0.0
  9
$DIMTIX
 70
     0
  9
$DIMSOXD
 70
     0
  9
$DIMSAH
 70
     0
  9
$DIMBLK1
  1

  9
$DIMBLK2
  1

  9
$DIMSTYLE
  2
Standard
  9
$DIMCLRD
 70
     0
  9
$DIMCLRE
 70
     0
  9
$DIMCLRT
 70
     0
  9
$DIMTFAC
 40
1.0
  9
$DIMGAP
 40
0.09
  9
$DIMJUST
 70
     0
  9
$DIMSD1
 70
     0
  9
$DIMSD2
 70
     0
  9
$DIMTOLJ
 70
     1
  9
$DIMTZIN
 70
     0
  9
$DIMALTZ
 70
     0
  9
$DIMALTTZ
 70
     0
  9
$DIMUPT
 70
     0
  9
$DIMDEC
 70
     4
  9
$DIMTDEC
 70
     4
  9
$DIMALTU
 70
     2
  9
$DIMALTTD
 70
     2
  9
$DIMTXSTY
  7
Standard
  9
$DIMAUNIT
 70
     0
  9
$DIMADEC
 70
     0
  9
$DIMALTRND
 40
0.0
  9
$DIMAZIN
 70
     0
  9
$DIMDSEP
 70
    46
  9
$DIMATFIT
 70
     3
  9
$DIMFRAC
 70
     0
  9
$DIMLDRBLK
  1

  9
$DIMLUNIT
 70
     2
  9
$DIMLWD
 70
    -2
  9
$DIMLWE
 70
    -2
  9
$DIMTMOVE
 70
     0
  9
$LUNITS
 70
     2
  9
$LUPREC
 70
     4
  9
$SKETCHINC
 40
0.1
  9
$FILLETRAD
 40
0.5
  9
$AUNITS
 70
     0
  9
$AUPREC
 70
     0
  9
$MENU
  1
.
  9
$ELEVATION
 40
0.0
  9
$PELEVATION
 40
0.0
  9
$THICKNESS
 40
0.0
  9
$LIMCHECK
 70
     0
  9
$CHAMFERA
 40
0.5
  9
$CHAMFERB
 40
0.5
  9
$CHAMFERC
 40
1.0
  9
$CHAMFERD
 40
0.0
  9
$SKPOLY
 70
     0
  9
$TDCREATE
 40
2458829.712244977
  9
$TDUCREATE
 40
2458829.67057831
  9
$TDUPDATE
 40
2458829.712244988
  9
$TDUUPDATE
 40
2458829.670578322
  9
$TDINDWG
 40
0.0000000116
  9
$TDUSRTIMER
 40
0.0000000116
  9
$USRTIMER
 70
     1
  9
$ANGBASE
 50
0.0
  9
$ANGDIR
 70
     0
  9
$PDMODE
 70
     0
  9
$PDSIZE
 40
0.0
  9
$PLINEWID
 40
0.0
  9
$SPLFRAME
 70
     0
  9
$SPLINETYPE
 70
     6
  9
$SPLINESEGS
 70
     8
  9
$HANDSEED
  5
44
  9
$SURFTAB1
 70
     6
  9
$SURFTAB2
 70
     6
  9
$SURFTYPE
 70
     6
  9
$SURFU
 70
     6
  9
$SURFV
 70
     6
  9
$UCSBASE
  2

  9
$UCSNAME
  2

  9
$UCSORG
 10
0.0
 20
0.0
 30
0.0
  9
$UCSXDIR
 10
1.0
 20
0.0
 30
0.0
  9
$UCSYDIR
 10
0.0
 20
1.0
 30
0.0
  9
$UCSORTHOREF
  2

  9
$UCSORTHOVIEW
 70
     0
  9
$UCSORGTOP
 10
0.0
 20
0.0
 30
0.0
  9
$UCSORGBOTTOM
 10
0.0
 20
0.0
 30
0.0
  9
$UCSORGLEFT
 10
0.0
 20
0.0
 30
0.0
  9
$UCSORGRIGHT
 10
0.0
 20
0.0
 30
0.0
  9
$UCSORGFRONT
 10
0.0
 20
0.0
 30
0.0
  9
$UCSORGBACK
 10
0.0
 20
0.0
 30
0.0
  9
$PUCSBASE
  2

  9
$PUCSNAME
  2

  9
$PUCSORG
 10
0.0
 20
0.0
 30
0.0
  9
$PUCSXDIR
 10
1.0
 20
0.0
 30
0.0
  9
$PUCSYDIR
 10
0.0
 20
1.0
 30
0.0
  9
$PUCSORTHOREF
  2

  9
$PUCSORTHOVIEW
 70
     0
  9
$PUCSORGTOP
 10
0.0
 20
0.0
 30
0.0
  9
$PUCSORGBOTTOM
 10
0.0
 20
0.0
 30
0.0
  9
$PUCSORGLEFT
 10
0.0
 20
0.0
 30
0.0
  9
$PUCSORGRIGHT
 10
0.0
 20
0.0
 30
0.0
  9
$PUCSORGFRONT
 10
0.0
 20
0.0
 30
0.0
  9
$PUCSORGBACK
 10
0.0
 20
0.0
 30
0.0
  9
$USERI1
 70
     0
  9
$USERI2
 70
     0
  9
$USERI3
 70
     0
  9
$USERI4
 70
     0
  9
$USERI5
 70
     0
  9
$USERR1
 40
0.0
  9
$USERR2
 40
0.0
  9
$USERR3
 40
0.0
  9
$USERR4
 40
0.0
  9
$USERR5
 40
0.0
  9
$WORLDVIEW
 70
     1
  9
$SHADEDGE
 70
     3
  9
$SHADEDIF
 70
    70
  9
$TILEMODE
 70
     1
  9
$MAXACTVP
 70
    64
  9
$PINSBASE
 10
0.0
 20
0.0
 30
0.0
  9
$PLIMCHECK
 70
     0
  9
$PEXTMIN
 10
1.000000000000000E+20
 20
1.000000000000000E+20
 30
1.000000000000000E+20
  9
$PEXTMAX
 10
-1.000000000000000E+20
 20
-1.000000000000000E+20
 30
-1.000000000000000E+20
  9
$PLIMMIN
 10
0.0
 20
0.0
  9
$PLIMMAX
 10
12.0
 20
9.0
  9
$UNITMODE
 70
     0
  9
$VISRETAIN
 70
     1
  9
$PLINEGEN
 70
     0
  9
$PSLTSCALE
 70
     1
  9
$TREEDEPTH
 70
  3020
  9
$CMLSTYLE
  2
Standard
  9
$CMLJUST
 70
     0
  9
$CMLSCALE
 40
1.0
  9
$PROXYGRAPHICS
 70
     1
  9
$MEASUREMENT
 70
     0
  9
$CELWEIGHT
370
    -1
  9
$ENDCAPS
280
     0
  9
$JOINSTYLE
280
     0
  9
$LWDISPLAY
290
     1
  9
$INSUNITS
 70
     1
  9
$HYPERLINKBASE
  1

  9
$STYLESHEET
  1

  9
$XEDIT
290
     1
  9
$CEPSNTYPE
380
     0
  9
$PSTYLEMODE
290
     1
  9
$FINGERPRINTGUID
  2
{AB9D99E5-F72E-4B1D-9D5B-0CA98DF5E30E}
  9
$VERSIONGUID
  2
{FAEB1C32-E019-11D5-929B-00C0DF256EC4}
  9
$EXTNAMES
290
     1
  9
$PSVPSCALE
 40
0.0
  9
$OLESTARTUP
290
     0
  0
ENDSEC
  0
SECTION
  2
CLASSES
  0
CLASS
  1
ACDBDICTIONARYWDFLT
  2
AcDbDictionaryWithDefault
  3
ObjectDBX Classes
 90
        0
280
     0
281
     0
  0
CLASS
  1
VISUALSTYLE
  2
AcDbVisualStyle
  3
ObjectDBX Classes
 90
     4095
280
     0
281
     0
  0
CLASS
  1
ACDBPLACEHOLDER
  2
AcDbPlaceHolder
  3
ObjectDBX Classes
 90
        0
280
     0
281
     0
  0
CLASS
  1
LAYOUT
  2
AcDbLayout
  3
ObjectDBX Classes
 90
        0
280
     0
281
     0
  0
ENDSEC
  0
SECTION
  2
TABLES
  0
TABLE
  2
VPORT
  5
8
330
0
100
AcDbSymbolTable
 70
     1
  0
VPORT
  5
29
330
8
100
AcDbSymbolTableRecord
100
AcDbViewportTableRecord
  2
*Active
 70
     0
 10
0.0
 20
0.0
 11
1.0
 21
1.0
 12
0.0
 22
0.0
 13
0.0
 23
0.0
 14
0.5
 24
0.5
 15
0.5
 25
0.5
 16
0.0
 26
0.0
 36
1.0
 17
221.5444443890584
 27
-191.5583332854438
 37
0.0
 40
383.1166665708875
 41
1.156537753222836
 42
50.0
 43
0.0
 44
0.0
 50
0.0
 51
0.0
 71
     0
 72
   100
 73
     1
 74
     3
 75
     0
 76
     0
 77
     0
 78
     0
281
     0
 65
     1
110
0.0
120
0.0
130
0.0
111
1.0
121
0.0
131
0.0
112
0.0
122
1.0
132
0.0
 79
     0
146
0.0
  0
ENDTAB
  0
TABLE
  2
LTYPE
  5
5
330
0
100
AcDbSymbolTable
 70
     1
  0
LTYPE
  5
14
330
5
100
AcDbSymbolTableRecord
100
AcDbLinetypeTableRecord
  2
ByBlock
 70
     0
  3

 72
    65
 73
     0
 40
0.0
  0
LTYPE
  5
15
330
5
100
AcDbSymbolTableRecord
100
AcDbLinetypeTableRecord
  2
ByLayer
 70
     0
  3

 72
    65
 73
     0
 40
0.0
  0
LTYPE
  5
16
330
5
100
AcDbSymbolTableRecord
100
AcDbLinetypeTableRecord
  2
Continuous
 70
     0
  3
Solid line
 72
    65
 73
     0
 40
0.0
  0
ENDTAB
  0
TABLE
  2
LAYER
  5
2
330
0
100
AcDbSymbolTable
 70
     8
  0
LAYER
  5
10
330
2
100
AcDbSymbolTableRecord
100
AcDbLayerTableRecord
  2
0
 70
     0
 62
     7
  6
Continuous
370
    -3
390
F
  0
LAYER
  5
3B
330
2
100
AcDbSymbolTableRecord
100
AcDbLayerTableRecord
  2
Plexiglass_01_3mmThick
 70
     1
 62
     7
  6
Continuous
370
    -3
390
F
  0
LAYER
  5
3C
330
2
100
AcDbSymbolTableRecord
100
AcDbLayerTableRecord
  2
InnerCase_DraftForCAO
 70
     1
 62
     7
  6
Continuous
370
    -3
390
F
  0
LAYER
  5
3D
330
2
100
AcDbSymbolTableRecord
100
AcDbLayerTableRecord
  2
Wood_01_SensorSupport_3mmThick
 70
     0
 62
     7
  6
Continuous
370
    -3
390
F
  0
LAYER
  5
3F
330
2
100
AcDbSymbolTableRecord
100
AcDbLayerTableRecord
  2
Plexyglass_02_12mmThick
 70
     1
 62
     7
  6
Continuous
370
    -3
390
F
  0
LAYER
  5
40
330
2
100
AcDbSymbolTableRecord
100
AcDbLayerTableRecord
  2
Wood_02_VelostatGNDPattern
 70
     1
 62
     7
  6
Continuous
370
    -3
390
F
  0
LAYER
  5
41
330
2
100
AcDbSymbolTableRecord
100
AcDbLayerTableRecord
  2
Guid_3mmThick
 70
     1
 62
     7
  6
Continuous
370
    -3
390
F
  0
LAYER
  5
42
330
2
100
AcDbSymbolTableRecord
100
AcDbLayerTableRecord
  2
Holes
 70
     1
 62
     7
  6
Continuous
370
    -3
390
F
  0
ENDTAB
  0
TABLE
  2
STYLE
  5
3
330
0
100
AcDbSymbolTable
 70
     1
  0
STYLE
  5
11
330
3
100
AcDbSymbolTableRecord
100
AcDbTextStyleTableRecord
  2
Standard
 70
     0
 40
0.0
 41
1.0
 50
0.0
 71
     0
 42
0.2
  3
txt
  4

  0
ENDTAB
  0
TABLE
  2
VIEW
  5
6
330
0
100
AcDbSymbolTable
 70
     0
  0
ENDTAB
  0
TABLE
  2
UCS
  5
7
330
0
100
AcDbSymbolTable
 70
     0
  0
ENDTAB
  0
TABLE
  2
APPID
  5
9
330
0
100
AcDbSymbolTable
 70
     1
  0
APPID
  5
12
330
9
100
AcDbSymbolTableRecord
100
AcDbRegAppTableRecord
  2
ACAD
 70
     0
  0
ENDTAB
  0
TABLE
  2
DIMSTYLE
  5
A
330
0
100
AcDbSymbolTable
 70
     1
100
AcDbDimStyleTable
  0
DIMSTYLE
105
27
330
A
100
AcDbSymbolTableRecord
100
AcDbDimStyleTableRecord
  2
Standard
 70
     0
340
11
  0
ENDTAB
  0
TABLE
  2
BLOCK_RECORD
  5
1
330
0
100
AcDbSymbolTable
 70
     1
  0
BLOCK_RECORD
  5
1F
330
1
100
AcDbSymbolTableRecord
100
AcDbBlockTableRecord
  2
*Model_Space
340
22
  0
BLOCK_RECORD
  5
1B
330
1
100
AcDbSymbolTableRecord
100
AcDbBlockTableRecord
  2
*Paper_Space
340
1E
  0
BLOCK_RECORD
  5
23
330
1
100
AcDbSymbolTableRecord
100
AcDbBlockTableRecord
  2
*Paper_Space0
340
26
  0
ENDTAB
  0
ENDSEC
  0
SECTION
  2
BLOCKS
  0
BLOCK
  5
20
330
1F
100
AcDbEntity
  8
0
100
AcDbBlockBegin
  2
*Model_Space
 70
     0
 71
     0
 10
0.0
 20
0.0
 30
0.0
  3
*Model_Space
  1

  0
ENDBLK
  5
21
330
1F
100
AcDbEntity
  8
0
100
AcDbBlockEnd
  0
BLOCK
  5
1C
330
1B
100
AcDbEntity
 67
     1
  8
0
100
AcDbBlockBegin
  2
*Paper_Space
 70
     0
 71
     0
 10
0.0
 20
0.0
 30
0.0
  3
*Paper_Space
  1

  0
ENDBLK
  5
1D
330
1B
100
AcDbEntity
 67
     1
  8
0
100
AcDbBlockEnd
  0
BLOCK
  5
24
330
23
100
AcDbEntity
  8
0
100
AcDbBlockBegin
  2
*Paper_Space0
 70
     0
 71
     0
 10
0.0
 20
0.0
 30
0.0
  3
*Paper_Space0
  1

  0
ENDBLK
  5
25
330
23
100
AcDbEntity
  8
0
100
AcDbBlockEnd
  0
ENDSEC
  0
SECTION
  2
ENTITIES
  0
SPLINE
  5
3E
330
1F
100
AcDbEntity
  8
Wood_01_SensorSupport_3mmThick
 62
     1
370
    35
100
AcDbSpline
210
0.0
220
0.0
230
1.0
 70
    11
 71
     3
 72
   593
 73
   589
 74
     0
 42
0.0000000001
 43
0.0000000001
 40
0.0
 40
0.0
 40
0.0
 40
0.0
 40
1.0
 40
1.0
 40
1.0
 40
2.0
 40
2.0
 40
2.0
 40
3.0
 40
3.0
 40
3.0
 40
4.0
 40
4.0
 40
4.0
 40
5.0
 40
5.0
 40
5.0
 40
6.0
 40
6.0
 40
6.0
 40
7.0
 40
7.0
 40
7.0
 40
8.0
 40
8.0
 40
8.0
 40
9.0
 40
9.0
 40
9.0
 40
10.0
 40
10.0
 40
10.0
 40
11.0
 40
11.0
 40
11.0
 40
12.0
 40
12.0
 40
12.0
 40
13.0
 40
13.0
 40
13.0
 40
14.0
 40
14.0
 40
14.0
 40
15.0
 40
15.0
 40
15.0
 40
16.0
 40
16.0
 40
16.0
 40
17.0
 40
17.0
 40
17.0
 40
18.0
 40
18.0
 40
18.0
 40
19.0
 40
19.0
 40
19.0
 40
20.0
 40
20.0
 40
20.0
 40
21.0
 40
21.0
 40
21.0
 40
22.0
 40
22.0
 40
22.0
 40
23.0
 40
23.0
 40
23.0
 40
24.0
 40
24.0
 40
24.0
 40
25.0
 40
25.0
 40
25.0
 40
26.0
 40
26.0
 40
26.0
 40
27.0
 40
27.0
 40
27.0
 40
28.0
 40
28.0
 40
28.0
 40
29.0
 40
29.0
 40
29.0
 40
30.0
 40
30.0
 40
30.0
 40
31.0
 40
31.0
 40
31.0
 40
32.0
 40
32.0
 40
32.0
 40
33.0
 40
33.0
 40
33.0
 40
34.0
 40
34.0
 40
34.0
 40
35.0
 40
35.0
 40
35.0
 40
36.0
 40
36.0
 40
36.0
 40
37.0
 40
37.0
 40
37.0
 40
38.0
 40
38.0
 40
38.0
 40
39.0
 40
39.0
 40
39.0
 40
40.0
 40
40.0
 40
40.0
 40
41.0
 40
41.0
 40
41.0
 40
42.0
 40
42.0
 40
42.0
 40
43.0
 40
43.0
 40
43.0
 40
44.0
 40
44.0
 40
44.0
 40
45.0
 40
45.0
 40
45.0
 40
46.0
 40
46.0
 40
46.0
 40
47.0
 40
47.0
 40
47.0
 40
48.0
 40
48.0
 40
48.0
 40
49.0
 40
49.0
 40
49.0
 40
50.0
 40
50.0
 40
50.0
 40
51.0
 40
51.0
 40
51.0
 40
52.0
 40
52.0
 40
52.0
 40
53.0
 40
53.0
 40
53.0
 40
54.0
 40
54.0
 40
54.0
 40
55.0
 40
55.0
 40
55.0
 40
56.0
 40
56.0
 40
56.0
 40
57.0
 40
57.0
 40
57.0
 40
58.0
 40
58.0
 40
58.0
 40
59.0
 40
59.0
 40
59.0
 40
60.0
 40
60.0
 40
60.0
 40
61.0
 40
61.0
 40
61.0
 40
62.0
 40
62.0
 40
62.0
 40
63.0
 40
63.0
 40
63.0
 40
64.0
 40
64.0
 40
64.0
 40
65.0
 40
65.0
 40
65.0
 40
66.0
 40
66.0
 40
66.0
 40
67.0
 40
67.0
 40
67.0
 40
68.0
 40
68.0
 40
68.0
 40
69.0
 40
69.0
 40
69.0
 40
70.0
 40
70.0
 40
70.0
 40
71.0
 40
71.0
 40
71.0
 40
72.0
 40
72.0
 40
72.0
 40
73.0
 40
73.0
 40
73.0
 40
74.0
 40
74.0
 40
74.0
 40
75.0
 40
75.0
 40
75.0
 40
76.0
 40
76.0
 40
76.0
 40
77.0
 40
77.0
 40
77.0
 40
78.0
 40
78.0
 40
78.0
 40
79.0
 40
79.0
 40
79.0
 40
80.0
 40
80.0
 40
80.0
 40
81.0
 40
81.0
 40
81.0
 40
82.0
 40
82.0
 40
82.0
 40
83.0
 40
83.0
 40
83.0
 40
84.0
 40
84.0
 40
84.0
 40
85.0
 40
85.0
 40
85.0
 40
86.0
 40
86.0
 40
86.0
 40
87.0
 40
87.0
 40
87.0
 40
88.0
 40
88.0
 40
88.0
 40
89.0
 40
89.0
 40
89.0
 40
90.0
 40
90.0
 40
90.0
 40
91.0
 40
91.0
 40
91.0
 40
92.0
 40
92.0
 40
92.0
 40
93.0
 40
93.0
 40
93.0
 40
94.0
 40
94.0
 40
94.0
 40
95.0
 40
95.0
 40
95.0
 40
96.0
 40
96.0
 40
96.0
 40
97.0
 40
97.0
 40
97.0
 40
98.0
 40
98.0
 40
98.0
 40
99.0
 40
99.0
 40
99.0
 40
100.0
 40
100.0
 40
100.0
 40
101.0
 40
101.0
 40
101.0
 40
102.0
 40
102.0
 40
102.0
 40
103.0
 40
103.0
 40
103.0
 40
104.0
 40
104.0
 40
104.0
 40
105.0
 40
105.0
 40
105.0
 40
106.0
 40
106.0
 40
106.0
 40
107.0
 40
107.0
 40
107.0
 40
108.0
 40
108.0
 40
108.0
 40
109.0
 40
109.0
 40
109.0
 40
110.0
 40
110.0
 40
110.0
 40
111.0
 40
111.0
 40
111.0
 40
112.0
 40
112.0
 40
112.0
 40
113.0
 40
113.0
 40
113.0
 40
114.0
 40
114.0
 40
114.0
 40
115.0
 40
115.0
 40
115.0
 40
116.0
 40
116.0
 40
116.0
 40
117.0
 40
117.0
 40
117.0
 40
118.0
 40
118.0
 40
118.0
 40
119.0
 40
119.0
 40
119.0
 40
120.0
 40
120.0
 40
120.0
 40
121.0
 40
121.0
 40
121.0
 40
122.0
 40
122.0
 40
122.0
 40
123.0
 40
123.0
 40
123.0
 40
124.0
 40
124.0
 40
124.0
 40
125.0
 40
125.0
 40
125.0
 40
126.0
 40
126.0
 40
126.0
 40
127.0
 40
127.0
 40
127.0
 40
128.0
 40
128.0
 40
128.0
 40
129.0
 40
129.0
 40
129.0
 40
130.0
 40
130.0
 40
130.0
 40
131.0
 40
131.0
 40
131.0
 40
132.0
 40
132.0
 40
132.0
 40
133.0
 40
133.0
 40
133.0
 40
134.0
 40
134.0
 40
134.0
 40
135.0
 40
135.0
 40
135.0
 40
136.0
 40
136.0
 40
136.0
 40
137.0
 40
137.0
 40
137.0
 40
138.0
 40
138.0
 40
138.0
 40
139.0
 40
139.0
 40
139.0
 40
140.0
 40
140.0
 40
140.0
 40
141.0
 40
141.0
 40
141.0
 40
142.0
 40
142.0
 40
142.0
 40
143.0
 40
143.0
 40
143.0
 40
144.0
 40
144.0
 40
144.0
 40
145.0
 40
145.0
 40
145.0
 40
146.0
 40
146.0
 40
146.0
 40
147.0
 40
147.0
 40
147.0
 40
148.0
 40
148.0
 40
148.0
 40
149.0
 40
149.0
 40
149.0
 40
150.0
 40
150.0
 40
150.0
 40
151.0
 40
151.0
 40
151.0
 40
152.0
 40
152.0
 40
152.0
 40
153.0
 40
153.0
 40
153.0
 40
154.0
 40
154.0
 40
154.0
 40
155.0
 40
155.0
 40
155.0
 40
156.0
 40
156.0
 40
156.0
 40
157.0
 40
157.0
 40
157.0
 40
158.0
 40
158.0
 40
158.0
 40
159.0
 40
159.0
 40
159.0
 40
160.0
 40
160.0
 40
160.0
 40
161.0
 40
161.0
 40
161.0
 40
162.0
 40
162.0
 40
162.0
 40
163.0
 40
163.0
 40
163.0
 40
164.0
 40
164.0
 40
164.0
 40
165.0
 40
165.0
 40
165.0
 40
166.0
 40
166.0
 40
166.0
 40
167.0
 40
167.0
 40
167.0
 40
168.0
 40
168.0
 40
168.0
 40
169.0
 40
169.0
 40
169.0
 40
170.0
 40
170.0
 40
170.0
 40
171.0
 40
171.0
 40
171.0
 40
172.0
 40
172.0
 40
172.0
 40
173.0
 40
173.0
 40
173.0
 40
174.0
 40
174.0
 40
174.0
 40
175.0
 40
175.0
 40
175.0
 40
176.0
 40
176.0
 40
176.0
 40
177.0
 40
177.0
 40
177.0
 40
178.0
 40
178.0
 40
178.0
 40
179.0
 40
179.0
 40
179.0
 40
180.0
 40
180.0
 40
180.0
 40
181.0
 40
181.0
 40
181.0
 40
182.0
 40
182.0
 40
182.0
 40
183.0
 40
183.0
 40
183.0
 40
184.0
 40
184.0
 40
184.0
 40
185.0
 40
185.0
 40
185.0
 40
186.0
 40
186.0
 40
186.0
 40
187.0
 40
187.0
 40
187.0
 40
188.0
 40
188.0
 40
188.0
 40
189.0
 40
189.0
 40
189.0
 40
190.0
 40
190.0
 40
190.0
 40
191.0
 40
191.0
 40
191.0
 40
192.0
 40
192.0
 40
192.0
 40
193.0
 40
193.0
 40
193.0
 40
194.0
 40
194.0
 40
194.0
 40
195.0
 40
195.0
 40
195.0
 40
196.0
 40
196.0
 40
196.0
 40
196.0
 10
344.0944145190111
 20
-280.6805419220174
 30
0.0
 10
344.0937254999141
 20
-280.6770968265321
 30
0.0
 10
344.093036480817
 20
-280.6739962405954
 30
0.0
 10
344.0926919712685
 20
-280.6705511451102
 30
0.0
 10
344.0709878697114
 20
-280.5382594784766
 30
0.0
 10
344.0458386726691
 20
-280.405967811843
 30
0.0
 10
344.0165553610445
 20
-280.2747096738549
 30
0.0
 10
344.0137992846563
 20
-280.261618311011
 30
0.0
 10
344.0106986987196
 20
-280.2488714577156
 30
0.0
 10
344.0075981127828
 20
-280.2357800948716
 30
0.0
 10
343.9920951830992
 20
-280.1668781851666
 30
0.0
 10
343.9786593107067
 20
-280.0979762754616
 30
0.0
 10
343.9607448141834
 20
-280.0297633848537
 30
0.0
 10
343.9607448141834
 20
-280.0297633848537
 30
0.0
 10
343.9555771709556
 20
-280.0314859325963
 30
0.0
 10
343.9555771709556
 20
-280.0314859325963
 30
0.0
 10
343.6369058385699
 20
-278.7998642966195
 30
0.0
 10
342.9782035817902
 20
-277.6454127995123
 30
0.0
 10
341.9908392157176
 20
-276.7135144707522
 30
0.0
 10
341.9860160820382
 20
-276.7093803561699
 30
0.0
 10
341.9815374579074
 20
-276.704901732039
 30
0.0
 10
341.9767143242281
 20
-276.7004231079083
 30
0.0
 10
341.9243488728522
 20
-276.6511582424692
 30
0.0
 10
341.8750840074132
 20
-276.5994818101904
 30
0.0
 10
341.8206514987463
 20
-276.5515949829455
 30
0.0
 10
341.8206514987463
 20
-276.5515949829455
 30
0.0
 10
341.8161728746154
 20
-276.5567626261733
 30
0.0
 10
341.8161728746154
 20
-276.5567626261733
 30
0.0
 10
340.5852402577357
 20
-275.4674234337373
 30
0.0
 10
338.970524003799
 20
-274.8025200050841
 30
0.0
 10
337.197333357541
 20
-274.8025200050841
 30
0.0
 10
335.7617620688374
 20
-274.8025200050841
 30
0.0
 10
334.4281656064971
 20
-275.2366020362256
 30
0.0
 10
333.3181558411496
 20
-275.9790201132969
 30
0.0
 10
333.3181558411496
 20
-275.9790201132969
 30
0.0
 10
334.157036591808
 20
-276.9898111286692
 30
0.0
 10
334.157036591808
 20
-276.9898111286692
 30
0.0
 10
334.157036591808
 20
-276.9898111286692
 30
0.0
 10
332.9264484844767
 20
-278.0291964365691
 30
0.0
 10
332.9264484844767
 20
-278.0291964365691
 30
0.0
 10
332.9264484844767
 20
-278.0291964365691
 30
0.0
 10
332.9264484844767
 20
-278.0291964365691
 30
0.0
 10
332.9264484844767
 20
-278.0291964365691
 30
0.0
 10
332.9264484844767
 20
-278.0291964365691
 30
0.0
 10
328.8557236591055
 20
-281.468435259494
 30
0.0
 10
328.8557236591055
 20
-281.468435259494
 30
0.0
 10
328.8557236591055
 20
-281.468435259494
 30
0.0
 10
328.2056341410389
 20
-280.3422335453658
 30
0.0
 10
328.2056341410389
 20
-280.3422335453658
 30
0.0
 10
327.6396049528124
 20
-280.6974228898951
 30
0.0
 10
327.0539387203199
 20
-281.0185057891204
 30
0.0
 10
326.4517360294982
 20
-281.3044487143961
 30
0.0
 10
326.4517360294982
 20
-281.3044487143961
 30
0.0
 10
327.1032035857589
 20
-282.433061995364
 30
0.0
 10
327.1032035857589
 20
-282.433061995364
 30
0.0
 10
327.1032035857589
 20
-282.433061995364
 30
0.0
 10
317.0462808452176
 20
-284.142518375145
 30
0.0
 10
317.0462808452176
 20
-284.142518375145
 30
0.0
 10
317.0462808452176
 20
-284.142518375145
 30
0.0
 10
317.27227910905
 20
-282.860942854632
 30
0.0
 10
317.27227910905
 20
-282.860942854632
 30
0.0
 10
316.6022080371689
 20
-282.7885958494418
 30
0.0
 10
315.9448838185833
 20
-282.67456318888
 30
0.0
 10
315.2999619437444
 20
-282.5267685925627
 30
0.0
 10
315.2999619437444
 20
-282.5267685925627
 30
0.0
 10
315.0739636799121
 20
-283.8086886226242
 30
0.0
 10
315.0739636799121
 20
-283.8086886226242
 30
0.0
 10
315.0739636799121
 20
-283.8086886226242
 30
0.0
 10
306.0957003358025
 20
-278.8453395570248
 30
0.0
 10
306.0957003358025
 20
-278.8453395570248
 30
0.0
 10
306.0957003358025
 20
-278.8453395570248
 30
0.0
 10
307.096156064719
 20
-278.0061142968179
 30
0.0
 10
307.096156064719
 20
-278.0061142968179
 30
0.0
 10
306.6217664164001
 20
-277.5365477821784
 30
0.0
 10
306.1770045892544
 20
-277.0380424654628
 30
0.0
 10
305.7601480355391
 20
-276.5161104994474
 30
0.0
 10
305.7601480355391
 20
-276.5161104994474
 30
0.0
 10
304.7645154403019
 20
-277.3515461546205
 30
0.0
 10
304.7645154403019
 20
-277.3515461546205
 30
0.0
 10
304.7645154403019
 20
-277.3515461546205
 30
0.0
 10
300.8057562182013
 20
-267.6091606318824
 30
0.0
 10
300.8057562182013
 20
-267.6091606318824
 30
0.0
 10
300.8057562182013
 20
-267.6091606318824
 30
0.0
 10
302.1090358402714
 20
-267.6091606318824
 30
0.0
 10
302.1090358402714
 20
-267.6091606318824
 30
0.0
 10
302.0504692170221
 20
-267.0341741953943
 30
0.0
 10
302.0201523767519
 20
-266.4509195297414
 30
0.0
 10
302.0201523767519
 20
-265.8607746731182
 30
0.0
 10
302.0201523767519
 20
-265.8607746731182
 30
0.0
 10
302.0201523767519
 20
-265.6092827026949
 30
0.0
 10
302.0201523767519
 20
-265.6092827026949
 30
0.0
 10
302.0201523767519
 20
-265.6092827026949
 30
0.0
 10
300.7203178501671
 20
-265.6092827026949
 30
0.0
 10
300.7203178501671
 20
-265.6092827026949
 30
0.0
 10
300.7203178501671
 20
-265.6092827026949
 30
0.0
 10
300.7203178501671
 20
-246.9013806891427
 30
0.0
 10
300.7203178501671
 20
-246.9013806891427
 30
0.0
 10
300.7203178501671
 20
-246.9013806891427
 30
0.0
 10
302.0201523767519
 20
-246.9013806891427
 30
0.0
 10
302.0201523767519
 20
-246.9013806891427
 30
0.0
 10
302.0201523767519
 20
-246.9013806891427
 30
0.0
 10
302.0201523767519
 20
-244.9015027599552
 30
0.0
 10
302.0201523767519
 20
-244.9015027599552
 30
0.0
 10
302.0201523767519
 20
-244.9015027599552
 30
0.0
 10
300.7203178501671
 20
-244.9015027599552
 30
0.0
 10
300.7203178501671
 20
-244.9015027599552
 30
0.0
 10
300.7203178501671
 20
-244.9015027599552
 30
0.0
 10
300.7203178501671
 20
-228.2420545219325
 30
0.0
 10
300.7203178501671
 20
-228.2420545219325
 30
0.0
 10
300.7203178501671
 20
-228.2420545219325
 30
0.0
 10
302.0201523767519
 20
-228.2420545219325
 30
0.0
 10
302.0201523767519
 20
-228.2420545219325
 30
0.0
 10
302.0201523767519
 20
-228.2420545219325
 30
0.0
 10
302.0201523767519
 20
-226.242176592745
 30
0.0
 10
302.0201523767519
 20
-226.242176592745
 30
0.0
 10
302.0201523767519
 20
-226.242176592745
 30
0.0
 10
300.7203178501671
 20
-226.242176592745
 30
0.0
 10
300.7203178501671
 20
-226.242176592745
 30
0.0
 10
300.7203178501671
 20
-226.242176592745
 30
0.0
 10
300.7203178501671
 20
-209.5830728642709
 30
0.0
 10
300.7203178501671
 20
-209.5830728642709
 30
0.0
 10
300.7203178501671
 20
-209.5830728642709
 30
0.0
 10
302.0201523767519
 20
-209.5830728642709
 30
0.0
 10
302.0201523767519
 20
-209.5830728642709
 30
0.0
 10
302.0201523767519
 20
-209.5830728642709
 30
0.0
 10
302.0201523767519
 20
-207.5831949350834
 30
0.0
 10
302.0201523767519
 20
-207.5831949350834
 30
0.0
 10
302.0201523767519
 20
-207.5831949350834
 30
0.0
 10
300.7203178501671
 20
-207.5831949350834
 30
0.0
 10
300.7203178501671
 20
-207.5831949350834
 30
0.0
 10
300.7203178501671
 20
-207.5831949350834
 30
0.0
 10
300.7203178501671
 20
-190.9237466970607
 30
0.0
 10
300.7203178501671
 20
-190.9237466970607
 30
0.0
 10
300.7203178501671
 20
-190.9237466970607
 30
0.0
 10
302.0201523767519
 20
-190.9237466970607
 30
0.0
 10
302.0201523767519
 20
-190.9237466970607
 30
0.0
 10
302.0201523767519
 20
-190.9237466970607
 30
0.0
 10
302.0201523767519
 20
-188.9238687678732
 30
0.0
 10
302.0201523767519
 20
-188.9238687678732
 30
0.0
 10
302.0201523767519
 20
-188.9238687678732
 30
0.0
 10
300.7203178501671
 20
-188.9238687678732
 30
0.0
 10
300.7203178501671
 20
-188.9238687678732
 30
0.0
 10
300.7203178501671
 20
-188.9238687678732
 30
0.0
 10
300.7203178501671
 20
-172.2644205298506
 30
0.0
 10
300.7203178501671
 20
-172.2644205298506
 30
0.0
 10
300.7203178501671
 20
-172.2644205298506
 30
0.0
 10
302.0201523767519
 20
-172.2644205298506
 30
0.0
 10
302.0201523767519
 20
-172.2644205298506
 30
0.0
 10
302.0201523767519
 20
-172.2644205298506
 30
0.0
 10
302.0201523767519
 20
-170.264542600663
 30
0.0
 10
302.0201523767519
 20
-170.264542600663
 30
0.0
 10
302.0201523767519
 20
-170.264542600663
 30
0.0
 10
300.7203178501671
 20
-170.264542600663
 30
0.0
 10
300.7203178501671
 20
-170.264542600663
 30
0.0
 10
300.7203178501671
 20
-170.264542600663
 30
0.0
 10
300.7203178501671
 20
-153.6054388721889
 30
0.0
 10
300.7203178501671
 20
-153.6054388721889
 30
0.0
 10
300.7203178501671
 20
-153.6054388721889
 30
0.0
 10
302.0201523767519
 20
-153.6054388721889
 30
0.0
 10
302.0201523767519
 20
-153.6054388721889
 30
0.0
 10
302.0201523767519
 20
-153.6054388721889
 30
0.0
 10
302.0201523767519
 20
-151.6055609430014
 30
0.0
 10
302.0201523767519
 20
-151.6055609430014
 30
0.0
 10
302.0201523767519
 20
-151.6055609430014
 30
0.0
 10
300.7203178501671
 20
-151.6055609430014
 30
0.0
 10
300.7203178501671
 20
-151.6055609430014
 30
0.0
 10
300.7203178501671
 20
-151.6055609430014
 30
0.0
 10
300.7203178501671
 20
-134.9461127049788
 30
0.0
 10
300.7203178501671
 20
-134.9461127049788
 30
0.0
 10
300.7203178501671
 20
-134.9461127049788
 30
0.0
 10
302.0201523767519
 20
-134.9461127049788
 30
0.0
 10
302.0201523767519
 20
-134.9461127049788
 30
0.0
 10
302.0201523767519
 20
-134.9461127049788
 30
0.0
 10
302.0201523767519
 20
-132.9462347757912
 30
0.0
 10
302.0201523767519
 20
-132.9462347757912
 30
0.0
 10
302.0201523767519
 20
-132.9462347757912
 30
0.0
 10
300.7203178501671
 20
-132.9462347757912
 30
0.0
 10
300.7203178501671
 20
-132.9462347757912
 30
0.0
 10
300.7203178501671
 20
-132.9462347757912
 30
0.0
 10
300.7203178501671
 20
-122.4462727558468
 30
0.0
 10
300.7203178501671
 20
-122.4462727558468
 30
0.0
 10
300.7203178501671
 20
-122.4462727558468
 30
0.0
 10
302.0201523767519
 20
-122.4462727558468
 30
0.0
 10
302.0201523767519
 20
-122.4462727558468
 30
0.0
 10
302.0201523767519
 20
-118.5843207168817
 30
0.0
 10
298.8899386188539
 20
-115.4539347042094
 30
0.0
 10
295.0279865798889
 20
-115.4539347042094
 30
0.0
 10
291.1660345409238
 20
-115.4539347042094
 30
0.0
 10
288.0358207830258
 20
-118.5843207168817
 30
0.0
 10
288.0358207830258
 20
-122.4462727558468
 30
0.0
 10
288.0358207830258
 20
-122.4462727558468
 30
0.0
 10
288.0358207830258
 20
-228.3646999212075
 30
0.0
 10
288.0358207830258
 20
-228.3646999212075
 30
0.0
 10
288.0347872543802
 20
-228.42016595852
 30
0.0
 10
288.0275525538612
 20
-228.4739094480899
 30
0.0
 10
288.0275525538612
 20
-228.5300645044994
 30
0.0
 10
288.0275525538612
 20
-234.267182016086
 30
0.0
 10
286.8255587390575
 20
-239.8072400659163
 30
0.0
 10
284.5235459358136
 20
-244.9015027599552
 30
0.0
 10
284.2189994949175
 20
-245.5760524559671
 30
0.0
 10
283.8982611052407
 20
-246.2437119610085
 30
0.0
 10
283.5551295949098
 20
-246.9013806891427
 30
0.0
 10
282.5219454588834
 20
-248.8819660836129
 30
0.0
 10
281.3189181154341
 20
-250.7874483965045
 30
0.0
 10
279.9432914881739
 20
-252.5985350931004
 30
0.0
 10
277.8858804643827
 20
-255.295355838954
 30
0.0
 10
275.6520805517467
 20
-257.8299125874523
 30
0.0
 10
273.2777207433125
 20
-260.2077174913717
 30
0.0
 10
272.9573268631843
 20
-260.5291449001455
 30
0.0
 10
272.6379665117016
 20
-260.852294856662
 30
0.0
 10
272.312060478797
 20
-261.1675210935623
 30
0.0
 10
272.312060478797
 20
-261.1675210935623
 30
0.0
 10
273.2312119542617
 20
-262.086672569027
 30
0.0
 10
273.2312119542617
 20
-262.086672569027
 30
0.0
 10
273.2312119542617
 20
-262.086672569027
 30
0.0
 10
258.5874890846587
 20
-273.2463703743967
 30
0.0
 10
258.5874890846587
 20
-273.2463703743967
 30
0.0
 10
258.5874890846587
 20
-273.2463703743967
 30
0.0
 10
257.9377440761406
 20
-272.1212021889141
 30
0.0
 10
257.9377440761406
 20
-272.1212021889141
 30
0.0
 10
257.3641356778465
 20
-272.4612331133083
 30
0.0
 10
256.7867376745186
 20
-272.794373846732
 30
0.0
 10
256.2045165375114
 20
-273.1195908605396
 30
0.0
 10
256.2045165375114
 20
-273.1195908605396
 30
0.0
 10
256.8542615460295
 20
-274.2447590460222
 30
0.0
 10
256.8542615460295
 20
-274.2447590460222
 30
0.0
 10
256.8542615460295
 20
-274.2447590460222
 30
0.0
 10
239.8544378740642
 20
-281.2934244088434
 30
0.0
 10
239.8544378740642
 20
-281.2934244088434
 30
0.0
 10
239.8544378740642
 20
-281.2934244088434
 30
0.0
 10
239.5178520451553
 20
-280.0380316140183
 30
0.0
 10
239.5178520451553
 20
-280.0380316140183
 30
0.0
 10
238.8767197753503
 20
-280.220277165188
 30
0.0
 10
238.2331759387056
 20
-280.3942544871931
 30
0.0
 10
237.5872205352213
 20
-280.5599635800336
 30
0.0
 10
237.5872205352213
 20
-280.5599635800336
 30
0.0
 10
237.9234618545816
 20
-281.8153563748587
 30
0.0
 10
237.9234618545816
 20
-281.8153563748587
 30
0.0
 10
237.9234618545816
 20
-281.8153563748587
 30
0.0
 10
219.6758245978588
 20
-284.2479382969936
 30
0.0
 10
219.6758245978588
 20
-284.2479382969936
 30
0.0
 10
219.6758245978588
 20
-284.2479382969936
 30
0.0
 10
219.6758245978588
 20
-282.9477592608603
 30
0.0
 10
219.6758245978588
 20
-282.9477592608603
 30
0.0
 10
219.3423393548867
 20
-282.9522378849911
 30
0.0
 10
219.0095431310115
 20
-282.9625731714469
 30
0.0
 10
218.6757133784908
 20
-282.9625731714469
 30
0.0
 10
218.341194606873
 20
-282.9625731714469
 30
0.0
 10
218.009087402095
 20
-282.9543049422822
 30
0.0
 10
217.6756021591228
 20
-282.9501708277
 30
0.0
 10
217.6756021591228
 20
-282.9501708277
 30
0.0
 10
217.6756021591228
 20
-284.2500053542847
 30
0.0
 10
217.6756021591228
 20
-284.2500053542847
 30
0.0
 10
217.6756021591228
 20
-284.2500053542847
 30
0.0
 10
199.4159070682016
 20
-281.8587645779728
 30
0.0
 10
199.4159070682016
 20
-281.8587645779728
 30
0.0
 10
199.4159070682016
 20
-281.8587645779728
 30
0.0
 10
199.7524928971105
 20
-280.6026827640507
 30
0.0
 10
199.7524928971105
 20
-280.6026827640507
 30
0.0
 10
199.1055039649806
 20
-280.4380071998558
 30
0.0
 10
198.4609265996903
 20
-280.2664414446904
 30
0.0
 10
197.8204833489824
 20
-280.0855739317147
 30
0.0
 10
197.8204833489824
 20
-280.0855739317147
 30
0.0
 10
197.4838975200735
 20
-281.3413112360883
 30
0.0
 10
197.4838975200735
 20
-281.3413112360883
 30
0.0
 10
197.4838975200735
 20
-281.3413112360883
 30
0.0
 10
180.4816622812685
 20
-274.2709417717101
 30
0.0
 10
180.4816622812685
 20
-274.2709417717101
 30
0.0
 10
180.4816622812685
 20
-274.2709417717101
 30
0.0
 10
181.1317517993351
 20
-273.1454290766789
 30
0.0
 10
181.1317517993351
 20
-273.1454290766789
 30
0.0
 10
180.5502196814249
 20
-272.8184895151287
 30
0.0
 10
179.9731661876456
 20
-272.4843152530595
 30
0.0
 10
179.4009358275456
 20
-272.1429062904712
 30
0.0
 10
179.4009358275456
 20
-272.1429062904712
 30
0.0
 10
178.7511908190275
 20
-273.2684189855024
 30
0.0
 10
178.7511908190275
 20
-273.2684189855024
 30
0.0
 10
178.7511908190275
 20
-273.2684189855024
 30
0.0
 10
164.1594888912518
 20
-262.0470539709466
 30
0.0
 10
164.1594888912518
 20
-262.0470539709466
 30
0.0
 10
164.1594888912518
 20
-262.0470539709466
 30
0.0
 10
165.0782958571679
 20
-261.1282470050305
 30
0.0
 10
165.0782958571679
 20
-261.1282470050305
 30
0.0
 10
164.6008056229123
 20
-260.6631591145217
 30
0.0
 10
164.1295165605301
 20
-260.191525542591
 30
0.0
 10
163.6640841604729
 20
-259.7140353083354
 30
0.0
 10
163.6640841604729
 20
-259.7140353083354
 30
0.0
 10
162.7452771945567
 20
-260.6328422742515
 30
0.0
 10
162.7452771945567
 20
-260.6328422742515
 30
0.0
 10
162.7452771945567
 20
-260.6328422742515
 30
0.0
 10
151.5242566895495
 20
-246.0414848560244
 30
0.0
 10
151.5242566895495
 20
-246.0414848560244
 30
0.0
 10
151.5242566895495
 20
-246.0414848560244
 30
0.0
 10
152.6497693845806
 20
-245.3917398475062
 30
0.0
 10
152.6497693845806
 20
-245.3917398475062
 30
0.0
 10
152.3083604219923
 20
-244.8198539969548
 30
0.0
 10
151.9741861599231
 20
-244.2428005031754
 30
0.0
 10
151.6472465983729
 20
-243.6612683852653
 30
0.0
 10
151.6472465983729
 20
-243.6612683852653
 30
0.0
 10
150.5217339033418
 20
-244.3110133937834
 30
0.0
 10
150.5217339033418
 20
-244.3110133937834
 30
0.0
 10
150.5217339033418
 20
-244.3110133937834
 30
0.0
 10
143.4513644389636
 20
-227.3087781549784
 30
0.0
 10
143.4513644389636
 20
-227.3087781549784
 30
0.0
 10
143.4513644389636
 20
-227.3087781549784
 30
0.0
 10
144.7071017433371
 20
-226.9721923260695
 30
0.0
 10
144.7071017433371
 20
-226.9721923260695
 30
0.0
 10
144.5262342303615
 20
-226.3317490753615
 30
0.0
 10
144.3546684751961
 20
-225.6875162196198
 30
0.0
 10
144.1899929110011
 20
-225.0401827779413
 30
0.0
 10
144.1899929110011
 20
-225.0401827779413
 30
0.0
 10
142.933911097079
 20
-225.3767686068502
 30
0.0
 10
142.933911097079
 20
-225.3767686068502
 30
0.0
 10
142.933911097079
 20
-225.3767686068502
 30
0.0
 10
140.5426703207671
 20
-207.1170735159291
 30
0.0
 10
140.5426703207671
 20
-207.1170735159291
 30
0.0
 10
140.5426703207671
 20
-207.1170735159291
 30
0.0
 10
141.8425048473519
 20
-207.1170735159291
 30
0.0
 10
141.8425048473519
 20
-207.1170735159291
 30
0.0
 10
141.8383707327696
 20
-206.7835882729569
 30
0.0
 10
141.830102503605
 20
-206.4514810681788
 30
0.0
 10
141.830102503605
 20
-206.1173068061096
 30
0.0
 10
141.830102503605
 20
-205.7827880344918
 30
0.0
 10
141.8383707327696
 20
-205.4503363201652
 30
0.0
 10
141.8425048473519
 20
-205.1171955867415
 30
0.0
 10
141.8425048473519
 20
-205.1171955867415
 30
0.0
 10
140.5426703207671
 20
-205.1171955867415
 30
0.0
 10
140.5426703207671
 20
-205.1171955867415
 30
0.0
 10
140.5426703207671
 20
-205.1171955867415
 30
0.0
 10
142.933911097079
 20
-186.8575004958203
 30
0.0
 10
142.933911097079
 20
-186.8575004958203
 30
0.0
 10
142.933911097079
 20
-186.8575004958203
 30
0.0
 10
144.1899929110011
 20
-187.1940863247293
 30
0.0
 10
144.1899929110011
 20
-187.1940863247293
 30
0.0
 10
144.3546684751961
 20
-186.5467528830508
 30
0.0
 10
144.5262342303615
 20
-185.9025200273091
 30
0.0
 10
144.7071017433371
 20
-185.2620767766012
 30
0.0
 10
144.7071017433371
 20
-185.2620767766012
 30
0.0
 10
143.4513644389636
 20
-184.9254909476923
 30
0.0
 10
143.4513644389636
 20
-184.9254909476923
 30
0.0
 10
143.4513644389636
 20
-184.9254909476923
 30
0.0
 10
150.5217339033418
 20
-167.9229111993387
 30
0.0
 10
150.5217339033418
 20
-167.9229111993387
 30
0.0
 10
150.5217339033418
 20
-167.9229111993387
 30
0.0
 10
151.6472465983729
 20
-168.5730007174054
 30
0.0
 10
151.6472465983729
 20
-168.5730007174054
 30
0.0
 10
151.9741861599231
 20
-167.9914685994952
 30
0.0
 10
152.3083604219923
 20
-167.4144151057158
 30
0.0
 10
152.6497693845806
 20
-166.8425292551644
 30
0.0
 10
152.6497693845806
 20
-166.8425292551644
 30
0.0
 10
151.5242566895495
 20
-166.1924397370977
 30
0.0
 10
151.5242566895495
 20
-166.1924397370977
 30
0.0
 10
151.5242566895495
 20
-166.1924397370977
 30
0.0
 10
162.7456217041053
 20
-151.6010823188706
 30
0.0
 10
162.7456217041053
 20
-151.6010823188706
 30
0.0
 10
162.7456217041053
 20
-151.6010823188706
 30
0.0
 10
163.6640841604729
 20
-152.5198892847867
 30
0.0
 10
163.6640841604729
 20
-152.5198892847867
 30
0.0
 10
164.1295165605301
 20
-152.0423990505311
 30
0.0
 10
164.6008056229123
 20
-151.5711099881489
 30
0.0
 10
165.0782958571679
 20
-151.1056775880917
 30
0.0
 10
165.0782958571679
 20
-151.1056775880917
 30
0.0
 10
164.1598334008003
 20
-150.1868706221755
 30
0.0
 10
164.1598334008003
 20
-150.1868706221755
 30
0.0
 10
164.1598334008003
 20
-150.1868706221755
 30
0.0
 10
178.7511908190275
 20
-138.9658501171683
 30
0.0
 10
178.7511908190275
 20
-138.9658501171683
 30
0.0
 10
178.7511908190275
 20
-138.9658501171683
 30
0.0
 10
179.4009358275456
 20
-140.0913628121994
 30
0.0
 10
179.4009358275456
 20
-140.0913628121994
 30
0.0
 10
179.9731661876456
 20
-139.7496093400626
 30
0.0
 10
180.5502196814249
 20
-139.4157795875419
 30
0.0
 10
181.1317517993351
 20
-139.0888400259917
 30
0.0
 10
181.1317517993351
 20
-139.0888400259917
 30
0.0
 10
180.482006790817
 20
-137.9633273309606
 30
0.0
 10
180.482006790817
 20
-137.9633273309606
 30
0.0
 10
180.482006790817
 20
-137.9633273309606
 30
0.0
 10
197.4838975200735
 20
-130.8929578665823
 30
0.0
 10
197.4838975200735
 20
-130.8929578665823
 30
0.0
 10
197.4838975200735
 20
-130.8929578665823
 30
0.0
 10
197.8204833489824
 20
-132.1486951709559
 30
0.0
 10
197.8204833489824
 20
-132.1486951709559
 30
0.0
 10
198.4612711092389
 20
-131.9678276579803
 30
0.0
 10
199.1055039649806
 20
-131.7960896480406
 30
0.0
 10
199.7524928971105
 20
-131.6315863386199
 30
0.0
 10
199.7524928971105
 20
-131.6315863386199
 30
0.0
 10
199.4162515777501
 20
-130.3755045246978
 30
0.0
 10
199.4162515777501
 20
-130.3755045246978
 30
0.0
 10
199.4162515777501
 20
-130.3755045246978
 30
0.0
 10
217.6756021591228
 20
-127.9842637483859
 30
0.0
 10
217.6756021591228
 20
-127.9842637483859
 30
0.0
 10
217.6756021591228
 20
-127.9842637483859
 30
0.0
 10
217.6756021591228
 20
-129.2842705297449
 30
0.0
 10
217.6756021591228
 20
-129.2842705297449
 30
0.0
 10
218.009087402095
 20
-129.2797919056141
 30
0.0
 10
218.341194606873
 20
-129.2713514216752
 30
0.0
 10
218.6757133784908
 20
-129.2713514216752
 30
0.0
 10
219.0095431310115
 20
-129.2713514216752
 30
0.0
 10
219.3423393548867
 20
-129.2789306317428
 30
0.0
 10
219.6758245978588
 20
-129.2832370010993
 30
0.0
 10
219.6758245978588
 20
-129.2832370010993
 30
0.0
 10
219.6758245978588
 20
-127.9834024745146
 30
0.0
 10
219.6758245978588
 20
-127.9834024745146
 30
0.0
 10
219.6758245978588
 20
-127.9834024745146
 30
0.0
 10
237.9368977269741
 20
-130.3682698241788
 30
0.0
 10
237.9368977269741
 20
-130.3682698241788
 30
0.0
 10
237.9368977269741
 20
-130.3682698241788
 30
0.0
 10
237.6006564076137
 20
-131.6243516381009
 30
0.0
 10
237.6006564076137
 20
-131.6243516381009
 30
0.0
 10
238.2473008301951
 20
-131.787821418876
 30
0.0
 10
238.8915336859368
 20
-131.9597316835899
 30
0.0
 10
239.5330104652904
 20
-132.1400824322428
 30
0.0
 10
239.5330104652904
 20
-132.1400824322428
 30
0.0
 10
239.8695962941993
 20
-130.8840006183207
 30
0.0
 10
239.8695962941993
 20
-130.8840006183207
 30
0.0
 10
239.8695962941993
 20
-130.8840006183207
 30
0.0
 10
256.8869899531394
 20
-137.9326659811418
 30
0.0
 10
256.8869899531394
 20
-137.9326659811418
 30
0.0
 10
256.8869899531394
 20
-137.9326659811418
 30
0.0
 10
256.2365559255242
 20
-139.05886769527
 30
0.0
 10
256.2365559255242
 20
-139.05886769527
 30
0.0
 10
256.8177435338858
 20
-139.3851182377232
 30
0.0
 10
257.3951415372137
 20
-139.7182589711468
 30
0.0
 10
257.9684054259593
 20
-140.0600124432836
 30
0.0
 10
257.9684054259593
 20
-140.0600124432836
 30
0.0
 10
258.6184949440259
 20
-138.934155238704
 30
0.0
 10
258.6184949440259
 20
-138.934155238704
 30
0.0
 10
258.6184949440259
 20
-138.934155238704
 30
0.0
 10
272.3478894718436
 20
-149.3162949930529
 30
0.0
 10
272.3478894718436
 20
-149.3162949930529
 30
0.0
 10
272.3478894718436
 20
-149.3162949930529
 30
0.0
 10
271.402555270691
 20
-150.2123643287664
 30
0.0
 10
271.402555270691
 20
-150.2123643287664
 30
0.0
 10
271.4197807481173
 20
-150.2289007870956
 30
0.0
 10
271.4376952446406
 20
-150.2447482263277
 30
0.0
 10
271.4549207220668
 20
-150.2609401751084
 30
0.0
 10
274.2612955043514
 20
-152.9136636987508
 30
0.0
 10
278.6865206551548
 20
-152.7889512421847
 30
0.0
 10
281.3399331978942
 20
-149.9832654789973
 30
0.0
 10
283.9926567215365
 20
-147.1768906967127
 30
0.0
 10
283.8679442649705
 20
-142.7513210363608
 30
0.0
 10
281.061569482686
 20
-140.0982530031699
 30
0.0
 10
276.1092447226393
 20
-135.4174017673609
 30
0.0
 10
270.7069904922191
 20
-131.3568399736712
 30
0.0
 10
264.9619492610165
 20
-127.9470567171452
 30
0.0
 10
264.9619492610165
 20
-127.9470567171452
 30
0.0
 10
264.9619492610165
 20
-127.9470567171452
 30
0.0
 10
264.9619492610165
 20
-127.9470567171452
 30
0.0
 10
264.9612602419194
 20
-127.9467122075967
 30
0.0
 10
264.9605712228224
 20
-127.9465399528224
 30
0.0
 10
264.9602267132739
 20
-127.9461954432739
 30
0.0
 10
264.3876518436253
 20
-127.606336773654
 30
0.0
 10
263.8116318784915
 20
-127.272334766359
 30
0.0
 10
263.2321668178726
 20
-126.9455674595831
 30
0.0
 10
263.231822308324
 20
-126.9453952048088
 30
0.0
 10
263.2311332892269
 20
-126.9450506952603
 30
0.0
 10
263.2307887796784
 20
-126.944878440486
 30
0.0
 10
249.7549532795752
 20
-119.3448255452506
 30
0.0
 10
234.480433426623
 20
-115.2868475731748
 30
0.0
 10
218.6757133784908
 20
-115.2868475731748
 30
0.0
 10
218.6688231875203
 20
-115.2868475731748
 30
0.0
 10
218.6619329965498
 20
-115.2871920827234
 30
0.0
 10
218.6550428055793
 20
-115.2871920827234
 30
0.0
 10
168.5805799274729
 20
-115.2983886430504
 30
0.0
 10
127.8454264003303
 20
-156.040087851615
 30
0.0
 10
127.8454264003303
 20
-206.1173068061096
 30
0.0
 10
127.8454264003303
 20
-230.8000379197306
 30
0.0
 10
137.7466308249383
 20
-253.2103840512808
 30
0.0
 10
153.7804497228396
 20
-269.5980142555172
 30
0.0
 10
153.7804497228396
 20
-269.5980142555172
 30
0.0
 10
153.7804497228396
 20
-269.5980142555172
 30
0.0
 10
153.7804497228396
 20
-269.5980142555172
 30
0.0
 10
153.7807942323881
 20
-269.5983587650657
 30
0.0
 10
153.7811387419367
 20
-269.5987032746143
 30
0.0
 10
153.7814832514852
 20
-269.5990477841627
 30
0.0
 10
154.2469156515425
 20
-270.0748154706757
 30
0.0
 10
154.7178602043761
 20
-270.5457600235094
 30
0.0
 10
155.1936278908891
 20
-271.0111924235667
 30
0.0
 10
155.1939724004376
 20
-271.0115369331152
 30
0.0
 10
155.1943169099862
 20
-271.0118814426637
 30
0.0
 10
155.1946614195347
 20
-271.0122259522122
 30
0.0
 10
155.1946614195347
 20
-271.0122259522122
 30
0.0
 10
155.1946614195347
 20
-271.0122259522122
 30
0.0
 10
155.1946614195347
 20
-271.0122259522122
 30
0.0
 10
160.3716064052196
 20
-276.0772053346266
 30
0.0
 10
166.1490315339836
 20
-280.5293022302149
 30
0.0
 10
172.4101480688767
 20
-284.2506943733818
 30
0.0
 10
172.4101480688767
 20
-284.2506943733818
 30
0.0
 10
172.4101480688767
 20
-284.2506943733818
 30
0.0
 10
172.4101480688767
 20
-284.2506943733818
 30
0.0
 10
172.4108370879737
 20
-284.2513833924788
 30
0.0
 10
172.4115261070707
 20
-284.2517279020274
 30
0.0
 10
172.4122151261678
 20
-284.2520724115759
 30
0.0
 10
172.9844454862678
 20
-284.59210333597
 30
0.0
 10
173.5604654514016
 20
-284.9266221075878
 30
0.0
 10
174.1406195311176
 20
-285.2542506882351
 30
0.0
 10
174.1406195311176
 20
-285.2542506882351
 30
0.0
 10
174.1406195311176
 20
-285.2542506882351
 30
0.0
 10
174.1406195311176
 20
-285.2542506882351
 30
0.0
 10
180.4062146901415
 20
-288.7940862993293
 30
0.0
 10
187.1296630391551
 20
-291.6128634253607
 30
0.0
 10
194.2007215226304
 20
-293.5937933293794
 30
0.0
 10
194.2020995608245
 20
-293.5941378389278
 30
0.0
 10
194.2031330894701
 20
-293.5944823484764
 30
0.0
 10
194.2041666181156
 20
-293.5948268580249
 30
0.0
 10
194.8442653592751
 20
-293.7743163328064
 30
0.0
 10
195.4860866481771
 20
-293.9486381643601
 30
0.0
 10
196.1316975421129
 20
-294.1143472572006
 30
0.0
 10
196.1316975421129
 20
-294.1143472572006
 30
0.0
 10
196.1320420516614
 20
-294.1143472572006
 30
0.0
 10
196.1320420516614
 20
-294.1143472572006
 30
0.0
 10
196.1320420516614
 20
-294.1143472572006
 30
0.0
 10
196.1320420516614
 20
-294.1143472572006
 30
0.0
 10
196.1320420516614
 20
-294.1143472572006
 30
0.0
 10
203.3098984951795
 20
-295.9543727558726
 30
0.0
 10
210.8274413535432
 20
-296.9369139882658
 30
0.0
 10
218.5689154184481
 20
-296.9458712365274
 30
0.0
 10
218.6043999019461
 20
-296.9458712365274
 30
0.0
 10
218.6398843854442
 20
-296.9472492747215
 30
0.0
 10
218.6757133784908
 20
-296.9472492747215
 30
0.0
 10
226.3283039798763
 20
-296.9472492747215
 30
0.0
 10
233.8958007227761
 20
-295.9533392272269
 30
0.0
 10
241.2056043233792
 20
-294.0640488631159
 30
0.0
 10
241.2056043233792
 20
-294.0640488631159
 30
0.0
 10
241.2056043233792
 20
-294.0640488631159
 30
0.0
 10
241.2056043233792
 20
-294.0640488631159
 30
0.0
 10
241.2138725525438
 20
-294.0616372962763
 30
0.0
 10
241.2221407817084
 20
-294.0595702389851
 30
0.0
 10
241.230409010873
 20
-294.0571586721454
 30
0.0
 10
241.8674071660957
 20
-293.8924831079505
 30
0.0
 10
242.5040608117698
 20
-293.7253959769159
 30
0.0
 10
243.1369248524102
 20
-293.5469400307799
 30
0.0
 10
243.1372693619587
 20
-293.5469400307799
 30
0.0
 10
243.1372693619587
 20
-293.5465955212314
 30
0.0
 10
243.1376138715073
 20
-293.5465955212314
 30
0.0
 10
243.1376138715073
 20
-293.5465955212314
 30
0.0
 10
243.1376138715073
 20
-293.5465955212314
 30
0.0
 10
243.1376138715073
 20
-293.5465955212314
 30
0.0
 10
250.7719454668209
 20
-291.3937553524988
 30
0.0
 10
258.1000080734959
 20
-288.2483831744657
 30
0.0
 10
264.9233641915817
 20
-284.2217555713057
 30
0.0
 10
264.9233641915817
 20
-284.2217555713057
 30
0.0
 10
264.9237087011302
 20
-284.2214110617572
 30
0.0
 10
264.9237087011302
 20
-284.2214110617572
 30
0.0
 10
273.5826116937571
 20
-279.1116454380346
 30
0.0
 10
281.4277831327681
 20
-272.5807779266465
 30
0.0
 10
288.0358207830258
 20
-264.8234564225094
 30
0.0
 10
288.0358207830258
 20
-264.8234564225094
 30
0.0
 10
288.0358207830258
 20
-266.17565640047
 30
0.0
 10
288.0358207830258
 20
-266.17565640047
 30
0.0
 10
288.0358207830258
 20
-266.17565640047
 30
0.0
 10
288.0371988212199
 20
-266.17565640047
 30
0.0
 10
288.0371988212199
 20
-266.17565640047
 30
0.0
 10
288.1880940034739
 20
-281.3740396431982
 30
0.0
 10
299.3019720388898
 20
-293.9937689152168
 30
0.0
 10
313.8320067574795
 20
-296.4952527470568
 30
0.0
 10
313.8495767444543
 20
-296.4980088234449
 30
0.0
 10
313.8668022218806
 20
-296.5007648998331
 30
0.0
 10
313.8843722088553
 20
-296.5038654857699
 30
0.0
 10
314.2013209934983
 20
-296.5579534848883
 30
0.0
 10
314.5203368354324
 20
-296.6065293312303
 30
0.0
 10
314.8403862060121
 20
-296.65097106299
 30
0.0
 10
314.8407307155607
 20
-296.65097106299
 30
0.0
 10
314.8407307155607
 20
-296.65097106299
 30
0.0
 10
314.8407307155607
 20
-296.65097106299
 30
0.0
 10
316.2408175207662
 20
-296.8445854292611
 30
0.0
 10
317.6698431280478
 20
-296.9472492747215
 30
0.0
 10
319.1222953846292
 20
-296.9472492747215
 30
0.0
 10
324.1662596845835
 20
-296.9472492747215
 30
0.0
 10
329.075865260613
 20
-295.7180392055844
 30
0.0
 10
333.4580267178508
 20
-293.4401420707372
 30
0.0
 10
333.4580267178508
 20
-293.4401420707372
 30
0.0
 10
333.4580267178508
 20
-293.4401420707372
 30
0.0
 10
333.4580267178508
 20
-293.4401420707372
 30
0.0
 10
333.460093775142
 20
-293.4391085420916
 30
0.0
 10
333.4621608324331
 20
-293.4380750134461
 30
0.0
 10
333.4642278897242
 20
-293.4370414848005
 30
0.0
 10
333.7498263054514
 20
-293.2885578693862
 30
0.0
 10
334.0323241352419
 20
-293.1345621011955
 30
0.0
 10
334.3130994172898
 20
-292.9771212375196
 30
0.0
 10
334.3341144997498
 20
-292.9654079128698
 30
0.0
 10
334.3547850726613
 20
-292.9536945882199
 30
0.0
 10
334.3758001551213
 20
-292.9416367540215
 30
0.0
 10
337.377167341871
 20
-291.251472908958
 30
0.0
 10
340.1098170807712
 20
-289.059014142145
 30
0.0
 10
342.4376681001545
 20
-286.4207600195406
 30
0.0
 10
343.8777180129889
 20
-284.7891627977263
 30
0.0
 10
344.4151529086879
 20
-282.6738741697829
 30
0.0
 10
344.0944145190111
 20
-280.6805419220174
 30
0.0
  0
ENDSEC
  0
SECTION
  2
OBJECTS
  0
DICTIONARY
  5
C
330
0
100
AcDbDictionary
281
     1
  3
ACAD_GROUP
350
D
  3
ACAD_LAYOUT
350
1A
  3
ACAD_MLINESTYLE
350
17
  3
ACAD_PLOTSETTINGS
350
19
  3
ACAD_PLOTSTYLENAME
350
E
  3
ACAD_TABLESTYLE
350
43
  3
ACAD_VISUALSTYLE
350
2A
  0
DICTIONARY
  5
D
102
{ACAD_REACTORS
330
C
102
}
330
C
100
AcDbDictionary
281
     1
  0
DICTIONARY
  5
1A
102
{ACAD_REACTORS
330
C
102
}
330
C
100
AcDbDictionary
281
     1
  3
Layout1
350
1E
  3
Layout2
350
26
  3
Model
350
22
  0
DICTIONARY
  5
17
102
{ACAD_REACTORS
330
C
102
}
330
C
100
AcDbDictionary
281
     1
  3
Standard
350
18
  0
DICTIONARY
  5
19
102
{ACAD_REACTORS
330
C
102
}
330
C
100
AcDbDictionary
281
     1
  0
ACDBDICTIONARYWDFLT
  5
E
102
{ACAD_REACTORS
330
C
102
}
330
C
100
AcDbDictionary
281
     1
  3
Normal
350
F
100
AcDbDictionaryWithDefault
340
F
  0
DICTIONARY
  5
43
102
{ACAD_REACTORS
330
C
102
}
330
C
100
AcDbDictionary
281
     1
  0
DICTIONARY
  5
2A
102
{ACAD_REACTORS
330
C
102
}
330
C
100
AcDbDictionary
281
     1
  3
2dWireframe
350
2F
  3
3D Hidden
350
31
  3
3dWireframe
350
30
  3
Basic
350
32
  3
Brighten
350
36
  3
ColorChange
350
3A
  3
Conceptual
350
34
  3
Dim
350
35
  3
Facepattern
350
39
  3
Flat
350
2B
  3
FlatWithEdges
350
2C
  3
Gouraud
350
2D
  3
GouraudWithEdges
350
2E
  3
Linepattern
350
38
  3
Realistic
350
33
  3
Thicken
350
37
  0
LAYOUT
  5
1E
102
{ACAD_REACTORS
330
1A
102
}
330
1A
100
AcDbPlotSettings
  1

  2
none_device
  4

  6

 40
0.0
 41
0.0
 42
0.0
 43
0.0
 44
0.0
 45
0.0
 46
0.0
 47
0.0
 48
0.0
 49
0.0
140
0.0
141
0.0
142
1.0
143
1.0
 70
   688
 72
     0
 73
     0
 74
     5
  7

 75
    16
147
1.0
148
0.0
149
0.0
100
AcDbLayout
  1
Layout1
 70
     1
 71
     1
 10
0.0
 20
0.0
 11
12.0
 21
9.0
 12
0.0
 22
0.0
 32
0.0
 14
1.000000000000000E+20
 24
1.000000000000000E+20
 34
1.000000000000000E+20
 15
-1.000000000000000E+20
 25
-1.000000000000000E+20
 35
-1.000000000000000E+20
146
0.0
 13
0.0
 23
0.0
 33
0.0
 16
1.0
 26
0.0
 36
0.0
 17
0.0
 27
1.0
 37
0.0
 76
     0
330
1B
  0
LAYOUT
  5
26
102
{ACAD_REACTORS
330
1A
102
}
330
1A
100
AcDbPlotSettings
  1

  2
none_device
  4

  6

 40
0.0
 41
0.0
 42
0.0
 43
0.0
 44
0.0
 45
0.0
 46
0.0
 47
0.0
 48
0.0
 49
0.0
140
0.0
141
0.0
142
1.0
143
1.0
 70
   688
 72
     0
 73
     0
 74
     5
  7

 75
    16
147
1.0
148
0.0
149
0.0
100
AcDbLayout
  1
Layout2
 70
     1
 71
     2
 10
0.0
 20
0.0
 11
0.0
 21
0.0
 12
0.0
 22
0.0
 32
0.0
 14
0.0
 24
0.0
 34
0.0
 15
0.0
 25
0.0
 35
0.0
146
0.0
 13
0.0
 23
0.0
 33
0.0
 16
1.0
 26
0.0
 36
0.0
 17
0.0
 27
1.0
 37
0.0
 76
     0
330
23
  0
LAYOUT
  5
22
102
{ACAD_REACTORS
330
1A
102
}
330
1A
100
AcDbPlotSettings
  1

  2
none_device
  4

  6

 40
0.0
 41
0.0
 42
0.0
 43
0.0
 44
0.0
 45
0.0
 46
0.0
 47
0.0
 48
0.0
 49
0.0
140
0.0
141
0.0
142
1.0
143
1.0
 70
  1712
 72
     0
 73
     0
 74
     0
  7

 75
     0
147
1.0
148
0.0
149
0.0
100
AcDbLayout
  1
Model
 70
     1
 71
     0
 10
0.0
 20
0.0
 11
12.0
 21
9.0
 12
0.0
 22
0.0
 32
0.0
 14
1.000000000000000E+20
 24
1.000000000000000E+20
 34
1.000000000000000E+20
 15
-1.000000000000000E+20
 25
-1.000000000000000E+20
 35
-1.000000000000000E+20
146
0.0
 13
0.0
 23
0.0
 33
0.0
 16
1.0
 26
0.0
 36
0.0
 17
0.0
 27
1.0
 37
0.0
 76
     0
330
1F
331
29
  0
MLINESTYLE
  5
18
102
{ACAD_REACTORS
330
17
102
}
330
17
100
AcDbMlineStyle
  2
Standard
 70
     0
  3

 62
   256
 51
90.0
 52
90.0
 71
     2
 49
0.5
 62
   256
  6
BYLAYER
 49
-0.5
 62
   256
  6
BYLAYER
  0
ACDBPLACEHOLDER
  5
F
102
{ACAD_REACTORS
330
E
102
}
330
E
  0
VISUALSTYLE
  5
2F
102
{ACAD_REACTORS
330
2A
102
}
330
2A
100
AcDbVisualStyle
  2
2dWireframe
 70
     4
 71
     0
 72
     2
 73
     0
 90
        0
 40
-0.6
 41
-30.0
 62
     5
 63
     7
 74
     1
 91
        4
 64
     7
 65
   257
 75
     1
175
     1
 42
1.0
 92
        0
 66
   257
 43
1.0
 76
     1
 77
     6
 78
     2
 67
     7
 79
     5
170
     0
171
     0
290
     0
174
     0
 93
        1
 44
0.0
173
     0
291
     0
 45
0.0
1001
ACAD
1000
AcDbSavedByObjectVersion
1070
     0
  0
VISUALSTYLE
  5
31
102
{ACAD_REACTORS
330
2A
102
}
330
2A
100
AcDbVisualStyle
  2
3D Hidden
 70
     6
 71
     1
 72
     2
 73
     2
 90
        0
 40
-0.6
 41
-30.0
 62
     5
 63
     7
 74
     2
 91
        2
 64
     7
 65
   257
 75
     2
175
     1
 42
40.0
 92
        0
 66
   257
 43
1.0
 76
     1
 77
     6
 78
     2
 67
     7
 79
     3
170
     0
171
     0
290
     0
174
     0
 93
        1
 44
0.0
173
     0
291
     0
 45
0.0
1001
ACAD
1000
AcDbSavedByObjectVersion
1070
     0
  0
VISUALSTYLE
  5
30
102
{ACAD_REACTORS
330
2A
102
}
330
2A
100
AcDbVisualStyle
  2
3dWireframe
 70
     5
 71
     0
 72
     2
 73
     0
 90
        0
 40
-0.6
 41
-30.0
 62
     5
 63
     7
 74
     1
 91
        4
 64
     7
 65
   257
 75
     1
175
     1
 42
1.0
 92
        0
 66
   257
 43
1.0
 76
     1
 77
     6
 78
     2
 67
     7
 79
     5
170
     0
171
     0
290
     0
174
     0
 93
        1
 44
0.0
173
     0
291
     0
 45
0.0
1001
ACAD
1000
AcDbSavedByObjectVersion
1070
     0
  0
VISUALSTYLE
  5
32
102
{ACAD_REACTORS
330
2A
102
}
330
2A
100
AcDbVisualStyle
  2
Basic
 70
     7
 71
     1
 72
     0
 73
     1
 90
        0
 40
-0.6
 41
-30.0
 62
     5
 63
     7
 74
     0
 91
        4
 64
     7
 65
   257
 75
     1
175
     1
 42
1.0
 92
        8
 66
     7
 43
1.0
 76
     1
 77
     6
 78
     2
 67
     7
 79
     5
170
     0
171
     0
290
     0
174
     0
 93
        1
 44
0.0
173
     0
291
     1
 45
0.0
1001
ACAD
1000
AcDbSavedByObjectVersion
1070
     0
  0
VISUALSTYLE
  5
36
102
{ACAD_REACTORS
330
2A
102
}
330
2A
100
AcDbVisualStyle
  2
Brighten
 70
    12
 71
     2
 72
     2
 73
     0
 90
        0
 40
-0.6
 41
-30.0
 62
     5
 63
     7
 74
     1
 91
        4
 64
     7
 65
   257
 75
     1
175
     1
 42
1.0
 92
        8
 66
     7
 43
1.0
 76
     1
 77
     6
 78
     2
 67
     7
 79
     5
170
     0
171
     0
290
     0
174
     0
 93
        1
 44
50.0
173
     0
291
     1
 45
0.0
1001
ACAD
1000
AcDbSavedByObjectVersion
1070
     0
  0
VISUALSTYLE
  5
3A
102
{ACAD_REACTORS
330
2A
102
}
330
2A
100
AcDbVisualStyle
  2
ColorChange
 70
    16
 71
     2
 72
     2
 73
     3
 90
        0
 40
-0.6
 41
-30.0
 62
     5
 63
     8
 74
     1
 91
        4
 64
     7
 65
   257
 75
     1
175
     1
 42
1.0
 92
        8
 66
     8
 43
1.0
 76
     1
 77
     6
 78
     2
 67
     7
 79
     5
170
     0
171
     0
290
     0
174
     0
 93
        1
 44
0.0
173
     0
291
     1
 45
0.0
1001
ACAD
1000
AcDbSavedByObjectVersion
1070
     0
  0
VISUALSTYLE
  5
34
102
{ACAD_REACTORS
330
2A
102
}
330
2A
100
AcDbVisualStyle
  2
Conceptual
 70
     9
 71
     3
 72
     2
 73
     0
 90
        0
 40
-0.6
 41
-30.0
 62
     5
 63
     7
 74
     2
 91
        2
 64
     7
 65
   257
 75
     1
175
     1
 42
40.0
 92
        8
 66
     7
 43
1.0
 76
     1
 77
     6
 78
     2
 67
     7
 79
     3
170
     0
171
     0
290
     0
174
     0
 93
        1
 44
0.0
173
     0
291
     0
 45
0.0
1001
ACAD
1000
AcDbSavedByObjectVersion
1070
     0
  0
VISUALSTYLE
  5
35
102
{ACAD_REACTORS
330
2A
102
}
330
2A
100
AcDbVisualStyle
  2
Dim
 70
    11
 71
     2
 72
     2
 73
     0
 90
        0
 40
-0.6
 41
-30.0
 62
     5
 63
     7
 74
     1
 91
        4
 64
     7
 65
   257
 75
     1
175
     1
 42
1.0
 92
        8
 66
     7
 43
1.0
 76
     1
 77
     6
 78
     2
 67
     7
 79
     5
170
     0
171
     0
290
     0
174
     0
 93
        1
 44
-50.0
173
     0
291
     1
 45
0.0
1001
ACAD
1000
AcDbSavedByObjectVersion
1070
     0
  0
VISUALSTYLE
  5
39
102
{ACAD_REACTORS
330
2A
102
}
330
2A
100
AcDbVisualStyle
  2
Facepattern
 70
    15
 71
     2
 72
     2
 73
     0
 90
        0
 40
-0.6
 41
-30.0
 62
     5
 63
     7
 74
     1
 91
        4
 64
     7
 65
   257
 75
     1
175
     1
 42
1.0
 92
        8
 66
     7
 43
1.0
 76
     1
 77
     6
 78
     2
 67
     7
 79
     5
170
     0
171
     0
290
     0
174
     0
 93
        1
 44
0.0
173
     0
291
     1
 45
0.0
1001
ACAD
1000
AcDbSavedByObjectVersion
1070
     0
  0
VISUALSTYLE
  5
2B
102
{ACAD_REACTORS
330
2A
102
}
330
2A
100
AcDbVisualStyle
  2
Flat
 70
     0
 71
     2
 72
     1
 73
     1
 90
        2
 40
-0.6
 41
30.0
 62
     5
 63
     7
 74
     0
 91
        4
 64
     7
 65
   257
 75
     1
175
     1
 42
1.0
 92
        8
 66
     7
 43
1.0
 76
     1
 77
     6
 78
     2
 67
     7
 79
     5
170
     0
171
     0
290
     0
174
     0
 93
       13
 44
0.0
173
     0
291
     1
 45
0.0
1001
ACAD
1000
AcDbSavedByObjectVersion
1070
     0
  0
VISUALSTYLE
  5
2C
102
{ACAD_REACTORS
330
2A
102
}
330
2A
100
AcDbVisualStyle
  2
FlatWithEdges
 70
     1
 71
     2
 72
     1
 73
     1
 90
        2
 40
-0.6
 41
30.0
 62
     5
 63
     7
 74
     1
 91
        4
 64
     7
 65
   257
 75
     1
175
     1
 42
1.0
 92
        0
 66
   257
 43
1.0
 76
     1
 77
     6
 78
     2
 67
     7
 79
     5
170
     0
171
     0
290
     0
174
     0
 93
       13
 44
0.0
173
     0
291
     1
 45
0.0
1001
ACAD
1000
AcDbSavedByObjectVersion
1070
     0
  0
VISUALSTYLE
  5
2D
102
{ACAD_REACTORS
330
2A
102
}
330
2A
100
AcDbVisualStyle
  2
Gouraud
 70
     2
 71
     2
 72
     2
 73
     1
 90
        2
 40
-0.6
 41
30.0
 62
     5
 63
     7
 74
     0
 91
        4
 64
     7
 65
   257
 75
     1
175
     1
 42
1.0
 92
        0
 66
     7
 43
1.0
 76
     1
 77
     6
 78
     2
 67
     7
 79
     5
170
     0
171
     0
290
     0
174
     0
 93
       13
 44
0.0
173
     0
291
     1
 45
0.0
1001
ACAD
1000
AcDbSavedByObjectVersion
1070
     0
  0
VISUALSTYLE
  5
2E
102
{ACAD_REACTORS
330
2A
102
}
330
2A
100
AcDbVisualStyle
  2
GouraudWithEdges
 70
     3
 71
     2
 72
     2
 73
     1
 90
        2
 40
-0.6
 41
30.0
 62
     5
 63
     7
 74
     1
 91
        4
 64
     7
 65
   257
 75
     1
175
     1
 42
1.0
 92
        0
 66
   257
 43
1.0
 76
     1
 77
     6
 78
     2
 67
     7
 79
     5
170
     0
171
     0
290
     0
174
     0
 93
       13
 44
0.0
173
     0
291
     1
 45
0.0
1001
ACAD
1000
AcDbSavedByObjectVersion
1070
     0
  0
VISUALSTYLE
  5
38
102
{ACAD_REACTORS
330
2A
102
}
330
2A
100
AcDbVisualStyle
  2
Linepattern
 70
    14
 71
     2
 72
     2
 73
     0
 90
        0
 40
-0.6
 41
-30.0
 62
     5
 63
     7
 74
     1
 91
        4
 64
     7
 65
   257
 75
     7
175
     7
 42
1.0
 92
        8
 66
     7
 43
1.0
 76
     1
 77
     6
 78
     2
 67
     7
 79
     5
170
     0
171
     0
290
     0
174
     0
 93
        1
 44
0.0
173
     0
291
     1
 45
0.0
1001
ACAD
1000
AcDbSavedByObjectVersion
1070
     0
  0
VISUALSTYLE
  5
33
102
{ACAD_REACTORS
330
2A
102
}
330
2A
100
AcDbVisualStyle
  2
Realistic
 70
     8
 71
     2
 72
     2
 73
     0
 90
        0
 40
-0.6
 41
-30.0
 62
     5
 63
     7
 74
     1
 91
        0
 64
     7
 65
   257
 75
     1
175
     1
 42
1.0
 92
        8
 66
     8
 43
1.0
 76
     1
 77
     6
 78
     2
 67
     7
 79
     5
170
     0
171
     0
290
     0
174
     0
 93
       13
 44
0.0
173
     0
291
     0
 45
0.0
1001
ACAD
1000
AcDbSavedByObjectVersion
1070
     0
  0
VISUALSTYLE
  5
37
102
{ACAD_REACTORS
330
2A
102
}
330
2A
100
AcDbVisualStyle
  2
Thicken
 70
    13
 71
     2
 72
     2
 73
     0
 90
        0
 40
-0.6
 41
-30.0
 62
     5
 63
     7
 74
     1
 91
        4
 64
     7
 65
   257
 75
     1
175
     1
 42
1.0
 92
       12
 66
     7
 43
1.0
 76
     1
 77
     6
 78
     2
 67
     7
 79
     5
170
     0
171
     0
290
     0
174
     0
 93
        1
 44
0.0
173
     0
291
     1
 45
0.0
1001
ACAD
1000
AcDbSavedByObjectVersion
1070
     0
  0
ENDSEC
  0
EOF
