  0
SECTION
  2
HEADER
  9
$ACADVER
  1
AC1015
  9
$ACADMAINTVER
 70
     6
  9
$DWGCODEPAGE
  3
ANSI_1252
  9
$INSBASE
 10
0.0
 20
0.0
 30
0.0
  9
$EXTMIN
 10
1.000000000000000E+20
 20
1.000000000000000E+20
 30
1.000000000000000E+20
  9
$EXTMAX
 10
-1.000000000000000E+20
 20
-1.000000000000000E+20
 30
-1.000000000000000E+20
  9
$LIMMIN
 10
0.0
 20
0.0
  9
$LIMMAX
 10
12.0
 20
9.0
  9
$ORTHOMODE
 70
     0
  9
$REGENMODE
 70
     1
  9
$FILLMODE
 70
     1
  9
$QTEXTMODE
 70
     0
  9
$MIRRTEXT
 70
     1
  9
$LTSCALE
 40
1.0
  9
$ATTMODE
 70
     1
  9
$TEXTSIZE
 40
0.2
  9
$TRACEWID
 40
0.05
  9
$TEXTSTYLE
  7
Standard
  9
$CLAYER
  8
0
  9
$CELTYPE
  6
ByLayer
  9
$CECOLOR
 62
   256
  9
$CELTSCALE
 40
1.0
  9
$DISPSILH
 70
     0
  9
$DIMSCALE
 40
1.0
  9
$DIMASZ
 40
0.18
  9
$DIMEXO
 40
0.0625
  9
$DIMDLI
 40
0.38
  9
$DIMRND
 40
0.0
  9
$DIMDLE
 40
0.0
  9
$DIMEXE
 40
0.18
  9
$DIMTP
 40
0.0
  9
$DIMTM
 40
0.0
  9
$DIMTXT
 40
0.18
  9
$DIMCEN
 40
0.09
  9
$DIMTSZ
 40
0.0
  9
$DIMTOL
 70
     0
  9
$DIMLIM
 70
     0
  9
$DIMTIH
 70
     1
  9
$DIMTOH
 70
     1
  9
$DIMSE1
 70
     0
  9
$DIMSE2
 70
     0
  9
$DIMTAD
 70
     0
  9
$DIMZIN
 70
     0
  9
$DIMBLK
  1

  9
$DIMASO
 70
     1
  9
$DIMSHO
 70
     1
  9
$DIMPOST
  1

  9
$DIMAPOST
  1

  9
$DIMALT
 70
     0
  9
$DIMALTD
 70
     2
  9
$DIMALTF
 40
25.4
  9
$DIMLFAC
 40
1.0
  9
$DIMTOFL
 70
     0
  9
$DIMTVP
 40
0.0
  9
$DIMTIX
 70
     0
  9
$DIMSOXD
 70
     0
  9
$DIMSAH
 70
     0
  9
$DIMBLK1
  1

  9
$DIMBLK2
  1

  9
$DIMSTYLE
  2
Standard
  9
$DIMCLRD
 70
     0
  9
$DIMCLRE
 70
     0
  9
$DIMCLRT
 70
     0
  9
$DIMTFAC
 40
1.0
  9
$DIMGAP
 40
0.09
  9
$DIMJUST
 70
     0
  9
$DIMSD1
 70
     0
  9
$DIMSD2
 70
     0
  9
$DIMTOLJ
 70
     1
  9
$DIMTZIN
 70
     0
  9
$DIMALTZ
 70
     0
  9
$DIMALTTZ
 70
     0
  9
$DIMUPT
 70
     0
  9
$DIMDEC
 70
     4
  9
$DIMTDEC
 70
     4
  9
$DIMALTU
 70
     2
  9
$DIMALTTD
 70
     2
  9
$DIMTXSTY
  7
Standard
  9
$DIMAUNIT
 70
     0
  9
$DIMADEC
 70
     0
  9
$DIMALTRND
 40
0.0
  9
$DIMAZIN
 70
     0
  9
$DIMDSEP
 70
    46
  9
$DIMATFIT
 70
     3
  9
$DIMFRAC
 70
     0
  9
$DIMLDRBLK
  1

  9
$DIMLUNIT
 70
     2
  9
$DIMLWD
 70
    -2
  9
$DIMLWE
 70
    -2
  9
$DIMTMOVE
 70
     0
  9
$LUNITS
 70
     2
  9
$LUPREC
 70
     4
  9
$SKETCHINC
 40
0.1
  9
$FILLETRAD
 40
0.5
  9
$AUNITS
 70
     0
  9
$AUPREC
 70
     0
  9
$MENU
  1
.
  9
$ELEVATION
 40
0.0
  9
$PELEVATION
 40
0.0
  9
$THICKNESS
 40
0.0
  9
$LIMCHECK
 70
     0
  9
$CHAMFERA
 40
0.5
  9
$CHAMFERB
 40
0.5
  9
$CHAMFERC
 40
1.0
  9
$CHAMFERD
 40
0.0
  9
$SKPOLY
 70
     0
  9
$TDCREATE
 40
2458829.712552639
  9
$TDUCREATE
 40
2458829.670885972
  9
$TDUPDATE
 40
2458829.71255265
  9
$TDUUPDATE
 40
2458829.670885984
  9
$TDINDWG
 40
0.0000000116
  9
$TDUSRTIMER
 40
0.0000000116
  9
$USRTIMER
 70
     1
  9
$ANGBASE
 50
0.0
  9
$ANGDIR
 70
     0
  9
$PDMODE
 70
     0
  9
$PDSIZE
 40
0.0
  9
$PLINEWID
 40
0.0
  9
$SPLFRAME
 70
     0
  9
$SPLINETYPE
 70
     6
  9
$SPLINESEGS
 70
     8
  9
$HANDSEED
  5
A5
  9
$SURFTAB1
 70
     6
  9
$SURFTAB2
 70
     6
  9
$SURFTYPE
 70
     6
  9
$SURFU
 70
     6
  9
$SURFV
 70
     6
  9
$UCSBASE
  2

  9
$UCSNAME
  2

  9
$UCSORG
 10
0.0
 20
0.0
 30
0.0
  9
$UCSXDIR
 10
1.0
 20
0.0
 30
0.0
  9
$UCSYDIR
 10
0.0
 20
1.0
 30
0.0
  9
$UCSORTHOREF
  2

  9
$UCSORTHOVIEW
 70
     0
  9
$UCSORGTOP
 10
0.0
 20
0.0
 30
0.0
  9
$UCSORGBOTTOM
 10
0.0
 20
0.0
 30
0.0
  9
$UCSORGLEFT
 10
0.0
 20
0.0
 30
0.0
  9
$UCSORGRIGHT
 10
0.0
 20
0.0
 30
0.0
  9
$UCSORGFRONT
 10
0.0
 20
0.0
 30
0.0
  9
$UCSORGBACK
 10
0.0
 20
0.0
 30
0.0
  9
$PUCSBASE
  2

  9
$PUCSNAME
  2

  9
$PUCSORG
 10
0.0
 20
0.0
 30
0.0
  9
$PUCSXDIR
 10
1.0
 20
0.0
 30
0.0
  9
$PUCSYDIR
 10
0.0
 20
1.0
 30
0.0
  9
$PUCSORTHOREF
  2

  9
$PUCSORTHOVIEW
 70
     0
  9
$PUCSORGTOP
 10
0.0
 20
0.0
 30
0.0
  9
$PUCSORGBOTTOM
 10
0.0
 20
0.0
 30
0.0
  9
$PUCSORGLEFT
 10
0.0
 20
0.0
 30
0.0
  9
$PUCSORGRIGHT
 10
0.0
 20
0.0
 30
0.0
  9
$PUCSORGFRONT
 10
0.0
 20
0.0
 30
0.0
  9
$PUCSORGBACK
 10
0.0
 20
0.0
 30
0.0
  9
$USERI1
 70
     0
  9
$USERI2
 70
     0
  9
$USERI3
 70
     0
  9
$USERI4
 70
     0
  9
$USERI5
 70
     0
  9
$USERR1
 40
0.0
  9
$USERR2
 40
0.0
  9
$USERR3
 40
0.0
  9
$USERR4
 40
0.0
  9
$USERR5
 40
0.0
  9
$WORLDVIEW
 70
     1
  9
$SHADEDGE
 70
     3
  9
$SHADEDIF
 70
    70
  9
$TILEMODE
 70
     1
  9
$MAXACTVP
 70
    64
  9
$PINSBASE
 10
0.0
 20
0.0
 30
0.0
  9
$PLIMCHECK
 70
     0
  9
$PEXTMIN
 10
1.000000000000000E+20
 20
1.000000000000000E+20
 30
1.000000000000000E+20
  9
$PEXTMAX
 10
-1.000000000000000E+20
 20
-1.000000000000000E+20
 30
-1.000000000000000E+20
  9
$PLIMMIN
 10
0.0
 20
0.0
  9
$PLIMMAX
 10
12.0
 20
9.0
  9
$UNITMODE
 70
     0
  9
$VISRETAIN
 70
     1
  9
$PLINEGEN
 70
     0
  9
$PSLTSCALE
 70
     1
  9
$TREEDEPTH
 70
  3020
  9
$CMLSTYLE
  2
Standard
  9
$CMLJUST
 70
     0
  9
$CMLSCALE
 40
1.0
  9
$PROXYGRAPHICS
 70
     1
  9
$MEASUREMENT
 70
     0
  9
$CELWEIGHT
370
    -1
  9
$ENDCAPS
280
     0
  9
$JOINSTYLE
280
     0
  9
$LWDISPLAY
290
     1
  9
$INSUNITS
 70
     1
  9
$HYPERLINKBASE
  1

  9
$STYLESHEET
  1

  9
$XEDIT
290
     1
  9
$CEPSNTYPE
380
     0
  9
$PSTYLEMODE
290
     1
  9
$FINGERPRINTGUID
  2
{2D849D31-73F3-4278-9ACF-6E7D699E49D2}
  9
$VERSIONGUID
  2
{FAEB1C32-E019-11D5-929B-00C0DF256EC4}
  9
$EXTNAMES
290
     1
  9
$PSVPSCALE
 40
0.0
  9
$OLESTARTUP
290
     0
  0
ENDSEC
  0
SECTION
  2
CLASSES
  0
CLASS
  1
ACDBDICTIONARYWDFLT
  2
AcDbDictionaryWithDefault
  3
ObjectDBX Classes
 90
        0
280
     0
281
     0
  0
CLASS
  1
VISUALSTYLE
  2
AcDbVisualStyle
  3
ObjectDBX Classes
 90
     4095
280
     0
281
     0
  0
CLASS
  1
ACDBPLACEHOLDER
  2
AcDbPlaceHolder
  3
ObjectDBX Classes
 90
        0
280
     0
281
     0
  0
CLASS
  1
LAYOUT
  2
AcDbLayout
  3
ObjectDBX Classes
 90
        0
280
     0
281
     0
  0
ENDSEC
  0
SECTION
  2
TABLES
  0
TABLE
  2
VPORT
  5
8
330
0
100
AcDbSymbolTable
 70
     1
  0
VPORT
  5
29
330
8
100
AcDbSymbolTableRecord
100
AcDbViewportTableRecord
  2
*Active
 70
     0
 10
0.0
 20
0.0
 11
1.0
 21
1.0
 12
0.0
 22
0.0
 13
0.0
 23
0.0
 14
0.5
 24
0.5
 15
0.5
 25
0.5
 16
0.0
 26
0.0
 36
1.0
 17
221.5444443890584
 27
-191.5583332854438
 37
0.0
 40
383.1166665708875
 41
1.156537753222836
 42
50.0
 43
0.0
 44
0.0
 50
0.0
 51
0.0
 71
     0
 72
   100
 73
     1
 74
     3
 75
     0
 76
     0
 77
     0
 78
     0
281
     0
 65
     1
110
0.0
120
0.0
130
0.0
111
1.0
121
0.0
131
0.0
112
0.0
122
1.0
132
0.0
 79
     0
146
0.0
  0
ENDTAB
  0
TABLE
  2
LTYPE
  5
5
330
0
100
AcDbSymbolTable
 70
     1
  0
LTYPE
  5
14
330
5
100
AcDbSymbolTableRecord
100
AcDbLinetypeTableRecord
  2
ByBlock
 70
     0
  3

 72
    65
 73
     0
 40
0.0
  0
LTYPE
  5
15
330
5
100
AcDbSymbolTableRecord
100
AcDbLinetypeTableRecord
  2
ByLayer
 70
     0
  3

 72
    65
 73
     0
 40
0.0
  0
LTYPE
  5
16
330
5
100
AcDbSymbolTableRecord
100
AcDbLinetypeTableRecord
  2
Continuous
 70
     0
  3
Solid line
 72
    65
 73
     0
 40
0.0
  0
ENDTAB
  0
TABLE
  2
LAYER
  5
2
330
0
100
AcDbSymbolTable
 70
     8
  0
LAYER
  5
10
330
2
100
AcDbSymbolTableRecord
100
AcDbLayerTableRecord
  2
0
 70
     0
 62
     7
  6
Continuous
370
    -3
390
F
  0
LAYER
  5
3B
330
2
100
AcDbSymbolTableRecord
100
AcDbLayerTableRecord
  2
Plexiglass_01_3mmThick
 70
     1
 62
     7
  6
Continuous
370
    -3
390
F
  0
LAYER
  5
3C
330
2
100
AcDbSymbolTableRecord
100
AcDbLayerTableRecord
  2
InnerCase_DraftForCAO
 70
     1
 62
     7
  6
Continuous
370
    -3
390
F
  0
LAYER
  5
3D
330
2
100
AcDbSymbolTableRecord
100
AcDbLayerTableRecord
  2
Wood_01_SensorSupport_3mmThick
 70
     0
 62
     7
  6
Continuous
370
    -3
390
F
  0
LAYER
  5
A0
330
2
100
AcDbSymbolTableRecord
100
AcDbLayerTableRecord
  2
Plexyglass_02_12mmThick
 70
     1
 62
     7
  6
Continuous
370
    -3
390
F
  0
LAYER
  5
A1
330
2
100
AcDbSymbolTableRecord
100
AcDbLayerTableRecord
  2
Wood_02_VelostatGNDPattern
 70
     1
 62
     7
  6
Continuous
370
    -3
390
F
  0
LAYER
  5
A2
330
2
100
AcDbSymbolTableRecord
100
AcDbLayerTableRecord
  2
Guid_3mmThick
 70
     1
 62
     7
  6
Continuous
370
    -3
390
F
  0
LAYER
  5
A3
330
2
100
AcDbSymbolTableRecord
100
AcDbLayerTableRecord
  2
Holes
 70
     1
 62
     7
  6
Continuous
370
    -3
390
F
  0
ENDTAB
  0
TABLE
  2
STYLE
  5
3
330
0
100
AcDbSymbolTable
 70
     1
  0
STYLE
  5
11
330
3
100
AcDbSymbolTableRecord
100
AcDbTextStyleTableRecord
  2
Standard
 70
     0
 40
0.0
 41
1.0
 50
0.0
 71
     0
 42
0.2
  3
txt
  4

  0
ENDTAB
  0
TABLE
  2
VIEW
  5
6
330
0
100
AcDbSymbolTable
 70
     0
  0
ENDTAB
  0
TABLE
  2
UCS
  5
7
330
0
100
AcDbSymbolTable
 70
     0
  0
ENDTAB
  0
TABLE
  2
APPID
  5
9
330
0
100
AcDbSymbolTable
 70
     1
  0
APPID
  5
12
330
9
100
AcDbSymbolTableRecord
100
AcDbRegAppTableRecord
  2
ACAD
 70
     0
  0
ENDTAB
  0
TABLE
  2
DIMSTYLE
  5
A
330
0
100
AcDbSymbolTable
 70
     1
100
AcDbDimStyleTable
  0
DIMSTYLE
105
27
330
A
100
AcDbSymbolTableRecord
100
AcDbDimStyleTableRecord
  2
Standard
 70
     0
340
11
  0
ENDTAB
  0
TABLE
  2
BLOCK_RECORD
  5
1
330
0
100
AcDbSymbolTable
 70
     2
  0
BLOCK_RECORD
  5
1F
330
1
100
AcDbSymbolTableRecord
100
AcDbBlockTableRecord
  2
*Model_Space
340
22
  0
BLOCK_RECORD
  5
1B
330
1
100
AcDbSymbolTableRecord
100
AcDbBlockTableRecord
  2
*Paper_Space
340
1E
  0
BLOCK_RECORD
  5
23
330
1
100
AcDbSymbolTableRecord
100
AcDbBlockTableRecord
  2
*Paper_Space0
340
26
  0
BLOCK_RECORD
  5
3E
330
1
100
AcDbSymbolTableRecord
100
AcDbBlockTableRecord
  2
block 2
340
0
102
{BLKREFS
331
3F
102
}
  0
ENDTAB
  0
ENDSEC
  0
SECTION
  2
BLOCKS
  0
BLOCK
  5
20
330
1F
100
AcDbEntity
  8
0
100
AcDbBlockBegin
  2
*Model_Space
 70
     0
 71
     0
 10
0.0
 20
0.0
 30
0.0
  3
*Model_Space
  1

  0
ENDBLK
  5
21
330
1F
100
AcDbEntity
  8
0
100
AcDbBlockEnd
  0
BLOCK
  5
1C
330
1B
100
AcDbEntity
 67
     1
  8
0
100
AcDbBlockBegin
  2
*Paper_Space
 70
     0
 71
     0
 10
0.0
 20
0.0
 30
0.0
  3
*Paper_Space
  1

  0
ENDBLK
  5
1D
330
1B
100
AcDbEntity
 67
     1
  8
0
100
AcDbBlockEnd
  0
BLOCK
  5
24
330
23
100
AcDbEntity
  8
0
100
AcDbBlockBegin
  2
*Paper_Space0
 70
     0
 71
     0
 10
0.0
 20
0.0
 30
0.0
  3
*Paper_Space0
  1

  0
ENDBLK
  5
25
330
23
100
AcDbEntity
  8
0
100
AcDbBlockEnd
  0
BLOCK
  5
40
330
3E
100
AcDbEntity
  8
0
100
AcDbBlockBegin
  2
block 2
 70
     0
 71
     0
 10
0.0
 20
0.0
 30
0.0
  3
block 2
  1

  0
SPLINE
  5
42
330
3E
100
AcDbEntity
  8
Wood_01_SensorSupport_3mmThick
370
     0
100
AcDbSpline
210
0.0
220
0.0
230
1.0
 70
    11
 71
     3
 72
    26
 73
    22
 74
     0
 42
0.0000000001
 43
0.0000000001
 40
0.0
 40
0.0
 40
0.0
 40
0.0
 40
1.0
 40
1.0
 40
1.0
 40
2.0
 40
2.0
 40
2.0
 40
3.0
 40
3.0
 40
3.0
 40
4.0
 40
4.0
 40
4.0
 40
5.0
 40
5.0
 40
5.0
 40
6.0
 40
6.0
 40
6.0
 40
7.0
 40
7.0
 40
7.0
 40
7.0
 10
282.1932833495906
 20
-271.0497774930014
 30
0.0
 10
282.6714626029433
 20
-270.5853786215898
 30
0.0
 10
283.1448187226166
 20
-270.1158121069502
 30
0.0
 10
283.6133517086105
 20
-269.6407334395343
 30
0.0
 10
283.6133517086105
 20
-269.6407334395343
 30
0.0
 10
273.7214490418127
 20
-259.7488307727364
 30
0.0
 10
273.7214490418127
 20
-259.7488307727364
 30
0.0
 10
273.5722764073014
 20
-259.9007594836359
 30
0.0
 10
273.4279269064694
 20
-260.0571668186663
 30
0.0
 10
273.2777207433125
 20
-260.2077174913717
 30
0.0
 10
272.9573268631843
 20
-260.5291449001455
 30
0.0
 10
272.6379665117016
 20
-260.852294856662
 30
0.0
 10
272.312060478797
 20
-261.1675210935623
 30
0.0
 10
272.312060478797
 20
-261.1675210935623
 30
0.0
 10
273.2312119542617
 20
-262.086672569027
 30
0.0
 10
273.2312119542617
 20
-262.086672569027
 30
0.0
 10
273.2312119542617
 20
-262.086672569027
 30
0.0
 10
273.2308674447131
 20
-262.0870170785755
 30
0.0
 10
273.2308674447131
 20
-262.0870170785755
 30
0.0
 10
273.2308674447131
 20
-262.0870170785755
 30
0.0
 10
282.1932833495906
 20
-271.0497774930014
 30
0.0
 10
282.1932833495906
 20
-271.0497774930014
 30
0.0
  0
HATCH
  5
43
330
3E
100
AcDbEntity
  8
Wood_01_SensorSupport_3mmThick
 62
     7
100
AcDbHatch
 10
0.0
 20
0.0
 30
0.0
210
0.0
220
0.0
230
1.0
  2
SOLID
 70
     1
 71
     0
 91
        1
 92
        1
 93
        1
 72
     4
 94
        3
 73
     0
 74
     1
 95
       26
 96
       22
 40
0.0
 40
0.0
 40
0.0
 40
0.0
 40
1.0
 40
1.0
 40
1.0
 40
2.0
 40
2.0
 40
2.0
 40
3.0
 40
3.0
 40
3.0
 40
4.0
 40
4.0
 40
4.0
 40
5.0
 40
5.0
 40
5.0
 40
6.0
 40
6.0
 40
6.0
 40
7.0
 40
7.0
 40
7.0
 40
7.0
 10
282.1932833495906
 20
-271.0497774930014
 10
282.6714626029433
 20
-270.5853786215898
 10
283.1448187226166
 20
-270.1158121069502
 10
283.6133517086105
 20
-269.6407334395343
 10
283.6133517086105
 20
-269.6407334395343
 10
273.7214490418127
 20
-259.7488307727364
 10
273.7214490418127
 20
-259.7488307727364
 10
273.5722764073014
 20
-259.9007594836359
 10
273.4279269064694
 20
-260.0571668186663
 10
273.2777207433125
 20
-260.2077174913717
 10
272.9573268631843
 20
-260.5291449001455
 10
272.6379665117016
 20
-260.852294856662
 10
272.312060478797
 20
-261.1675210935623
 10
272.312060478797
 20
-261.1675210935623
 10
273.2312119542617
 20
-262.086672569027
 10
273.2312119542617
 20
-262.086672569027
 10
273.2312119542617
 20
-262.086672569027
 10
273.2308674447131
 20
-262.0870170785755
 10
273.2308674447131
 20
-262.0870170785755
 10
273.2308674447131
 20
-262.0870170785755
 10
282.1932833495906
 20
-271.0497774930014
 10
282.1932833495906
 20
-271.0497774930014
 97
        0
 75
     2
 76
     1
 98
        0
  0
SPLINE
  5
44
330
3E
100
AcDbEntity
  8
Wood_01_SensorSupport_3mmThick
370
     0
100
AcDbSpline
210
0.0
220
0.0
230
1.0
 70
    11
 71
     3
 72
    32
 73
    28
 74
     0
 42
0.0000000001
 43
0.0000000001
 40
0.0
 40
0.0
 40
0.0
 40
0.0
 40
1.0
 40
1.0
 40
1.0
 40
2.0
 40
2.0
 40
2.0
 40
3.0
 40
3.0
 40
3.0
 40
4.0
 40
4.0
 40
4.0
 40
5.0
 40
5.0
 40
5.0
 40
6.0
 40
6.0
 40
6.0
 40
7.0
 40
7.0
 40
7.0
 40
8.0
 40
8.0
 40
8.0
 40
9.0
 40
9.0
 40
9.0
 40
9.0
 10
333.4580267178508
 20
-293.4401420707372
 30
0.0
 10
333.4604382846904
 20
-293.4391085420916
 30
0.0
 10
333.4621608324331
 20
-293.4380750134461
 30
0.0
 10
333.4642278897242
 20
-293.4370414848005
 30
0.0
 10
333.7498263054514
 20
-293.2885578693862
 30
0.0
 10
334.0323241352419
 20
-293.1345621011955
 30
0.0
 10
334.3130994172898
 20
-292.9771212375196
 30
0.0
 10
334.3341144997498
 20
-292.9654079128698
 30
0.0
 10
334.3547850726613
 20
-292.9536945882199
 30
0.0
 10
334.3758001551213
 20
-292.9416367540215
 30
0.0
 10
334.6531303416839
 20
-292.7855739285397
 30
0.0
 10
334.9259819041158
 20
-292.6202093452478
 30
0.0
 10
335.1991779760961
 20
-292.4551892715043
 30
0.0
 10
335.1991779760961
 20
-292.4551892715043
 30
0.0
 10
328.2056341410389
 20
-280.3422335453658
 30
0.0
 10
328.2056341410389
 20
-280.3422335453658
 30
0.0
 10
327.6396049528124
 20
-280.6974228898951
 30
0.0
 10
327.0539387203199
 20
-281.0185057891204
 30
0.0
 10
326.4517360294982
 20
-281.3044487143961
 30
0.0
 10
326.4517360294982
 20
-281.3044487143961
 30
0.0
 10
327.1032035857589
 20
-282.433061995364
 30
0.0
 10
327.1032035857589
 20
-282.433061995364
 30
0.0
 10
327.1032035857589
 20
-282.433061995364
 30
0.0
 10
327.1032035857589
 20
-282.433061995364
 30
0.0
 10
327.1032035857589
 20
-282.433061995364
 30
0.0
 10
327.1032035857589
 20
-282.433061995364
 30
0.0
 10
333.4580267178508
 20
-293.4401420707372
 30
0.0
 10
333.4580267178508
 20
-293.4401420707372
 30
0.0
  0
HATCH
  5
45
330
3E
100
AcDbEntity
  8
Wood_01_SensorSupport_3mmThick
 62
     7
100
AcDbHatch
 10
0.0
 20
0.0
 30
0.0
210
0.0
220
0.0
230
1.0
  2
SOLID
 70
     1
 71
     0
 91
        1
 92
        1
 93
        1
 72
     4
 94
        3
 73
     0
 74
     1
 95
       32
 96
       28
 40
0.0
 40
0.0
 40
0.0
 40
0.0
 40
1.0
 40
1.0
 40
1.0
 40
2.0
 40
2.0
 40
2.0
 40
3.0
 40
3.0
 40
3.0
 40
4.0
 40
4.0
 40
4.0
 40
5.0
 40
5.0
 40
5.0
 40
6.0
 40
6.0
 40
6.0
 40
7.0
 40
7.0
 40
7.0
 40
8.0
 40
8.0
 40
8.0
 40
9.0
 40
9.0
 40
9.0
 40
9.0
 10
333.4580267178508
 20
-293.4401420707372
 10
333.4604382846904
 20
-293.4391085420916
 10
333.4621608324331
 20
-293.4380750134461
 10
333.4642278897242
 20
-293.4370414848005
 10
333.7498263054514
 20
-293.2885578693862
 10
334.0323241352419
 20
-293.1345621011955
 10
334.3130994172898
 20
-292.9771212375196
 10
334.3341144997498
 20
-292.9654079128698
 10
334.3547850726613
 20
-292.9536945882199
 10
334.3758001551213
 20
-292.9416367540215
 10
334.6531303416839
 20
-292.7855739285397
 10
334.9259819041158
 20
-292.6202093452478
 10
335.1991779760961
 20
-292.4551892715043
 10
335.1991779760961
 20
-292.4551892715043
 10
328.2056341410389
 20
-280.3422335453658
 10
328.2056341410389
 20
-280.3422335453658
 10
327.6396049528124
 20
-280.6974228898951
 10
327.0539387203199
 20
-281.0185057891204
 10
326.4517360294982
 20
-281.3044487143961
 10
326.4517360294982
 20
-281.3044487143961
 10
327.1032035857589
 20
-282.433061995364
 10
327.1032035857589
 20
-282.433061995364
 10
327.1032035857589
 20
-282.433061995364
 10
327.1032035857589
 20
-282.433061995364
 10
327.1032035857589
 20
-282.433061995364
 10
327.1032035857589
 20
-282.433061995364
 10
333.4580267178508
 20
-293.4401420707372
 10
333.4580267178508
 20
-293.4401420707372
 97
        0
 75
     2
 76
     1
 98
        0
  0
SPLINE
  5
46
330
3E
100
AcDbEntity
  8
Wood_01_SensorSupport_3mmThick
370
     0
100
AcDbSpline
210
0.0
220
0.0
230
1.0
 70
    11
 71
     3
 72
    23
 73
    19
 74
     0
 42
0.0000000001
 43
0.0000000001
 40
0.0
 40
0.0
 40
0.0
 40
0.0
 40
1.0
 40
1.0
 40
1.0
 40
2.0
 40
2.0
 40
2.0
 40
3.0
 40
3.0
 40
3.0
 40
4.0
 40
4.0
 40
4.0
 40
5.0
 40
5.0
 40
5.0
 40
6.0
 40
6.0
 40
6.0
 40
6.0
 10
237.9368977269741
 20
-130.3682698241788
 30
0.0
 10
237.9368977269741
 20
-130.3682698241788
 30
0.0
 10
237.9368977269741
 20
-130.3682698241788
 30
0.0
 10
237.9368977269741
 20
-130.3682698241788
 30
0.0
 10
237.9368977269741
 20
-130.3682698241788
 30
0.0
 10
237.6006564076137
 20
-131.6243516381009
 30
0.0
 10
237.6006564076137
 20
-131.6243516381009
 30
0.0
 10
238.2471285754209
 20
-131.787821418876
 30
0.0
 10
238.8913614311626
 20
-131.9597316835899
 30
0.0
 10
239.5330104652904
 20
-132.1400824322428
 30
0.0
 10
239.5330104652904
 20
-132.1400824322428
 30
0.0
 10
243.1541503298365
 20
-118.6260063722532
 30
0.0
 10
243.1541503298365
 20
-118.6260063722532
 30
0.0
 10
242.5119845313859
 20
-118.4468614070202
 30
0.0
 10
241.8670626565471
 20
-118.2770181995974
 30
0.0
 10
241.2209349982885
 20
-118.1119981258539
 30
0.0
 10
241.2209349982885
 20
-118.1119981258539
 30
0.0
 10
237.9368977269741
 20
-130.3682698241788
 30
0.0
 10
237.9368977269741
 20
-130.3682698241788
 30
0.0
  0
HATCH
  5
47
330
3E
100
AcDbEntity
  8
Wood_01_SensorSupport_3mmThick
 62
     7
100
AcDbHatch
 10
0.0
 20
0.0
 30
0.0
210
0.0
220
0.0
230
1.0
  2
SOLID
 70
     1
 71
     0
 91
        1
 92
        1
 93
        1
 72
     4
 94
        3
 73
     0
 74
     1
 95
       23
 96
       19
 40
0.0
 40
0.0
 40
0.0
 40
0.0
 40
1.0
 40
1.0
 40
1.0
 40
2.0
 40
2.0
 40
2.0
 40
3.0
 40
3.0
 40
3.0
 40
4.0
 40
4.0
 40
4.0
 40
5.0
 40
5.0
 40
5.0
 40
6.0
 40
6.0
 40
6.0
 40
6.0
 10
237.9368977269741
 20
-130.3682698241788
 10
237.9368977269741
 20
-130.3682698241788
 10
237.9368977269741
 20
-130.3682698241788
 10
237.9368977269741
 20
-130.3682698241788
 10
237.9368977269741
 20
-130.3682698241788
 10
237.6006564076137
 20
-131.6243516381009
 10
237.6006564076137
 20
-131.6243516381009
 10
238.2471285754209
 20
-131.787821418876
 10
238.8913614311626
 20
-131.9597316835899
 10
239.5330104652904
 20
-132.1400824322428
 10
239.5330104652904
 20
-132.1400824322428
 10
243.1541503298365
 20
-118.6260063722532
 10
243.1541503298365
 20
-118.6260063722532
 10
242.5119845313859
 20
-118.4468614070202
 10
241.8670626565471
 20
-118.2770181995974
 10
241.2209349982885
 20
-118.1119981258539
 10
241.2209349982885
 20
-118.1119981258539
 10
237.9368977269741
 20
-130.3682698241788
 10
237.9368977269741
 20
-130.3682698241788
 97
        0
 75
     2
 76
     1
 98
        0
  0
SPLINE
  5
48
330
3E
100
AcDbEntity
  8
Wood_01_SensorSupport_3mmThick
370
     0
100
AcDbSpline
210
0.0
220
0.0
230
1.0
 70
    11
 71
     3
 72
    29
 73
    25
 74
     0
 42
0.0000000001
 43
0.0000000001
 40
0.0
 40
0.0
 40
0.0
 40
0.0
 40
1.0
 40
1.0
 40
1.0
 40
2.0
 40
2.0
 40
2.0
 40
3.0
 40
3.0
 40
3.0
 40
4.0
 40
4.0
 40
4.0
 40
5.0
 40
5.0
 40
5.0
 40
6.0
 40
6.0
 40
6.0
 40
7.0
 40
7.0
 40
7.0
 40
8.0
 40
8.0
 40
8.0
 40
8.0
 10
315.2999619437444
 20
-282.5267685925627
 30
0.0
 10
315.2999619437444
 20
-282.5267685925627
 30
0.0
 10
315.0739636799121
 20
-283.8086886226242
 30
0.0
 10
315.0739636799121
 20
-283.8086886226242
 30
0.0
 10
315.0739636799121
 20
-283.8086886226242
 30
0.0
 10
315.0736191703635
 20
-283.8083441130757
 30
0.0
 10
315.0736191703635
 20
-283.8083441130757
 30
0.0
 10
315.0736191703635
 20
-283.8083441130757
 30
0.0
 10
312.8697915884492
 20
-296.3074950431106
 30
0.0
 10
312.8697915884492
 20
-296.3074950431106
 30
0.0
 10
313.1894964494804
 20
-296.3729518573304
 30
0.0
 10
313.5088568009631
 20
-296.4394422001957
 30
0.0
 10
313.8320067574795
 20
-296.4952527470568
 30
0.0
 10
313.8495767444543
 20
-296.4980088234449
 30
0.0
 10
313.8668022218806
 20
-296.5007648998331
 30
0.0
 10
313.8843722088553
 20
-296.5038654857699
 30
0.0
 10
314.2013209934983
 20
-296.5579534848883
 30
0.0
 10
314.5199923258839
 20
-296.6065293312303
 30
0.0
 10
314.8403862060121
 20
-296.65097106299
 30
0.0
 10
314.8403862060121
 20
-296.65097106299
 30
0.0
 10
317.27227910905
 20
-282.860942854632
 30
0.0
 10
317.27227910905
 20
-282.860942854632
 30
0.0
 10
316.6022080371689
 20
-282.7885958494418
 30
0.0
 10
315.9448838185833
 20
-282.67456318888
 30
0.0
 10
315.2999619437444
 20
-282.5267685925627
 30
0.0
  0
HATCH
  5
49
330
3E
100
AcDbEntity
  8
Wood_01_SensorSupport_3mmThick
 62
     7
100
AcDbHatch
 10
0.0
 20
0.0
 30
0.0
210
0.0
220
0.0
230
1.0
  2
SOLID
 70
     1
 71
     0
 91
        1
 92
        1
 93
        1
 72
     4
 94
        3
 73
     0
 74
     1
 95
       29
 96
       25
 40
0.0
 40
0.0
 40
0.0
 40
0.0
 40
1.0
 40
1.0
 40
1.0
 40
2.0
 40
2.0
 40
2.0
 40
3.0
 40
3.0
 40
3.0
 40
4.0
 40
4.0
 40
4.0
 40
5.0
 40
5.0
 40
5.0
 40
6.0
 40
6.0
 40
6.0
 40
7.0
 40
7.0
 40
7.0
 40
8.0
 40
8.0
 40
8.0
 40
8.0
 10
315.2999619437444
 20
-282.5267685925627
 10
315.2999619437444
 20
-282.5267685925627
 10
315.0739636799121
 20
-283.8086886226242
 10
315.0739636799121
 20
-283.8086886226242
 10
315.0739636799121
 20
-283.8086886226242
 10
315.0736191703635
 20
-283.8083441130757
 10
315.0736191703635
 20
-283.8083441130757
 10
315.0736191703635
 20
-283.8083441130757
 10
312.8697915884492
 20
-296.3074950431106
 10
312.8697915884492
 20
-296.3074950431106
 10
313.1894964494804
 20
-296.3729518573304
 10
313.5088568009631
 20
-296.4394422001957
 10
313.8320067574795
 20
-296.4952527470568
 10
313.8495767444543
 20
-296.4980088234449
 10
313.8668022218806
 20
-296.5007648998331
 10
313.8843722088553
 20
-296.5038654857699
 10
314.2013209934983
 20
-296.5579534848883
 10
314.5199923258839
 20
-296.6065293312303
 10
314.8403862060121
 20
-296.65097106299
 10
314.8403862060121
 20
-296.65097106299
 10
317.27227910905
 20
-282.860942854632
 10
317.27227910905
 20
-282.860942854632
 10
316.6022080371689
 20
-282.7885958494418
 10
315.9448838185833
 20
-282.67456318888
 10
315.2999619437444
 20
-282.5267685925627
 97
        0
 75
     2
 76
     1
 98
        0
  0
SPLINE
  5
4A
330
3E
100
AcDbEntity
  8
Wood_01_SensorSupport_3mmThick
370
     0
100
AcDbSpline
210
0.0
220
0.0
230
1.0
 70
    11
 71
     3
 72
    41
 73
    37
 74
     0
 42
0.0000000001
 43
0.0000000001
 40
0.0
 40
0.0
 40
0.0
 40
0.0
 40
1.0
 40
1.0
 40
1.0
 40
2.0
 40
2.0
 40
2.0
 40
3.0
 40
3.0
 40
3.0
 40
4.0
 40
4.0
 40
4.0
 40
5.0
 40
5.0
 40
5.0
 40
6.0
 40
6.0
 40
6.0
 40
7.0
 40
7.0
 40
7.0
 40
8.0
 40
8.0
 40
8.0
 40
9.0
 40
9.0
 40
9.0
 40
10.0
 40
10.0
 40
10.0
 40
11.0
 40
11.0
 40
11.0
 40
12.0
 40
12.0
 40
12.0
 40
12.0
 10
263.2321668178726
 20
-126.9455674595831
 30
0.0
 10
263.231822308324
 20
-126.9453952048088
 30
0.0
 10
263.2311332892269
 20
-126.9450506952603
 30
0.0
 10
263.2307887796784
 20
-126.944878440486
 30
0.0
 10
263.2307887796784
 20
-126.944878440486
 30
0.0
 10
263.2307887796784
 20
-126.944878440486
 30
0.0
 10
263.2307887796784
 20
-126.9447061857118
 30
0.0
 10
263.2307887796784
 20
-126.9447061857118
 30
0.0
 10
256.8869899531394
 20
-137.9326659811418
 30
0.0
 10
256.8869899531394
 20
-137.9326659811418
 30
0.0
 10
256.8869899531394
 20
-137.9326659811418
 30
0.0
 10
256.8869899531394
 20
-137.9326659811418
 30
0.0
 10
256.8869899531394
 20
-137.9326659811418
 30
0.0
 10
256.8869899531394
 20
-137.9326659811418
 30
0.0
 10
256.3144150834909
 20
-138.9245089713453
 30
0.0
 10
256.3144150834909
 20
-138.9245089713453
 30
0.0
 10
256.3144150834909
 20
-138.9245089713453
 30
0.0
 10
256.2365559255242
 20
-139.05886769527
 30
0.0
 10
256.2365559255242
 20
-139.05886769527
 30
0.0
 10
256.8177435338858
 20
-139.3851182377232
 30
0.0
 10
257.3951415372137
 20
-139.7182589711468
 30
0.0
 10
257.9684054259593
 20
-140.0600124432836
 30
0.0
 10
257.9684054259593
 20
-140.0600124432836
 30
0.0
 10
258.6184949440259
 20
-138.934155238704
 30
0.0
 10
258.6184949440259
 20
-138.934155238704
 30
0.0
 10
258.6184949440259
 20
-138.934155238704
 30
0.0
 10
258.6184949440259
 20
-138.934155238704
 30
0.0
 10
258.6184949440259
 20
-138.934155238704
 30
0.0
 10
258.6184949440259
 20
-138.934155238704
 30
0.0
 10
264.9616047514679
 20
-127.9470567171452
 30
0.0
 10
264.9616047514679
 20
-127.9470567171452
 30
0.0
 10
264.9612602419194
 20
-127.9467122075967
 30
0.0
 10
264.9605712228224
 20
-127.9465399528224
 30
0.0
 10
264.9602267132739
 20
-127.9461954432739
 30
0.0
 10
264.3876518436253
 20
-127.606336773654
 30
0.0
 10
263.8116318784915
 20
-127.272334766359
 30
0.0
 10
263.2321668178726
 20
-126.9455674595831
 30
0.0
  0
HATCH
  5
4B
330
3E
100
AcDbEntity
  8
Wood_01_SensorSupport_3mmThick
 62
     7
100
AcDbHatch
 10
0.0
 20
0.0
 30
0.0
210
0.0
220
0.0
230
1.0
  2
SOLID
 70
     1
 71
     0
 91
        1
 92
        1
 93
        1
 72
     4
 94
        3
 73
     0
 74
     1
 95
       41
 96
       37
 40
0.0
 40
0.0
 40
0.0
 40
0.0
 40
1.0
 40
1.0
 40
1.0
 40
2.0
 40
2.0
 40
2.0
 40
3.0
 40
3.0
 40
3.0
 40
4.0
 40
4.0
 40
4.0
 40
5.0
 40
5.0
 40
5.0
 40
6.0
 40
6.0
 40
6.0
 40
7.0
 40
7.0
 40
7.0
 40
8.0
 40
8.0
 40
8.0
 40
9.0
 40
9.0
 40
9.0
 40
10.0
 40
10.0
 40
10.0
 40
11.0
 40
11.0
 40
11.0
 40
12.0
 40
12.0
 40
12.0
 40
12.0
 10
263.2321668178726
 20
-126.9455674595831
 10
263.231822308324
 20
-126.9453952048088
 10
263.2311332892269
 20
-126.9450506952603
 10
263.2307887796784
 20
-126.944878440486
 10
263.2307887796784
 20
-126.944878440486
 10
263.2307887796784
 20
-126.944878440486
 10
263.2307887796784
 20
-126.9447061857118
 10
263.2307887796784
 20
-126.9447061857118
 10
256.8869899531394
 20
-137.9326659811418
 10
256.8869899531394
 20
-137.9326659811418
 10
256.8869899531394
 20
-137.9326659811418
 10
256.8869899531394
 20
-137.9326659811418
 10
256.8869899531394
 20
-137.9326659811418
 10
256.8869899531394
 20
-137.9326659811418
 10
256.3144150834909
 20
-138.9245089713453
 10
256.3144150834909
 20
-138.9245089713453
 10
256.3144150834909
 20
-138.9245089713453
 10
256.2365559255242
 20
-139.05886769527
 10
256.2365559255242
 20
-139.05886769527
 10
256.8177435338858
 20
-139.3851182377232
 10
257.3951415372137
 20
-139.7182589711468
 10
257.9684054259593
 20
-140.0600124432836
 10
257.9684054259593
 20
-140.0600124432836
 10
258.6184949440259
 20
-138.934155238704
 10
258.6184949440259
 20
-138.934155238704
 10
258.6184949440259
 20
-138.934155238704
 10
258.6184949440259
 20
-138.934155238704
 10
258.6184949440259
 20
-138.934155238704
 10
258.6184949440259
 20
-138.934155238704
 10
264.9616047514679
 20
-127.9470567171452
 10
264.9616047514679
 20
-127.9470567171452
 10
264.9612602419194
 20
-127.9467122075967
 10
264.9605712228224
 20
-127.9465399528224
 10
264.9602267132739
 20
-127.9461954432739
 10
264.3876518436253
 20
-127.606336773654
 10
263.8116318784915
 20
-127.272334766359
 10
263.2321668178726
 20
-126.9455674595831
 97
        0
 75
     2
 76
     1
 98
        0
  0
SPLINE
  5
4C
330
3E
100
AcDbEntity
  8
Wood_01_SensorSupport_3mmThick
370
     0
100
AcDbSpline
210
0.0
220
0.0
230
1.0
 70
    11
 71
     3
 72
    32
 73
    28
 74
     0
 42
0.0000000001
 43
0.0000000001
 40
0.0
 40
0.0
 40
0.0
 40
0.0
 40
1.0
 40
1.0
 40
1.0
 40
2.0
 40
2.0
 40
2.0
 40
3.0
 40
3.0
 40
3.0
 40
4.0
 40
4.0
 40
4.0
 40
5.0
 40
5.0
 40
5.0
 40
6.0
 40
6.0
 40
6.0
 40
7.0
 40
7.0
 40
7.0
 40
8.0
 40
8.0
 40
8.0
 40
9.0
 40
9.0
 40
9.0
 40
9.0
 10
217.6752576495743
 20
-127.9842637483859
 30
0.0
 10
217.6752576495743
 20
-127.9842637483859
 30
0.0
 10
217.6756021591228
 20
-127.9842637483859
 30
0.0
 10
217.6756021591228
 20
-127.9842637483859
 30
0.0
 10
217.6756021591228
 20
-127.9842637483859
 30
0.0
 10
217.6756021591228
 20
-129.2842705297449
 30
0.0
 10
217.6756021591228
 20
-129.2842705297449
 30
0.0
 10
218.009087402095
 20
-129.2797919056141
 30
0.0
 10
218.341194606873
 20
-129.2713514216752
 30
0.0
 10
218.6757133784908
 20
-129.2713514216752
 30
0.0
 10
219.0095431310115
 20
-129.2713514216752
 30
0.0
 10
219.3421671001124
 20
-129.2789306317428
 30
0.0
 10
219.6754800883103
 20
-129.2832370010993
 30
0.0
 10
219.6754800883103
 20
-129.2832370010993
 30
0.0
 10
219.6754800883103
 20
-115.2949435475652
 30
0.0
 10
219.6754800883103
 20
-115.2949435475652
 30
0.0
 10
219.3423393548867
 20
-115.2913261973057
 30
0.0
 10
219.009198621463
 20
-115.2868475731748
 30
0.0
 10
218.6757133784908
 20
-115.2868475731748
 30
0.0
 10
218.6688231875203
 20
-115.2868475731748
 30
0.0
 10
218.6619329965498
 20
-115.2871920827234
 30
0.0
 10
218.6550428055793
 20
-115.2871920827234
 30
0.0
 10
218.3275864797063
 20
-115.2873643374976
 30
0.0
 10
218.0020249563502
 20
-115.2963215857593
 30
0.0
 10
217.6752576495743
 20
-115.2997666812445
 30
0.0
 10
217.6752576495743
 20
-115.2997666812445
 30
0.0
 10
217.6752576495743
 20
-127.9842637483859
 30
0.0
 10
217.6752576495743
 20
-127.9842637483859
 30
0.0
  0
HATCH
  5
4D
330
3E
100
AcDbEntity
  8
Wood_01_SensorSupport_3mmThick
 62
     7
100
AcDbHatch
 10
0.0
 20
0.0
 30
0.0
210
0.0
220
0.0
230
1.0
  2
SOLID
 70
     1
 71
     0
 91
        1
 92
        1
 93
        1
 72
     4
 94
        3
 73
     0
 74
     1
 95
       32
 96
       28
 40
0.0
 40
0.0
 40
0.0
 40
0.0
 40
1.0
 40
1.0
 40
1.0
 40
2.0
 40
2.0
 40
2.0
 40
3.0
 40
3.0
 40
3.0
 40
4.0
 40
4.0
 40
4.0
 40
5.0
 40
5.0
 40
5.0
 40
6.0
 40
6.0
 40
6.0
 40
7.0
 40
7.0
 40
7.0
 40
8.0
 40
8.0
 40
8.0
 40
9.0
 40
9.0
 40
9.0
 40
9.0
 10
217.6752576495743
 20
-127.9842637483859
 10
217.6752576495743
 20
-127.9842637483859
 10
217.6756021591228
 20
-127.9842637483859
 10
217.6756021591228
 20
-127.9842637483859
 10
217.6756021591228
 20
-127.9842637483859
 10
217.6756021591228
 20
-129.2842705297449
 10
217.6756021591228
 20
-129.2842705297449
 10
218.009087402095
 20
-129.2797919056141
 10
218.341194606873
 20
-129.2713514216752
 10
218.6757133784908
 20
-129.2713514216752
 10
219.0095431310115
 20
-129.2713514216752
 10
219.3421671001124
 20
-129.2789306317428
 10
219.6754800883103
 20
-129.2832370010993
 10
219.6754800883103
 20
-129.2832370010993
 10
219.6754800883103
 20
-115.2949435475652
 10
219.6754800883103
 20
-115.2949435475652
 10
219.3423393548867
 20
-115.2913261973057
 10
219.009198621463
 20
-115.2868475731748
 10
218.6757133784908
 20
-115.2868475731748
 10
218.6688231875203
 20
-115.2868475731748
 10
218.6619329965498
 20
-115.2871920827234
 10
218.6550428055793
 20
-115.2871920827234
 10
218.3275864797063
 20
-115.2873643374976
 10
218.0020249563502
 20
-115.2963215857593
 10
217.6752576495743
 20
-115.2997666812445
 10
217.6752576495743
 20
-115.2997666812445
 10
217.6752576495743
 20
-127.9842637483859
 10
217.6752576495743
 20
-127.9842637483859
 97
        0
 75
     2
 76
     1
 98
        0
  0
SPLINE
  5
4E
330
3E
100
AcDbEntity
  8
Wood_01_SensorSupport_3mmThick
370
     0
100
AcDbSpline
210
0.0
220
0.0
230
1.0
 70
    11
 71
     3
 72
    23
 73
    19
 74
     0
 42
0.0000000001
 43
0.0000000001
 40
0.0
 40
0.0
 40
0.0
 40
0.0
 40
1.0
 40
1.0
 40
1.0
 40
2.0
 40
2.0
 40
2.0
 40
3.0
 40
3.0
 40
3.0
 40
4.0
 40
4.0
 40
4.0
 40
5.0
 40
5.0
 40
5.0
 40
6.0
 40
6.0
 40
6.0
 40
6.0
 10
305.7601480355391
 20
-276.5161104994474
 30
0.0
 10
305.7601480355391
 20
-276.5161104994474
 30
0.0
 10
304.7645154403019
 20
-277.3515461546205
 30
0.0
 10
304.7645154403019
 20
-277.3515461546205
 30
0.0
 10
304.7645154403019
 20
-277.3515461546205
 30
0.0
 10
304.7641709307534
 20
-277.3515461546205
 30
0.0
 10
304.7641709307534
 20
-277.3515461546205
 30
0.0
 10
304.7641709307534
 20
-277.3515461546205
 30
0.0
 10
295.0521022482856
 20
-285.5009195249789
 30
0.0
 10
295.0521022482856
 20
-285.5009195249789
 30
0.0
 10
295.4741264452287
 20
-286.0176838477664
 30
0.0
 10
295.9088974954672
 20
-286.5234238650011
 30
0.0
 10
296.3633055899717
 20
-287.011593895261
 30
0.0
 10
296.3633055899717
 20
-287.011593895261
 30
0.0
 10
307.0958115551705
 20
-278.0057697872694
 30
0.0
 10
307.0958115551705
 20
-278.0057697872694
 30
0.0
 10
306.6217664164001
 20
-277.5362032726298
 30
0.0
 10
306.1770045892544
 20
-277.0380424654628
 30
0.0
 10
305.7601480355391
 20
-276.5161104994474
 30
0.0
  0
HATCH
  5
4F
330
3E
100
AcDbEntity
  8
Wood_01_SensorSupport_3mmThick
 62
     7
100
AcDbHatch
 10
0.0
 20
0.0
 30
0.0
210
0.0
220
0.0
230
1.0
  2
SOLID
 70
     1
 71
     0
 91
        1
 92
        1
 93
        1
 72
     4
 94
        3
 73
     0
 74
     1
 95
       23
 96
       19
 40
0.0
 40
0.0
 40
0.0
 40
0.0
 40
1.0
 40
1.0
 40
1.0
 40
2.0
 40
2.0
 40
2.0
 40
3.0
 40
3.0
 40
3.0
 40
4.0
 40
4.0
 40
4.0
 40
5.0
 40
5.0
 40
5.0
 40
6.0
 40
6.0
 40
6.0
 40
6.0
 10
305.7601480355391
 20
-276.5161104994474
 10
305.7601480355391
 20
-276.5161104994474
 10
304.7645154403019
 20
-277.3515461546205
 10
304.7645154403019
 20
-277.3515461546205
 10
304.7645154403019
 20
-277.3515461546205
 10
304.7641709307534
 20
-277.3515461546205
 10
304.7641709307534
 20
-277.3515461546205
 10
304.7641709307534
 20
-277.3515461546205
 10
295.0521022482856
 20
-285.5009195249789
 10
295.0521022482856
 20
-285.5009195249789
 10
295.4741264452287
 20
-286.0176838477664
 10
295.9088974954672
 20
-286.5234238650011
 10
296.3633055899717
 20
-287.011593895261
 10
296.3633055899717
 20
-287.011593895261
 10
307.0958115551705
 20
-278.0057697872694
 10
307.0958115551705
 20
-278.0057697872694
 10
306.6217664164001
 20
-277.5362032726298
 10
306.1770045892544
 20
-277.0380424654628
 10
305.7601480355391
 20
-276.5161104994474
 97
        0
 75
     2
 76
     1
 98
        0
  0
SPLINE
  5
50
330
3E
100
AcDbEntity
  8
Wood_01_SensorSupport_3mmThick
370
     0
100
AcDbSpline
210
0.0
220
0.0
230
1.0
 70
    11
 71
     3
 72
    23
 73
    19
 74
     0
 42
0.0000000001
 43
0.0000000001
 40
0.0
 40
0.0
 40
0.0
 40
0.0
 40
1.0
 40
1.0
 40
1.0
 40
2.0
 40
2.0
 40
2.0
 40
3.0
 40
3.0
 40
3.0
 40
4.0
 40
4.0
 40
4.0
 40
5.0
 40
5.0
 40
5.0
 40
6.0
 40
6.0
 40
6.0
 40
6.0
 10
302.0201523767519
 20
-246.9013806891427
 30
0.0
 10
302.0201523767519
 20
-246.9013806891427
 30
0.0
 10
302.0201523767519
 20
-244.9015027599552
 30
0.0
 10
302.0201523767519
 20
-244.9015027599552
 30
0.0
 10
302.0201523767519
 20
-244.9015027599552
 30
0.0
 10
300.7203178501671
 20
-244.9015027599552
 30
0.0
 10
300.7203178501671
 20
-244.9015027599552
 30
0.0
 10
300.7203178501671
 20
-244.9015027599552
 30
0.0
 10
284.5235459358136
 20
-244.9015027599552
 30
0.0
 10
284.5235459358136
 20
-244.9015027599552
 30
0.0
 10
284.2189994949175
 20
-245.5760524559671
 30
0.0
 10
283.8982611052407
 20
-246.2437119610085
 30
0.0
 10
283.5551295949098
 20
-246.9013806891427
 30
0.0
 10
283.5551295949098
 20
-246.9013806891427
 30
0.0
 10
300.7203178501671
 20
-246.9013806891427
 30
0.0
 10
300.7203178501671
 20
-246.9013806891427
 30
0.0
 10
300.7203178501671
 20
-246.9013806891427
 30
0.0
 10
302.0201523767519
 20
-246.9013806891427
 30
0.0
 10
302.0201523767519
 20
-246.9013806891427
 30
0.0
  0
HATCH
  5
51
330
3E
100
AcDbEntity
  8
Wood_01_SensorSupport_3mmThick
 62
     7
100
AcDbHatch
 10
0.0
 20
0.0
 30
0.0
210
0.0
220
0.0
230
1.0
  2
SOLID
 70
     1
 71
     0
 91
        1
 92
        1
 93
        1
 72
     4
 94
        3
 73
     0
 74
     1
 95
       23
 96
       19
 40
0.0
 40
0.0
 40
0.0
 40
0.0
 40
1.0
 40
1.0
 40
1.0
 40
2.0
 40
2.0
 40
2.0
 40
3.0
 40
3.0
 40
3.0
 40
4.0
 40
4.0
 40
4.0
 40
5.0
 40
5.0
 40
5.0
 40
6.0
 40
6.0
 40
6.0
 40
6.0
 10
302.0201523767519
 20
-246.9013806891427
 10
302.0201523767519
 20
-246.9013806891427
 10
302.0201523767519
 20
-244.9015027599552
 10
302.0201523767519
 20
-244.9015027599552
 10
302.0201523767519
 20
-244.9015027599552
 10
300.7203178501671
 20
-244.9015027599552
 10
300.7203178501671
 20
-244.9015027599552
 10
300.7203178501671
 20
-244.9015027599552
 10
284.5235459358136
 20
-244.9015027599552
 10
284.5235459358136
 20
-244.9015027599552
 10
284.2189994949175
 20
-245.5760524559671
 10
283.8982611052407
 20
-246.2437119610085
 10
283.5551295949098
 20
-246.9013806891427
 10
283.5551295949098
 20
-246.9013806891427
 10
300.7203178501671
 20
-246.9013806891427
 10
300.7203178501671
 20
-246.9013806891427
 10
300.7203178501671
 20
-246.9013806891427
 10
302.0201523767519
 20
-246.9013806891427
 10
302.0201523767519
 20
-246.9013806891427
 97
        0
 75
     2
 76
     1
 98
        0
  0
SPLINE
  5
52
330
3E
100
AcDbEntity
  8
Wood_01_SensorSupport_3mmThick
370
     0
100
AcDbSpline
210
0.0
220
0.0
230
1.0
 70
    11
 71
     3
 72
    35
 73
    31
 74
     0
 42
0.0000000001
 43
0.0000000001
 40
0.0
 40
0.0
 40
0.0
 40
0.0
 40
1.0
 40
1.0
 40
1.0
 40
2.0
 40
2.0
 40
2.0
 40
3.0
 40
3.0
 40
3.0
 40
4.0
 40
4.0
 40
4.0
 40
5.0
 40
5.0
 40
5.0
 40
6.0
 40
6.0
 40
6.0
 40
7.0
 40
7.0
 40
7.0
 40
8.0
 40
8.0
 40
8.0
 40
9.0
 40
9.0
 40
9.0
 40
10.0
 40
10.0
 40
10.0
 40
10.0
 10
302.1090358402714
 20
-267.6091606318824
 30
0.0
 10
302.0504692170221
 20
-267.0341741953943
 30
0.0
 10
302.0201523767519
 20
-266.4509195297414
 30
0.0
 10
302.0201523767519
 20
-265.8607746731182
 30
0.0
 10
302.0201523767519
 20
-265.8607746731182
 30
0.0
 10
302.0201523767519
 20
-265.6092827026949
 30
0.0
 10
302.0201523767519
 20
-265.6092827026949
 30
0.0
 10
302.0201523767519
 20
-265.6092827026949
 30
0.0
 10
300.7203178501671
 20
-265.6092827026949
 30
0.0
 10
300.7203178501671
 20
-265.6092827026949
 30
0.0
 10
300.7203178501671
 20
-265.6092827026949
 30
0.0
 10
288.0358207830258
 20
-265.6092827026949
 30
0.0
 10
288.0358207830258
 20
-265.6092827026949
 30
0.0
 10
288.0358207830258
 20
-265.6092827026949
 30
0.0
 10
288.0358207830258
 20
-266.17565640047
 30
0.0
 10
288.0358207830258
 20
-266.17565640047
 30
0.0
 10
288.0358207830258
 20
-266.17565640047
 30
0.0
 10
288.0358207830258
 20
-266.17565640047
 30
0.0
 10
288.0358207830258
 20
-266.17565640047
 30
0.0
 10
288.0358207830258
 20
-266.17565640047
 30
0.0
 10
288.0371988212199
 20
-266.17565640047
 30
0.0
 10
288.0371988212199
 20
-266.17565640047
 30
0.0
 10
288.0420219548992
 20
-266.6562472206624
 30
0.0
 10
288.0582139036799
 20
-267.1340819644665
 30
0.0
 10
288.0843966293678
 20
-267.6091606318824
 30
0.0
 10
288.0843966293678
 20
-267.6091606318824
 30
0.0
 10
300.8057562182013
 20
-267.6091606318824
 30
0.0
 10
300.8057562182013
 20
-267.6091606318824
 30
0.0
 10
300.8057562182013
 20
-267.6091606318824
 30
0.0
 10
302.1090358402714
 20
-267.6091606318824
 30
0.0
 10
302.1090358402714
 20
-267.6091606318824
 30
0.0
  0
HATCH
  5
53
330
3E
100
AcDbEntity
  8
Wood_01_SensorSupport_3mmThick
 62
     7
100
AcDbHatch
 10
0.0
 20
0.0
 30
0.0
210
0.0
220
0.0
230
1.0
  2
SOLID
 70
     1
 71
     0
 91
        1
 92
        1
 93
        1
 72
     4
 94
        3
 73
     0
 74
     1
 95
       35
 96
       31
 40
0.0
 40
0.0
 40
0.0
 40
0.0
 40
1.0
 40
1.0
 40
1.0
 40
2.0
 40
2.0
 40
2.0
 40
3.0
 40
3.0
 40
3.0
 40
4.0
 40
4.0
 40
4.0
 40
5.0
 40
5.0
 40
5.0
 40
6.0
 40
6.0
 40
6.0
 40
7.0
 40
7.0
 40
7.0
 40
8.0
 40
8.0
 40
8.0
 40
9.0
 40
9.0
 40
9.0
 40
10.0
 40
10.0
 40
10.0
 40
10.0
 10
302.1090358402714
 20
-267.6091606318824
 10
302.0504692170221
 20
-267.0341741953943
 10
302.0201523767519
 20
-266.4509195297414
 10
302.0201523767519
 20
-265.8607746731182
 10
302.0201523767519
 20
-265.8607746731182
 10
302.0201523767519
 20
-265.6092827026949
 10
302.0201523767519
 20
-265.6092827026949
 10
302.0201523767519
 20
-265.6092827026949
 10
300.7203178501671
 20
-265.6092827026949
 10
300.7203178501671
 20
-265.6092827026949
 10
300.7203178501671
 20
-265.6092827026949
 10
288.0358207830258
 20
-265.6092827026949
 10
288.0358207830258
 20
-265.6092827026949
 10
288.0358207830258
 20
-265.6092827026949
 10
288.0358207830258
 20
-266.17565640047
 10
288.0358207830258
 20
-266.17565640047
 10
288.0358207830258
 20
-266.17565640047
 10
288.0358207830258
 20
-266.17565640047
 10
288.0358207830258
 20
-266.17565640047
 10
288.0358207830258
 20
-266.17565640047
 10
288.0371988212199
 20
-266.17565640047
 10
288.0371988212199
 20
-266.17565640047
 10
288.0420219548992
 20
-266.6562472206624
 10
288.0582139036799
 20
-267.1340819644665
 10
288.0843966293678
 20
-267.6091606318824
 10
288.0843966293678
 20
-267.6091606318824
 10
300.8057562182013
 20
-267.6091606318824
 10
300.8057562182013
 20
-267.6091606318824
 10
300.8057562182013
 20
-267.6091606318824
 10
302.1090358402714
 20
-267.6091606318824
 10
302.1090358402714
 20
-267.6091606318824
 97
        0
 75
     2
 76
     1
 98
        0
  0
SPLINE
  5
54
330
3E
100
AcDbEntity
  8
Wood_01_SensorSupport_3mmThick
370
     0
100
AcDbSpline
210
0.0
220
0.0
230
1.0
 70
    11
 71
     3
 72
    29
 73
    25
 74
     0
 42
0.0000000001
 43
0.0000000001
 40
0.0
 40
0.0
 40
0.0
 40
0.0
 40
1.0
 40
1.0
 40
1.0
 40
2.0
 40
2.0
 40
2.0
 40
3.0
 40
3.0
 40
3.0
 40
4.0
 40
4.0
 40
4.0
 40
5.0
 40
5.0
 40
5.0
 40
6.0
 40
6.0
 40
6.0
 40
7.0
 40
7.0
 40
7.0
 40
8.0
 40
8.0
 40
8.0
 40
8.0
 10
141.8425048473519
 20
-207.1170735159291
 30
0.0
 10
141.8383707327696
 20
-206.7835882729569
 30
0.0
 10
141.830102503605
 20
-206.4514810681788
 30
0.0
 10
141.830102503605
 20
-206.1173068061096
 30
0.0
 10
141.830102503605
 20
-205.7827880344918
 30
0.0
 10
141.8383707327696
 20
-205.4503363201652
 30
0.0
 10
141.8425048473519
 20
-205.1171955867415
 30
0.0
 10
141.8425048473519
 20
-205.1171955867415
 30
0.0
 10
140.5426703207671
 20
-205.1171955867415
 30
0.0
 10
140.5426703207671
 20
-205.1171955867415
 30
0.0
 10
140.5426703207671
 20
-205.1171955867415
 30
0.0
 10
127.8581732536257
 20
-205.1171955867415
 30
0.0
 10
127.8581732536257
 20
-205.1171955867415
 30
0.0
 10
127.8545559033662
 20
-205.4506808297137
 30
0.0
 10
127.8454264003303
 20
-205.7827880344918
 30
0.0
 10
127.8454264003303
 20
-206.1173068061096
 30
0.0
 10
127.8454264003303
 20
-206.4514810681788
 30
0.0
 10
127.854383648592
 20
-206.7835882729569
 30
0.0
 10
127.8580009988515
 20
-207.1170735159291
 30
0.0
 10
127.8580009988515
 20
-207.1170735159291
 30
0.0
 10
140.5426703207671
 20
-207.1170735159291
 30
0.0
 10
140.5426703207671
 20
-207.1170735159291
 30
0.0
 10
140.5426703207671
 20
-207.1170735159291
 30
0.0
 10
141.8425048473519
 20
-207.1170735159291
 30
0.0
 10
141.8425048473519
 20
-207.1170735159291
 30
0.0
  0
HATCH
  5
55
330
3E
100
AcDbEntity
  8
Wood_01_SensorSupport_3mmThick
 62
     7
100
AcDbHatch
 10
0.0
 20
0.0
 30
0.0
210
0.0
220
0.0
230
1.0
  2
SOLID
 70
     1
 71
     0
 91
        1
 92
        1
 93
        1
 72
     4
 94
        3
 73
     0
 74
     1
 95
       29
 96
       25
 40
0.0
 40
0.0
 40
0.0
 40
0.0
 40
1.0
 40
1.0
 40
1.0
 40
2.0
 40
2.0
 40
2.0
 40
3.0
 40
3.0
 40
3.0
 40
4.0
 40
4.0
 40
4.0
 40
5.0
 40
5.0
 40
5.0
 40
6.0
 40
6.0
 40
6.0
 40
7.0
 40
7.0
 40
7.0
 40
8.0
 40
8.0
 40
8.0
 40
8.0
 10
141.8425048473519
 20
-207.1170735159291
 10
141.8383707327696
 20
-206.7835882729569
 10
141.830102503605
 20
-206.4514810681788
 10
141.830102503605
 20
-206.1173068061096
 10
141.830102503605
 20
-205.7827880344918
 10
141.8383707327696
 20
-205.4503363201652
 10
141.8425048473519
 20
-205.1171955867415
 10
141.8425048473519
 20
-205.1171955867415
 10
140.5426703207671
 20
-205.1171955867415
 10
140.5426703207671
 20
-205.1171955867415
 10
140.5426703207671
 20
-205.1171955867415
 10
127.8581732536257
 20
-205.1171955867415
 10
127.8581732536257
 20
-205.1171955867415
 10
127.8545559033662
 20
-205.4506808297137
 10
127.8454264003303
 20
-205.7827880344918
 10
127.8454264003303
 20
-206.1173068061096
 10
127.8454264003303
 20
-206.4514810681788
 10
127.854383648592
 20
-206.7835882729569
 10
127.8580009988515
 20
-207.1170735159291
 10
127.8580009988515
 20
-207.1170735159291
 10
140.5426703207671
 20
-207.1170735159291
 10
140.5426703207671
 20
-207.1170735159291
 10
140.5426703207671
 20
-207.1170735159291
 10
141.8425048473519
 20
-207.1170735159291
 10
141.8425048473519
 20
-207.1170735159291
 97
        0
 75
     2
 76
     1
 98
        0
  0
SPLINE
  5
56
330
3E
100
AcDbEntity
  8
Wood_01_SensorSupport_3mmThick
370
     0
100
AcDbSpline
210
0.0
220
0.0
230
1.0
 70
    11
 71
     3
 72
    32
 73
    28
 74
     0
 42
0.0000000001
 43
0.0000000001
 40
0.0
 40
0.0
 40
0.0
 40
0.0
 40
1.0
 40
1.0
 40
1.0
 40
2.0
 40
2.0
 40
2.0
 40
3.0
 40
3.0
 40
3.0
 40
4.0
 40
4.0
 40
4.0
 40
5.0
 40
5.0
 40
5.0
 40
6.0
 40
6.0
 40
6.0
 40
7.0
 40
7.0
 40
7.0
 40
8.0
 40
8.0
 40
8.0
 40
9.0
 40
9.0
 40
9.0
 40
9.0
 10
194.2041666181156
 20
-293.5948268580249
 30
0.0
 10
194.8442653592751
 20
-293.7743163328064
 30
0.0
 10
195.4860866481771
 20
-293.9486381643601
 30
0.0
 10
196.1316975421129
 20
-294.1143472572006
 30
0.0
 10
196.1316975421129
 20
-294.1143472572006
 30
0.0
 10
196.1318697968872
 20
-294.1143472572006
 30
0.0
 10
196.1320420516614
 20
-294.1143472572006
 30
0.0
 10
196.1320420516614
 20
-294.1143472572006
 30
0.0
 10
199.7524928971105
 20
-280.6026827640507
 30
0.0
 10
199.7524928971105
 20
-280.6026827640507
 30
0.0
 10
199.1053317102063
 20
-280.4380071998558
 30
0.0
 10
198.4609265996903
 20
-280.2664414446904
 30
0.0
 10
197.8204833489824
 20
-280.0855739317147
 30
0.0
 10
197.8204833489824
 20
-280.0855739317147
 30
0.0
 10
197.4838975200735
 20
-281.3413112360883
 30
0.0
 10
197.4838975200735
 20
-281.3413112360883
 30
0.0
 10
197.4838975200735
 20
-281.3413112360883
 30
0.0
 10
197.4838975200735
 20
-281.3413112360883
 30
0.0
 10
197.4838975200735
 20
-281.3413112360883
 30
0.0
 10
197.4838975200735
 20
-281.3413112360883
 30
0.0
 10
194.2007215226304
 20
-293.5937933293794
 30
0.0
 10
194.2007215226304
 20
-293.5937933293794
 30
0.0
 10
194.2007215226304
 20
-293.5937933293794
 30
0.0
 10
194.2007215226304
 20
-293.5937933293794
 30
0.0
 10
194.2007215226304
 20
-293.5937933293794
 30
0.0
 10
194.2020995608245
 20
-293.5941378389278
 30
0.0
 10
194.2031330894701
 20
-293.5944823484764
 30
0.0
 10
194.2041666181156
 20
-293.5948268580249
 30
0.0
  0
HATCH
  5
57
330
3E
100
AcDbEntity
  8
Wood_01_SensorSupport_3mmThick
 62
     7
100
AcDbHatch
 10
0.0
 20
0.0
 30
0.0
210
0.0
220
0.0
230
1.0
  2
SOLID
 70
     1
 71
     0
 91
        1
 92
        1
 93
        1
 72
     4
 94
        3
 73
     0
 74
     1
 95
       32
 96
       28
 40
0.0
 40
0.0
 40
0.0
 40
0.0
 40
1.0
 40
1.0
 40
1.0
 40
2.0
 40
2.0
 40
2.0
 40
3.0
 40
3.0
 40
3.0
 40
4.0
 40
4.0
 40
4.0
 40
5.0
 40
5.0
 40
5.0
 40
6.0
 40
6.0
 40
6.0
 40
7.0
 40
7.0
 40
7.0
 40
8.0
 40
8.0
 40
8.0
 40
9.0
 40
9.0
 40
9.0
 40
9.0
 10
194.2041666181156
 20
-293.5948268580249
 10
194.8442653592751
 20
-293.7743163328064
 10
195.4860866481771
 20
-293.9486381643601
 10
196.1316975421129
 20
-294.1143472572006
 10
196.1316975421129
 20
-294.1143472572006
 10
196.1318697968872
 20
-294.1143472572006
 10
196.1320420516614
 20
-294.1143472572006
 10
196.1320420516614
 20
-294.1143472572006
 10
199.7524928971105
 20
-280.6026827640507
 10
199.7524928971105
 20
-280.6026827640507
 10
199.1053317102063
 20
-280.4380071998558
 10
198.4609265996903
 20
-280.2664414446904
 10
197.8204833489824
 20
-280.0855739317147
 10
197.8204833489824
 20
-280.0855739317147
 10
197.4838975200735
 20
-281.3413112360883
 10
197.4838975200735
 20
-281.3413112360883
 10
197.4838975200735
 20
-281.3413112360883
 10
197.4838975200735
 20
-281.3413112360883
 10
197.4838975200735
 20
-281.3413112360883
 10
197.4838975200735
 20
-281.3413112360883
 10
194.2007215226304
 20
-293.5937933293794
 10
194.2007215226304
 20
-293.5937933293794
 10
194.2007215226304
 20
-293.5937933293794
 10
194.2007215226304
 20
-293.5937933293794
 10
194.2007215226304
 20
-293.5937933293794
 10
194.2020995608245
 20
-293.5941378389278
 10
194.2031330894701
 20
-293.5944823484764
 10
194.2041666181156
 20
-293.5948268580249
 97
        0
 75
     2
 76
     1
 98
        0
  0
SPLINE
  5
58
330
3E
100
AcDbEntity
  8
Wood_01_SensorSupport_3mmThick
370
     0
100
AcDbSpline
210
0.0
220
0.0
230
1.0
 70
    11
 71
     3
 72
    32
 73
    28
 74
     0
 42
0.0000000001
 43
0.0000000001
 40
0.0
 40
0.0
 40
0.0
 40
0.0
 40
1.0
 40
1.0
 40
1.0
 40
2.0
 40
2.0
 40
2.0
 40
3.0
 40
3.0
 40
3.0
 40
4.0
 40
4.0
 40
4.0
 40
5.0
 40
5.0
 40
5.0
 40
6.0
 40
6.0
 40
6.0
 40
7.0
 40
7.0
 40
7.0
 40
8.0
 40
8.0
 40
8.0
 40
9.0
 40
9.0
 40
9.0
 40
9.0
 10
172.4101480688767
 20
-284.2506943733818
 30
0.0
 10
172.4108370879737
 20
-284.2513833924788
 30
0.0
 10
172.4115261070707
 20
-284.2517279020274
 30
0.0
 10
172.4122151261678
 20
-284.2520724115759
 30
0.0
 10
172.9842732314935
 20
-284.59210333597
 30
0.0
 10
173.5602931966273
 20
-284.9262775980393
 30
0.0
 10
174.1402750215691
 20
-285.2542506882351
 30
0.0
 10
174.1402750215691
 20
-285.2542506882351
 30
0.0
 10
181.1314072897866
 20
-273.1454290766789
 30
0.0
 10
181.1314072897866
 20
-273.1454290766789
 30
0.0
 10
180.5498751718764
 20
-272.8184895151287
 30
0.0
 10
179.9729939328713
 20
-272.4843152530595
 30
0.0
 10
179.4009358275456
 20
-272.1429062904712
 30
0.0
 10
179.4009358275456
 20
-272.1429062904712
 30
0.0
 10
178.7511908190275
 20
-273.2684189855024
 30
0.0
 10
178.7511908190275
 20
-273.2684189855024
 30
0.0
 10
178.7511908190275
 20
-273.2684189855024
 30
0.0
 10
178.750846309479
 20
-273.2680744759538
 30
0.0
 10
178.750846309479
 20
-273.2680744759538
 30
0.0
 10
178.750846309479
 20
-273.2680744759538
 30
0.0
 10
172.4101480688767
 20
-284.2506943733818
 30
0.0
 10
172.4101480688767
 20
-284.2506943733818
 30
0.0
 10
172.4101480688767
 20
-284.2506943733818
 30
0.0
 10
172.4101480688767
 20
-284.2506943733818
 30
0.0
 10
172.4101480688767
 20
-284.2506943733818
 30
0.0
 10
172.4101480688767
 20
-284.2506943733818
 30
0.0
 10
172.4101480688767
 20
-284.2506943733818
 30
0.0
 10
172.4101480688767
 20
-284.2506943733818
 30
0.0
  0
HATCH
  5
59
330
3E
100
AcDbEntity
  8
Wood_01_SensorSupport_3mmThick
 62
     7
100
AcDbHatch
 10
0.0
 20
0.0
 30
0.0
210
0.0
220
0.0
230
1.0
  2
SOLID
 70
     1
 71
     0
 91
        1
 92
        1
 93
        1
 72
     4
 94
        3
 73
     0
 74
     1
 95
       32
 96
       28
 40
0.0
 40
0.0
 40
0.0
 40
0.0
 40
1.0
 40
1.0
 40
1.0
 40
2.0
 40
2.0
 40
2.0
 40
3.0
 40
3.0
 40
3.0
 40
4.0
 40
4.0
 40
4.0
 40
5.0
 40
5.0
 40
5.0
 40
6.0
 40
6.0
 40
6.0
 40
7.0
 40
7.0
 40
7.0
 40
8.0
 40
8.0
 40
8.0
 40
9.0
 40
9.0
 40
9.0
 40
9.0
 10
172.4101480688767
 20
-284.2506943733818
 10
172.4108370879737
 20
-284.2513833924788
 10
172.4115261070707
 20
-284.2517279020274
 10
172.4122151261678
 20
-284.2520724115759
 10
172.9842732314935
 20
-284.59210333597
 10
173.5602931966273
 20
-284.9262775980393
 10
174.1402750215691
 20
-285.2542506882351
 10
174.1402750215691
 20
-285.2542506882351
 10
181.1314072897866
 20
-273.1454290766789
 10
181.1314072897866
 20
-273.1454290766789
 10
180.5498751718764
 20
-272.8184895151287
 10
179.9729939328713
 20
-272.4843152530595
 10
179.4009358275456
 20
-272.1429062904712
 10
179.4009358275456
 20
-272.1429062904712
 10
178.7511908190275
 20
-273.2684189855024
 10
178.7511908190275
 20
-273.2684189855024
 10
178.7511908190275
 20
-273.2684189855024
 10
178.750846309479
 20
-273.2680744759538
 10
178.750846309479
 20
-273.2680744759538
 10
178.750846309479
 20
-273.2680744759538
 10
172.4101480688767
 20
-284.2506943733818
 10
172.4101480688767
 20
-284.2506943733818
 10
172.4101480688767
 20
-284.2506943733818
 10
172.4101480688767
 20
-284.2506943733818
 10
172.4101480688767
 20
-284.2506943733818
 10
172.4101480688767
 20
-284.2506943733818
 10
172.4101480688767
 20
-284.2506943733818
 10
172.4101480688767
 20
-284.2506943733818
 97
        0
 75
     2
 76
     1
 98
        0
  0
SPLINE
  5
5A
330
3E
100
AcDbEntity
  8
Wood_01_SensorSupport_3mmThick
370
     0
100
AcDbSpline
210
0.0
220
0.0
230
1.0
 70
    11
 71
     3
 72
    32
 73
    28
 74
     0
 42
0.0000000001
 43
0.0000000001
 40
0.0
 40
0.0
 40
0.0
 40
0.0
 40
1.0
 40
1.0
 40
1.0
 40
2.0
 40
2.0
 40
2.0
 40
3.0
 40
3.0
 40
3.0
 40
4.0
 40
4.0
 40
4.0
 40
5.0
 40
5.0
 40
5.0
 40
6.0
 40
6.0
 40
6.0
 40
7.0
 40
7.0
 40
7.0
 40
8.0
 40
8.0
 40
8.0
 40
9.0
 40
9.0
 40
9.0
 40
9.0
 10
219.6754800883103
 20
-282.9477592608603
 30
0.0
 10
219.3421671001124
 20
-282.9522378849911
 30
0.0
 10
219.0093708762373
 20
-282.9625731714469
 30
0.0
 10
218.6757133784908
 20
-282.9625731714469
 30
0.0
 10
218.341194606873
 20
-282.9625731714469
 30
0.0
 10
218.009087402095
 20
-282.9543049422822
 30
0.0
 10
217.6756021591228
 20
-282.9501708277
 30
0.0
 10
217.6756021591228
 20
-282.9501708277
 30
0.0
 10
217.6756021591228
 20
-284.2500053542847
 30
0.0
 10
217.6756021591228
 20
-284.2500053542847
 30
0.0
 10
217.6756021591228
 20
-284.2500053542847
 30
0.0
 10
217.6752576495743
 20
-284.2500053542847
 30
0.0
 10
217.6752576495743
 20
-284.2500053542847
 30
0.0
 10
217.6752576495743
 20
-284.2500053542847
 30
0.0
 10
217.6752576495743
 20
-296.9376030073628
 30
0.0
 10
217.6752576495743
 20
-296.9376030073628
 30
0.0
 10
217.9729138994998
 20
-296.9410481028481
 30
0.0
 10
218.2703978946512
 20
-296.9455267269789
 30
0.0
 10
218.5689154184481
 20
-296.9458712365274
 30
0.0
 10
218.6043999019461
 20
-296.9458712365274
 30
0.0
 10
218.6398843854442
 20
-296.9472492747215
 30
0.0
 10
218.6757133784908
 20
-296.9472492747215
 30
0.0
 10
219.009198621463
 20
-296.9472492747215
 30
0.0
 10
219.3423393548867
 20
-296.9427706505907
 30
0.0
 10
219.6754800883103
 20
-296.9389810455569
 30
0.0
 10
219.6754800883103
 20
-296.9389810455569
 30
0.0
 10
219.6754800883103
 20
-282.9477592608603
 30
0.0
 10
219.6754800883103
 20
-282.9477592608603
 30
0.0
  0
HATCH
  5
5B
330
3E
100
AcDbEntity
  8
Wood_01_SensorSupport_3mmThick
 62
     7
100
AcDbHatch
 10
0.0
 20
0.0
 30
0.0
210
0.0
220
0.0
230
1.0
  2
SOLID
 70
     1
 71
     0
 91
        1
 92
        1
 93
        1
 72
     4
 94
        3
 73
     0
 74
     1
 95
       32
 96
       28
 40
0.0
 40
0.0
 40
0.0
 40
0.0
 40
1.0
 40
1.0
 40
1.0
 40
2.0
 40
2.0
 40
2.0
 40
3.0
 40
3.0
 40
3.0
 40
4.0
 40
4.0
 40
4.0
 40
5.0
 40
5.0
 40
5.0
 40
6.0
 40
6.0
 40
6.0
 40
7.0
 40
7.0
 40
7.0
 40
8.0
 40
8.0
 40
8.0
 40
9.0
 40
9.0
 40
9.0
 40
9.0
 10
219.6754800883103
 20
-282.9477592608603
 10
219.3421671001124
 20
-282.9522378849911
 10
219.0093708762373
 20
-282.9625731714469
 10
218.6757133784908
 20
-282.9625731714469
 10
218.341194606873
 20
-282.9625731714469
 10
218.009087402095
 20
-282.9543049422822
 10
217.6756021591228
 20
-282.9501708277
 10
217.6756021591228
 20
-282.9501708277
 10
217.6756021591228
 20
-284.2500053542847
 10
217.6756021591228
 20
-284.2500053542847
 10
217.6756021591228
 20
-284.2500053542847
 10
217.6752576495743
 20
-284.2500053542847
 10
217.6752576495743
 20
-284.2500053542847
 10
217.6752576495743
 20
-284.2500053542847
 10
217.6752576495743
 20
-296.9376030073628
 10
217.6752576495743
 20
-296.9376030073628
 10
217.9729138994998
 20
-296.9410481028481
 10
218.2703978946512
 20
-296.9455267269789
 10
218.5689154184481
 20
-296.9458712365274
 10
218.6043999019461
 20
-296.9458712365274
 10
218.6398843854442
 20
-296.9472492747215
 10
218.6757133784908
 20
-296.9472492747215
 10
219.009198621463
 20
-296.9472492747215
 10
219.3423393548867
 20
-296.9427706505907
 10
219.6754800883103
 20
-296.9389810455569
 10
219.6754800883103
 20
-296.9389810455569
 10
219.6754800883103
 20
-282.9477592608603
 10
219.6754800883103
 20
-282.9477592608603
 97
        0
 75
     2
 76
     1
 98
        0
  0
SPLINE
  5
5C
330
3E
100
AcDbEntity
  8
Wood_01_SensorSupport_3mmThick
370
     0
100
AcDbSpline
210
0.0
220
0.0
230
1.0
 70
    11
 71
     3
 72
    35
 73
    31
 74
     0
 42
0.0000000001
 43
0.0000000001
 40
0.0
 40
0.0
 40
0.0
 40
0.0
 40
1.0
 40
1.0
 40
1.0
 40
2.0
 40
2.0
 40
2.0
 40
3.0
 40
3.0
 40
3.0
 40
4.0
 40
4.0
 40
4.0
 40
5.0
 40
5.0
 40
5.0
 40
6.0
 40
6.0
 40
6.0
 40
7.0
 40
7.0
 40
7.0
 40
8.0
 40
8.0
 40
8.0
 40
9.0
 40
9.0
 40
9.0
 40
10.0
 40
10.0
 40
10.0
 40
10.0
 10
239.5178520451553
 20
-280.0380316140183
 30
0.0
 10
238.8767197753503
 20
-280.220277165188
 30
0.0
 10
238.2331759387056
 20
-280.3942544871931
 30
0.0
 10
237.5872205352213
 20
-280.5599635800336
 30
0.0
 10
237.5872205352213
 20
-280.5599635800336
 30
0.0
 10
237.8774698298536
 20
-281.6437906196932
 30
0.0
 10
237.8774698298536
 20
-281.6437906196932
 30
0.0
 10
237.8774698298536
 20
-281.6437906196932
 30
0.0
 10
241.2054320686049
 20
-294.0640488631159
 30
0.0
 10
241.2054320686049
 20
-294.0640488631159
 30
0.0
 10
241.2054320686049
 20
-294.0640488631159
 30
0.0
 10
241.2054320686049
 20
-294.0640488631159
 30
0.0
 10
241.2056043233792
 20
-294.0640488631159
 30
0.0
 10
241.2056043233792
 20
-294.0640488631159
 30
0.0
 10
241.2056043233792
 20
-294.0640488631159
 30
0.0
 10
241.2056043233792
 20
-294.0640488631159
 30
0.0
 10
241.2138725525438
 20
-294.0616372962763
 30
0.0
 10
241.2221407817084
 20
-294.0595702389851
 30
0.0
 10
241.230409010873
 20
-294.0571586721454
 30
0.0
 10
241.8674071660957
 20
-293.8924831079505
 30
0.0
 10
242.5040608117698
 20
-293.7253959769159
 30
0.0
 10
243.1369248524102
 20
-293.5469400307799
 30
0.0
 10
243.1369248524102
 20
-293.5469400307799
 30
0.0
 10
243.1372693619587
 20
-293.5469400307799
 30
0.0
 10
243.1376138715073
 20
-293.5465955212314
 30
0.0
 10
243.1376138715073
 20
-293.5465955212314
 30
0.0
 10
239.7703775442241
 20
-280.9795762101371
 30
0.0
 10
239.7703775442241
 20
-280.9795762101371
 30
0.0
 10
239.7703775442241
 20
-280.9795762101371
 30
0.0
 10
239.5178520451553
 20
-280.0380316140183
 30
0.0
 10
239.5178520451553
 20
-280.0380316140183
 30
0.0
  0
HATCH
  5
5D
330
3E
100
AcDbEntity
  8
Wood_01_SensorSupport_3mmThick
 62
     7
100
AcDbHatch
 10
0.0
 20
0.0
 30
0.0
210
0.0
220
0.0
230
1.0
  2
SOLID
 70
     1
 71
     0
 91
        1
 92
        1
 93
        1
 72
     4
 94
        3
 73
     0
 74
     1
 95
       35
 96
       31
 40
0.0
 40
0.0
 40
0.0
 40
0.0
 40
1.0
 40
1.0
 40
1.0
 40
2.0
 40
2.0
 40
2.0
 40
3.0
 40
3.0
 40
3.0
 40
4.0
 40
4.0
 40
4.0
 40
5.0
 40
5.0
 40
5.0
 40
6.0
 40
6.0
 40
6.0
 40
7.0
 40
7.0
 40
7.0
 40
8.0
 40
8.0
 40
8.0
 40
9.0
 40
9.0
 40
9.0
 40
10.0
 40
10.0
 40
10.0
 40
10.0
 10
239.5178520451553
 20
-280.0380316140183
 10
238.8767197753503
 20
-280.220277165188
 10
238.2331759387056
 20
-280.3942544871931
 10
237.5872205352213
 20
-280.5599635800336
 10
237.5872205352213
 20
-280.5599635800336
 10
237.8774698298536
 20
-281.6437906196932
 10
237.8774698298536
 20
-281.6437906196932
 10
237.8774698298536
 20
-281.6437906196932
 10
241.2054320686049
 20
-294.0640488631159
 10
241.2054320686049
 20
-294.0640488631159
 10
241.2054320686049
 20
-294.0640488631159
 10
241.2054320686049
 20
-294.0640488631159
 10
241.2056043233792
 20
-294.0640488631159
 10
241.2056043233792
 20
-294.0640488631159
 10
241.2056043233792
 20
-294.0640488631159
 10
241.2056043233792
 20
-294.0640488631159
 10
241.2138725525438
 20
-294.0616372962763
 10
241.2221407817084
 20
-294.0595702389851
 10
241.230409010873
 20
-294.0571586721454
 10
241.8674071660957
 20
-293.8924831079505
 10
242.5040608117698
 20
-293.7253959769159
 10
243.1369248524102
 20
-293.5469400307799
 10
243.1369248524102
 20
-293.5469400307799
 10
243.1372693619587
 20
-293.5469400307799
 10
243.1376138715073
 20
-293.5465955212314
 10
243.1376138715073
 20
-293.5465955212314
 10
239.7703775442241
 20
-280.9795762101371
 10
239.7703775442241
 20
-280.9795762101371
 10
239.7703775442241
 20
-280.9795762101371
 10
239.5178520451553
 20
-280.0380316140183
 10
239.5178520451553
 20
-280.0380316140183
 97
        0
 75
     2
 76
     1
 98
        0
  0
SPLINE
  5
5E
330
3E
100
AcDbEntity
  8
Wood_01_SensorSupport_3mmThick
370
     0
100
AcDbSpline
210
0.0
220
0.0
230
1.0
 70
    11
 71
     3
 72
    41
 73
    37
 74
     0
 42
0.0000000001
 43
0.0000000001
 40
0.0
 40
0.0
 40
0.0
 40
0.0
 40
1.0
 40
1.0
 40
1.0
 40
2.0
 40
2.0
 40
2.0
 40
3.0
 40
3.0
 40
3.0
 40
4.0
 40
4.0
 40
4.0
 40
5.0
 40
5.0
 40
5.0
 40
6.0
 40
6.0
 40
6.0
 40
7.0
 40
7.0
 40
7.0
 40
8.0
 40
8.0
 40
8.0
 40
9.0
 40
9.0
 40
9.0
 40
10.0
 40
10.0
 40
10.0
 40
11.0
 40
11.0
 40
11.0
 40
12.0
 40
12.0
 40
12.0
 40
12.0
 10
153.7804497228396
 20
-269.5980142555172
 30
0.0
 10
153.7807942323881
 20
-269.5983587650657
 30
0.0
 10
153.7811387419367
 20
-269.5987032746143
 30
0.0
 10
153.7814832514852
 20
-269.5990477841627
 30
0.0
 10
154.2469156515425
 20
-270.0748154706757
 30
0.0
 10
154.7178602043761
 20
-270.5457600235094
 30
0.0
 10
155.1936278908891
 20
-271.0111924235667
 30
0.0
 10
155.1939724004376
 20
-271.0115369331152
 30
0.0
 10
155.1943169099862
 20
-271.0118814426637
 30
0.0
 10
155.1946614195347
 20
-271.0122259522122
 30
0.0
 10
155.1946614195347
 20
-271.0122259522122
 30
0.0
 10
155.1946614195347
 20
-271.0122259522122
 30
0.0
 10
155.1946614195347
 20
-271.0122259522122
 30
0.0
 10
155.1946614195347
 20
-271.0122259522122
 30
0.0
 10
155.1946614195347
 20
-271.0122259522122
 30
0.0
 10
155.1946614195347
 20
-271.0122259522122
 30
0.0
 10
155.1946614195347
 20
-271.0122259522122
 30
0.0
 10
165.0782958571679
 20
-261.1282470050305
 30
0.0
 10
165.0782958571679
 20
-261.1282470050305
 30
0.0
 10
164.6008056229123
 20
-260.6631591145217
 30
0.0
 10
164.1295165605301
 20
-260.191525542591
 30
0.0
 10
163.6640841604729
 20
-259.7140353083354
 30
0.0
 10
163.6640841604729
 20
-259.7140353083354
 30
0.0
 10
162.7452771945567
 20
-260.6328422742515
 30
0.0
 10
162.7452771945567
 20
-260.6328422742515
 30
0.0
 10
162.7452771945567
 20
-260.6328422742515
 30
0.0
 10
162.7452771945567
 20
-260.6328422742515
 30
0.0
 10
162.7452771945567
 20
-260.6328422742515
 30
0.0
 10
162.7452771945567
 20
-260.6328422742515
 30
0.0
 10
153.7802774680653
 20
-269.5980142555172
 30
0.0
 10
153.7802774680653
 20
-269.5980142555172
 30
0.0
 10
153.7802774680653
 20
-269.5980142555172
 30
0.0
 10
153.7804497228396
 20
-269.5980142555172
 30
0.0
 10
153.7804497228396
 20
-269.5980142555172
 30
0.0
 10
153.7804497228396
 20
-269.5980142555172
 30
0.0
 10
153.7804497228396
 20
-269.5980142555172
 30
0.0
 10
153.7804497228396
 20
-269.5980142555172
 30
0.0
  0
HATCH
  5
5F
330
3E
100
AcDbEntity
  8
Wood_01_SensorSupport_3mmThick
 62
     7
100
AcDbHatch
 10
0.0
 20
0.0
 30
0.0
210
0.0
220
0.0
230
1.0
  2
SOLID
 70
     1
 71
     0
 91
        1
 92
        1
 93
        1
 72
     4
 94
        3
 73
     0
 74
     1
 95
       41
 96
       37
 40
0.0
 40
0.0
 40
0.0
 40
0.0
 40
1.0
 40
1.0
 40
1.0
 40
2.0
 40
2.0
 40
2.0
 40
3.0
 40
3.0
 40
3.0
 40
4.0
 40
4.0
 40
4.0
 40
5.0
 40
5.0
 40
5.0
 40
6.0
 40
6.0
 40
6.0
 40
7.0
 40
7.0
 40
7.0
 40
8.0
 40
8.0
 40
8.0
 40
9.0
 40
9.0
 40
9.0
 40
10.0
 40
10.0
 40
10.0
 40
11.0
 40
11.0
 40
11.0
 40
12.0
 40
12.0
 40
12.0
 40
12.0
 10
153.7804497228396
 20
-269.5980142555172
 10
153.7807942323881
 20
-269.5983587650657
 10
153.7811387419367
 20
-269.5987032746143
 10
153.7814832514852
 20
-269.5990477841627
 10
154.2469156515425
 20
-270.0748154706757
 10
154.7178602043761
 20
-270.5457600235094
 10
155.1936278908891
 20
-271.0111924235667
 10
155.1939724004376
 20
-271.0115369331152
 10
155.1943169099862
 20
-271.0118814426637
 10
155.1946614195347
 20
-271.0122259522122
 10
155.1946614195347
 20
-271.0122259522122
 10
155.1946614195347
 20
-271.0122259522122
 10
155.1946614195347
 20
-271.0122259522122
 10
155.1946614195347
 20
-271.0122259522122
 10
155.1946614195347
 20
-271.0122259522122
 10
155.1946614195347
 20
-271.0122259522122
 10
155.1946614195347
 20
-271.0122259522122
 10
165.0782958571679
 20
-261.1282470050305
 10
165.0782958571679
 20
-261.1282470050305
 10
164.6008056229123
 20
-260.6631591145217
 10
164.1295165605301
 20
-260.191525542591
 10
163.6640841604729
 20
-259.7140353083354
 10
163.6640841604729
 20
-259.7140353083354
 10
162.7452771945567
 20
-260.6328422742515
 10
162.7452771945567
 20
-260.6328422742515
 10
162.7452771945567
 20
-260.6328422742515
 10
162.7452771945567
 20
-260.6328422742515
 10
162.7452771945567
 20
-260.6328422742515
 10
162.7452771945567
 20
-260.6328422742515
 10
153.7802774680653
 20
-269.5980142555172
 10
153.7802774680653
 20
-269.5980142555172
 10
153.7802774680653
 20
-269.5980142555172
 10
153.7804497228396
 20
-269.5980142555172
 10
153.7804497228396
 20
-269.5980142555172
 10
153.7804497228396
 20
-269.5980142555172
 10
153.7804497228396
 20
-269.5980142555172
 10
153.7804497228396
 20
-269.5980142555172
 97
        0
 75
     2
 76
     1
 98
        0
  0
SPLINE
  5
60
330
3E
100
AcDbEntity
  8
Wood_01_SensorSupport_3mmThick
370
     0
100
AcDbSpline
210
0.0
220
0.0
230
1.0
 70
    11
 71
     3
 72
    26
 73
    22
 74
     0
 42
0.0000000001
 43
0.0000000001
 40
0.0
 40
0.0
 40
0.0
 40
0.0
 40
1.0
 40
1.0
 40
1.0
 40
2.0
 40
2.0
 40
2.0
 40
3.0
 40
3.0
 40
3.0
 40
4.0
 40
4.0
 40
4.0
 40
5.0
 40
5.0
 40
5.0
 40
6.0
 40
6.0
 40
6.0
 40
7.0
 40
7.0
 40
7.0
 40
7.0
 10
256.2045165375114
 20
-273.1195908605396
 30
0.0
 10
256.2045165375114
 20
-273.1195908605396
 30
0.0
 10
256.7529757387632
 20
-274.0694036858229
 30
0.0
 10
256.7529757387632
 20
-274.0694036858229
 30
0.0
 10
256.7529757387632
 20
-274.0694036858229
 30
0.0
 10
263.1887586147584
 20
-285.2170436569943
 30
0.0
 10
263.1887586147584
 20
-285.2170436569943
 30
0.0
 10
263.76994622312
 20
-284.8907931145412
 30
0.0
 10
264.3490667741905
 20
-284.5604084575057
 30
0.0
 10
264.9233641915817
 20
-284.2217555713057
 30
0.0
 10
264.9233641915817
 20
-284.2217555713057
 30
0.0
 10
264.9237087011302
 20
-284.2214110617572
 30
0.0
 10
264.9237087011302
 20
-284.2214110617572
 30
0.0
 10
264.9237087011302
 20
-284.2214110617572
 30
0.0
 10
264.9237087011302
 20
-284.2214110617572
 30
0.0
 10
264.9237087011302
 20
-284.2214110617572
 30
0.0
 10
264.9237087011302
 20
-284.2214110617572
 30
0.0
 10
257.9377440761406
 20
-272.1212021889141
 30
0.0
 10
257.9377440761406
 20
-272.1212021889141
 30
0.0
 10
257.363791168298
 20
-272.4612331133083
 30
0.0
 10
256.7863931649701
 20
-272.794373846732
 30
0.0
 10
256.2045165375114
 20
-273.1195908605396
 30
0.0
  0
HATCH
  5
61
330
3E
100
AcDbEntity
  8
Wood_01_SensorSupport_3mmThick
 62
     7
100
AcDbHatch
 10
0.0
 20
0.0
 30
0.0
210
0.0
220
0.0
230
1.0
  2
SOLID
 70
     1
 71
     0
 91
        1
 92
        1
 93
        1
 72
     4
 94
        3
 73
     0
 74
     1
 95
       26
 96
       22
 40
0.0
 40
0.0
 40
0.0
 40
0.0
 40
1.0
 40
1.0
 40
1.0
 40
2.0
 40
2.0
 40
2.0
 40
3.0
 40
3.0
 40
3.0
 40
4.0
 40
4.0
 40
4.0
 40
5.0
 40
5.0
 40
5.0
 40
6.0
 40
6.0
 40
6.0
 40
7.0
 40
7.0
 40
7.0
 40
7.0
 10
256.2045165375114
 20
-273.1195908605396
 10
256.2045165375114
 20
-273.1195908605396
 10
256.7529757387632
 20
-274.0694036858229
 10
256.7529757387632
 20
-274.0694036858229
 10
256.7529757387632
 20
-274.0694036858229
 10
263.1887586147584
 20
-285.2170436569943
 10
263.1887586147584
 20
-285.2170436569943
 10
263.76994622312
 20
-284.8907931145412
 10
264.3490667741905
 20
-284.5604084575057
 10
264.9233641915817
 20
-284.2217555713057
 10
264.9233641915817
 20
-284.2217555713057
 10
264.9237087011302
 20
-284.2214110617572
 10
264.9237087011302
 20
-284.2214110617572
 10
264.9237087011302
 20
-284.2214110617572
 10
264.9237087011302
 20
-284.2214110617572
 10
264.9237087011302
 20
-284.2214110617572
 10
264.9237087011302
 20
-284.2214110617572
 10
257.9377440761406
 20
-272.1212021889141
 10
257.9377440761406
 20
-272.1212021889141
 10
257.363791168298
 20
-272.4612331133083
 10
256.7863931649701
 20
-272.794373846732
 10
256.2045165375114
 20
-273.1195908605396
 97
        0
 75
     2
 76
     1
 98
        0
  0
SPLINE
  5
62
330
3E
100
AcDbEntity
  8
Wood_01_SensorSupport_3mmThick
370
     0
100
AcDbSpline
210
0.0
220
0.0
230
1.0
 70
    11
 71
     3
 72
    23
 73
    19
 74
     0
 42
0.0000000001
 43
0.0000000001
 40
0.0
 40
0.0
 40
0.0
 40
0.0
 40
1.0
 40
1.0
 40
1.0
 40
2.0
 40
2.0
 40
2.0
 40
3.0
 40
3.0
 40
3.0
 40
4.0
 40
4.0
 40
4.0
 40
5.0
 40
5.0
 40
5.0
 40
6.0
 40
6.0
 40
6.0
 40
6.0
 10
197.4838975200735
 20
-130.8929578665823
 30
0.0
 10
197.4838975200735
 20
-130.8929578665823
 30
0.0
 10
197.8204833489824
 20
-132.1486951709559
 30
0.0
 10
197.8204833489824
 20
-132.1486951709559
 30
0.0
 10
198.4610988544646
 20
-131.9678276579803
 30
0.0
 10
199.1053317102063
 20
-131.7960896480406
 30
0.0
 10
199.7524928971105
 20
-131.6315863386199
 30
0.0
 10
199.7524928971105
 20
-131.6315863386199
 30
0.0
 10
196.1322143064357
 20
-118.1202663550185
 30
0.0
 10
196.1322143064357
 20
-118.1202663550185
 30
0.0
 10
195.4852253743058
 20
-118.2861477026333
 30
0.0
 10
194.8420260472096
 20
-118.4609862985098
 30
0.0
 10
194.2008937774046
 20
-118.6406480280655
 30
0.0
 10
194.2008937774046
 20
-118.6406480280655
 30
0.0
 10
197.4838975200735
 20
-130.8929578665823
 30
0.0
 10
197.4838975200735
 20
-130.8929578665823
 30
0.0
 10
197.4838975200735
 20
-130.8929578665823
 30
0.0
 10
197.4838975200735
 20
-130.8929578665823
 30
0.0
 10
197.4838975200735
 20
-130.8929578665823
 30
0.0
  0
HATCH
  5
63
330
3E
100
AcDbEntity
  8
Wood_01_SensorSupport_3mmThick
 62
     7
100
AcDbHatch
 10
0.0
 20
0.0
 30
0.0
210
0.0
220
0.0
230
1.0
  2
SOLID
 70
     1
 71
     0
 91
        1
 92
        1
 93
        1
 72
     4
 94
        3
 73
     0
 74
     1
 95
       23
 96
       19
 40
0.0
 40
0.0
 40
0.0
 40
0.0
 40
1.0
 40
1.0
 40
1.0
 40
2.0
 40
2.0
 40
2.0
 40
3.0
 40
3.0
 40
3.0
 40
4.0
 40
4.0
 40
4.0
 40
5.0
 40
5.0
 40
5.0
 40
6.0
 40
6.0
 40
6.0
 40
6.0
 10
197.4838975200735
 20
-130.8929578665823
 10
197.4838975200735
 20
-130.8929578665823
 10
197.8204833489824
 20
-132.1486951709559
 10
197.8204833489824
 20
-132.1486951709559
 10
198.4610988544646
 20
-131.9678276579803
 10
199.1053317102063
 20
-131.7960896480406
 10
199.7524928971105
 20
-131.6315863386199
 10
199.7524928971105
 20
-131.6315863386199
 10
196.1322143064357
 20
-118.1202663550185
 10
196.1322143064357
 20
-118.1202663550185
 10
195.4852253743058
 20
-118.2861477026333
 10
194.8420260472096
 20
-118.4609862985098
 10
194.2008937774046
 20
-118.6406480280655
 10
194.2008937774046
 20
-118.6406480280655
 10
197.4838975200735
 20
-130.8929578665823
 10
197.4838975200735
 20
-130.8929578665823
 10
197.4838975200735
 20
-130.8929578665823
 10
197.4838975200735
 20
-130.8929578665823
 10
197.4838975200735
 20
-130.8929578665823
 97
        0
 75
     2
 76
     1
 98
        0
  0
SPLINE
  5
64
330
3E
100
AcDbEntity
  8
Wood_01_SensorSupport_3mmThick
370
     0
100
AcDbSpline
210
0.0
220
0.0
230
1.0
 70
    11
 71
     3
 72
    23
 73
    19
 74
     0
 42
0.0000000001
 43
0.0000000001
 40
0.0
 40
0.0
 40
0.0
 40
0.0
 40
1.0
 40
1.0
 40
1.0
 40
2.0
 40
2.0
 40
2.0
 40
3.0
 40
3.0
 40
3.0
 40
4.0
 40
4.0
 40
4.0
 40
5.0
 40
5.0
 40
5.0
 40
6.0
 40
6.0
 40
6.0
 40
6.0
 10
142.933911097079
 20
-225.3767686068502
 30
0.0
 10
142.933911097079
 20
-225.3767686068502
 30
0.0
 10
142.933911097079
 20
-225.3767686068502
 30
0.0
 10
142.933911097079
 20
-225.3767686068502
 30
0.0
 10
142.933911097079
 20
-225.3767686068502
 30
0.0
 10
130.6800509655939
 20
-228.6599446042933
 30
0.0
 10
130.6800509655939
 20
-228.6599446042933
 30
0.0
 10
130.8459323132087
 20
-229.3065890268747
 30
0.0
 10
131.0169813040513
 20
-229.951166392165
 30
0.0
 10
131.1966430336071
 20
-230.59229866197
 30
0.0
 10
131.1966430336071
 20
-230.59229866197
 30
0.0
 10
144.7071017433371
 20
-226.9721923260695
 30
0.0
 10
144.7071017433371
 20
-226.9721923260695
 30
0.0
 10
144.5262342303615
 20
-226.331404565813
 30
0.0
 10
144.3546684751961
 20
-225.6875162196198
 30
0.0
 10
144.1899929110011
 20
-225.0401827779413
 30
0.0
 10
144.1899929110011
 20
-225.0401827779413
 30
0.0
 10
142.933911097079
 20
-225.3767686068502
 30
0.0
 10
142.933911097079
 20
-225.3767686068502
 30
0.0
  0
HATCH
  5
65
330
3E
100
AcDbEntity
  8
Wood_01_SensorSupport_3mmThick
 62
     7
100
AcDbHatch
 10
0.0
 20
0.0
 30
0.0
210
0.0
220
0.0
230
1.0
  2
SOLID
 70
     1
 71
     0
 91
        1
 92
        1
 93
        1
 72
     4
 94
        3
 73
     0
 74
     1
 95
       23
 96
       19
 40
0.0
 40
0.0
 40
0.0
 40
0.0
 40
1.0
 40
1.0
 40
1.0
 40
2.0
 40
2.0
 40
2.0
 40
3.0
 40
3.0
 40
3.0
 40
4.0
 40
4.0
 40
4.0
 40
5.0
 40
5.0
 40
5.0
 40
6.0
 40
6.0
 40
6.0
 40
6.0
 10
142.933911097079
 20
-225.3767686068502
 10
142.933911097079
 20
-225.3767686068502
 10
142.933911097079
 20
-225.3767686068502
 10
142.933911097079
 20
-225.3767686068502
 10
142.933911097079
 20
-225.3767686068502
 10
130.6800509655939
 20
-228.6599446042933
 10
130.6800509655939
 20
-228.6599446042933
 10
130.8459323132087
 20
-229.3065890268747
 10
131.0169813040513
 20
-229.951166392165
 10
131.1966430336071
 20
-230.59229866197
 10
131.1966430336071
 20
-230.59229866197
 10
144.7071017433371
 20
-226.9721923260695
 10
144.7071017433371
 20
-226.9721923260695
 10
144.5262342303615
 20
-226.331404565813
 10
144.3546684751961
 20
-225.6875162196198
 10
144.1899929110011
 20
-225.0401827779413
 10
144.1899929110011
 20
-225.0401827779413
 10
142.933911097079
 20
-225.3767686068502
 10
142.933911097079
 20
-225.3767686068502
 97
        0
 75
     2
 76
     1
 98
        0
  0
SPLINE
  5
66
330
3E
100
AcDbEntity
  8
Wood_01_SensorSupport_3mmThick
370
     0
100
AcDbSpline
210
0.0
220
0.0
230
1.0
 70
    11
 71
     3
 72
    23
 73
    19
 74
     0
 42
0.0000000001
 43
0.0000000001
 40
0.0
 40
0.0
 40
0.0
 40
0.0
 40
1.0
 40
1.0
 40
1.0
 40
2.0
 40
2.0
 40
2.0
 40
3.0
 40
3.0
 40
3.0
 40
4.0
 40
4.0
 40
4.0
 40
5.0
 40
5.0
 40
5.0
 40
6.0
 40
6.0
 40
6.0
 40
6.0
 10
130.6783284178512
 20
-183.5736354792802
 30
0.0
 10
130.6783284178512
 20
-183.5736354792802
 30
0.0
 10
142.933911097079
 20
-186.8578450053689
 30
0.0
 10
142.933911097079
 20
-186.8578450053689
 30
0.0
 10
142.933911097079
 20
-186.8578450053689
 30
0.0
 10
142.933911097079
 20
-186.8575004958203
 30
0.0
 10
142.933911097079
 20
-186.8575004958203
 30
0.0
 10
142.933911097079
 20
-186.8575004958203
 30
0.0
 10
144.1899929110011
 20
-187.1940863247293
 30
0.0
 10
144.1899929110011
 20
-187.1940863247293
 30
0.0
 10
144.3546684751961
 20
-186.5467528830508
 30
0.0
 10
144.5262342303615
 20
-185.9025200273091
 30
0.0
 10
144.7071017433371
 20
-185.2620767766012
 30
0.0
 10
144.7071017433371
 20
-185.2620767766012
 30
0.0
 10
131.1987100908982
 20
-181.6426594597977
 30
0.0
 10
131.1987100908982
 20
-181.6426594597977
 30
0.0
 10
131.0190483613425
 20
-182.2837917296027
 30
0.0
 10
130.8440375106918
 20
-182.9269910566988
 30
0.0
 10
130.6783284178512
 20
-183.5736354792802
 30
0.0
  0
HATCH
  5
67
330
3E
100
AcDbEntity
  8
Wood_01_SensorSupport_3mmThick
 62
     7
100
AcDbHatch
 10
0.0
 20
0.0
 30
0.0
210
0.0
220
0.0
230
1.0
  2
SOLID
 70
     1
 71
     0
 91
        1
 92
        1
 93
        1
 72
     4
 94
        3
 73
     0
 74
     1
 95
       23
 96
       19
 40
0.0
 40
0.0
 40
0.0
 40
0.0
 40
1.0
 40
1.0
 40
1.0
 40
2.0
 40
2.0
 40
2.0
 40
3.0
 40
3.0
 40
3.0
 40
4.0
 40
4.0
 40
4.0
 40
5.0
 40
5.0
 40
5.0
 40
6.0
 40
6.0
 40
6.0
 40
6.0
 10
130.6783284178512
 20
-183.5736354792802
 10
130.6783284178512
 20
-183.5736354792802
 10
142.933911097079
 20
-186.8578450053689
 10
142.933911097079
 20
-186.8578450053689
 10
142.933911097079
 20
-186.8578450053689
 10
142.933911097079
 20
-186.8575004958203
 10
142.933911097079
 20
-186.8575004958203
 10
142.933911097079
 20
-186.8575004958203
 10
144.1899929110011
 20
-187.1940863247293
 10
144.1899929110011
 20
-187.1940863247293
 10
144.3546684751961
 20
-186.5467528830508
 10
144.5262342303615
 20
-185.9025200273091
 10
144.7071017433371
 20
-185.2620767766012
 10
144.7071017433371
 20
-185.2620767766012
 10
131.1987100908982
 20
-181.6426594597977
 10
131.1987100908982
 20
-181.6426594597977
 10
131.0190483613425
 20
-182.2837917296027
 10
130.8440375106918
 20
-182.9269910566988
 10
130.6783284178512
 20
-183.5736354792802
 97
        0
 75
     2
 76
     1
 98
        0
  0
SPLINE
  5
68
330
3E
100
AcDbEntity
  8
Wood_01_SensorSupport_3mmThick
370
     0
100
AcDbSpline
210
0.0
220
0.0
230
1.0
 70
    11
 71
     3
 72
    23
 73
    19
 74
     0
 42
0.0000000001
 43
0.0000000001
 40
0.0
 40
0.0
 40
0.0
 40
0.0
 40
1.0
 40
1.0
 40
1.0
 40
2.0
 40
2.0
 40
2.0
 40
3.0
 40
3.0
 40
3.0
 40
4.0
 40
4.0
 40
4.0
 40
5.0
 40
5.0
 40
5.0
 40
6.0
 40
6.0
 40
6.0
 40
6.0
 10
178.7511908190275
 20
-138.9658501171683
 30
0.0
 10
178.7511908190275
 20
-138.9658501171683
 30
0.0
 10
179.4009358275456
 20
-140.0913628121994
 30
0.0
 10
179.4009358275456
 20
-140.0913628121994
 30
0.0
 10
179.9729939328713
 20
-139.7496093400626
 30
0.0
 10
180.5498751718764
 20
-139.4157795875419
 30
0.0
 10
181.1314072897866
 20
-139.0888400259917
 30
0.0
 10
181.1314072897866
 20
-139.0888400259917
 30
0.0
 10
174.1404472763434
 20
-126.9801906692098
 30
0.0
 10
174.1404472763434
 20
-126.9801906692098
 30
0.0
 10
173.5596041775302
 20
-127.3083360141799
 30
0.0
 10
172.9830674480737
 20
-127.6431992953462
 30
0.0
 10
172.4101480688767
 20
-127.9835747292888
 30
0.0
 10
172.4101480688767
 20
-127.9835747292888
 30
0.0
 10
178.750846309479
 20
-138.9658501171683
 30
0.0
 10
178.750846309479
 20
-138.9658501171683
 30
0.0
 10
178.750846309479
 20
-138.9658501171683
 30
0.0
 10
178.7511908190275
 20
-138.9658501171683
 30
0.0
 10
178.7511908190275
 20
-138.9658501171683
 30
0.0
  0
HATCH
  5
69
330
3E
100
AcDbEntity
  8
Wood_01_SensorSupport_3mmThick
 62
     7
100
AcDbHatch
 10
0.0
 20
0.0
 30
0.0
210
0.0
220
0.0
230
1.0
  2
SOLID
 70
     1
 71
     0
 91
        1
 92
        1
 93
        1
 72
     4
 94
        3
 73
     0
 74
     1
 95
       23
 96
       19
 40
0.0
 40
0.0
 40
0.0
 40
0.0
 40
1.0
 40
1.0
 40
1.0
 40
2.0
 40
2.0
 40
2.0
 40
3.0
 40
3.0
 40
3.0
 40
4.0
 40
4.0
 40
4.0
 40
5.0
 40
5.0
 40
5.0
 40
6.0
 40
6.0
 40
6.0
 40
6.0
 10
178.7511908190275
 20
-138.9658501171683
 10
178.7511908190275
 20
-138.9658501171683
 10
179.4009358275456
 20
-140.0913628121994
 10
179.4009358275456
 20
-140.0913628121994
 10
179.9729939328713
 20
-139.7496093400626
 10
180.5498751718764
 20
-139.4157795875419
 10
181.1314072897866
 20
-139.0888400259917
 10
181.1314072897866
 20
-139.0888400259917
 10
174.1404472763434
 20
-126.9801906692098
 10
174.1404472763434
 20
-126.9801906692098
 10
173.5596041775302
 20
-127.3083360141799
 10
172.9830674480737
 20
-127.6431992953462
 10
172.4101480688767
 20
-127.9835747292888
 10
172.4101480688767
 20
-127.9835747292888
 10
178.750846309479
 20
-138.9658501171683
 10
178.750846309479
 20
-138.9658501171683
 10
178.750846309479
 20
-138.9658501171683
 10
178.7511908190275
 20
-138.9658501171683
 10
178.7511908190275
 20
-138.9658501171683
 97
        0
 75
     2
 76
     1
 98
        0
  0
SPLINE
  5
6A
330
3E
100
AcDbEntity
  8
Wood_01_SensorSupport_3mmThick
370
     0
100
AcDbSpline
210
0.0
220
0.0
230
1.0
 70
    11
 71
     3
 72
    23
 73
    19
 74
     0
 42
0.0000000001
 43
0.0000000001
 40
0.0
 40
0.0
 40
0.0
 40
0.0
 40
1.0
 40
1.0
 40
1.0
 40
2.0
 40
2.0
 40
2.0
 40
3.0
 40
3.0
 40
3.0
 40
4.0
 40
4.0
 40
4.0
 40
5.0
 40
5.0
 40
5.0
 40
6.0
 40
6.0
 40
6.0
 40
6.0
 10
150.5217339033418
 20
-167.9229111993387
 30
0.0
 10
150.5217339033418
 20
-167.9229111993387
 30
0.0
 10
151.6472465983729
 20
-168.5730007174054
 30
0.0
 10
151.6472465983729
 20
-168.5730007174054
 30
0.0
 10
151.9741861599231
 20
-167.9914685994952
 30
0.0
 10
152.3081881672181
 20
-167.4144151057158
 30
0.0
 10
152.6497693845806
 20
-166.8425292551644
 30
0.0
 10
152.6497693845806
 20
-166.8425292551644
 30
0.0
 10
140.5418090468958
 20
-159.8517414964954
 30
0.0
 10
140.5418090468958
 20
-159.8517414964954
 30
0.0
 10
140.2012613581789
 20
-160.4246608756925
 30
0.0
 10
139.8665703317868
 20
-161.0010253503748
 30
0.0
 10
139.5384249868168
 20
-161.5818684491879
 30
0.0
 10
139.5384249868168
 20
-161.5818684491879
 30
0.0
 10
150.5217339033418
 20
-167.9232557088872
 30
0.0
 10
150.5217339033418
 20
-167.9232557088872
 30
0.0
 10
150.5217339033418
 20
-167.9232557088872
 30
0.0
 10
150.5217339033418
 20
-167.9229111993387
 30
0.0
 10
150.5217339033418
 20
-167.9229111993387
 30
0.0
  0
HATCH
  5
6B
330
3E
100
AcDbEntity
  8
Wood_01_SensorSupport_3mmThick
 62
     7
100
AcDbHatch
 10
0.0
 20
0.0
 30
0.0
210
0.0
220
0.0
230
1.0
  2
SOLID
 70
     1
 71
     0
 91
        1
 92
        1
 93
        1
 72
     4
 94
        3
 73
     0
 74
     1
 95
       23
 96
       19
 40
0.0
 40
0.0
 40
0.0
 40
0.0
 40
1.0
 40
1.0
 40
1.0
 40
2.0
 40
2.0
 40
2.0
 40
3.0
 40
3.0
 40
3.0
 40
4.0
 40
4.0
 40
4.0
 40
5.0
 40
5.0
 40
5.0
 40
6.0
 40
6.0
 40
6.0
 40
6.0
 10
150.5217339033418
 20
-167.9229111993387
 10
150.5217339033418
 20
-167.9229111993387
 10
151.6472465983729
 20
-168.5730007174054
 10
151.6472465983729
 20
-168.5730007174054
 10
151.9741861599231
 20
-167.9914685994952
 10
152.3081881672181
 20
-167.4144151057158
 10
152.6497693845806
 20
-166.8425292551644
 10
152.6497693845806
 20
-166.8425292551644
 10
140.5418090468958
 20
-159.8517414964954
 10
140.5418090468958
 20
-159.8517414964954
 10
140.2012613581789
 20
-160.4246608756925
 10
139.8665703317868
 20
-161.0010253503748
 10
139.5384249868168
 20
-161.5818684491879
 10
139.5384249868168
 20
-161.5818684491879
 10
150.5217339033418
 20
-167.9232557088872
 10
150.5217339033418
 20
-167.9232557088872
 10
150.5217339033418
 20
-167.9232557088872
 10
150.5217339033418
 20
-167.9229111993387
 10
150.5217339033418
 20
-167.9229111993387
 97
        0
 75
     2
 76
     1
 98
        0
  0
SPLINE
  5
6C
330
3E
100
AcDbEntity
  8
Wood_01_SensorSupport_3mmThick
370
     0
100
AcDbSpline
210
0.0
220
0.0
230
1.0
 70
    11
 71
     3
 72
    23
 73
    19
 74
     0
 42
0.0000000001
 43
0.0000000001
 40
0.0
 40
0.0
 40
0.0
 40
0.0
 40
1.0
 40
1.0
 40
1.0
 40
2.0
 40
2.0
 40
2.0
 40
3.0
 40
3.0
 40
3.0
 40
4.0
 40
4.0
 40
4.0
 40
5.0
 40
5.0
 40
5.0
 40
6.0
 40
6.0
 40
6.0
 40
6.0
 10
162.7456217041053
 20
-151.6010823188706
 30
0.0
 10
162.7456217041053
 20
-151.6010823188706
 30
0.0
 10
163.6640841604729
 20
-152.5198892847867
 30
0.0
 10
163.6640841604729
 20
-152.5198892847867
 30
0.0
 10
164.1295165605301
 20
-152.0423990505311
 30
0.0
 10
164.6008056229123
 20
-151.5711099881489
 30
0.0
 10
165.0782958571679
 20
-151.1056775880917
 30
0.0
 10
165.0782958571679
 20
-151.1056775880917
 30
0.0
 10
155.1946614195347
 20
-141.2220431504584
 30
0.0
 10
155.1946614195347
 20
-141.2220431504584
 30
0.0
 10
154.7182047139246
 20
-141.6881645696127
 30
0.0
 10
154.2467433967682
 20
-142.1597981415434
 30
0.0
 10
153.7804497228396
 20
-142.6362548471535
 30
0.0
 10
153.7804497228396
 20
-142.6362548471535
 30
0.0
 10
162.745449449331
 20
-151.6010823188706
 30
0.0
 10
162.745449449331
 20
-151.6010823188706
 30
0.0
 10
162.745449449331
 20
-151.6010823188706
 30
0.0
 10
162.7456217041053
 20
-151.6010823188706
 30
0.0
 10
162.7456217041053
 20
-151.6010823188706
 30
0.0
  0
HATCH
  5
6D
330
3E
100
AcDbEntity
  8
Wood_01_SensorSupport_3mmThick
 62
     7
100
AcDbHatch
 10
0.0
 20
0.0
 30
0.0
210
0.0
220
0.0
230
1.0
  2
SOLID
 70
     1
 71
     0
 91
        1
 92
        1
 93
        1
 72
     4
 94
        3
 73
     0
 74
     1
 95
       23
 96
       19
 40
0.0
 40
0.0
 40
0.0
 40
0.0
 40
1.0
 40
1.0
 40
1.0
 40
2.0
 40
2.0
 40
2.0
 40
3.0
 40
3.0
 40
3.0
 40
4.0
 40
4.0
 40
4.0
 40
5.0
 40
5.0
 40
5.0
 40
6.0
 40
6.0
 40
6.0
 40
6.0
 10
162.7456217041053
 20
-151.6010823188706
 10
162.7456217041053
 20
-151.6010823188706
 10
163.6640841604729
 20
-152.5198892847867
 10
163.6640841604729
 20
-152.5198892847867
 10
164.1295165605301
 20
-152.0423990505311
 10
164.6008056229123
 20
-151.5711099881489
 10
165.0782958571679
 20
-151.1056775880917
 10
165.0782958571679
 20
-151.1056775880917
 10
155.1946614195347
 20
-141.2220431504584
 10
155.1946614195347
 20
-141.2220431504584
 10
154.7182047139246
 20
-141.6881645696127
 10
154.2467433967682
 20
-142.1597981415434
 10
153.7804497228396
 20
-142.6362548471535
 10
153.7804497228396
 20
-142.6362548471535
 10
162.745449449331
 20
-151.6010823188706
 10
162.745449449331
 20
-151.6010823188706
 10
162.745449449331
 20
-151.6010823188706
 10
162.7456217041053
 20
-151.6010823188706
 10
162.7456217041053
 20
-151.6010823188706
 97
        0
 75
     2
 76
     1
 98
        0
  0
SPLINE
  5
6E
330
3E
100
AcDbEntity
  8
Wood_01_SensorSupport_3mmThick
370
     0
100
AcDbSpline
210
0.0
220
0.0
230
1.0
 70
    11
 71
     3
 72
    23
 73
    19
 74
     0
 42
0.0000000001
 43
0.0000000001
 40
0.0
 40
0.0
 40
0.0
 40
0.0
 40
1.0
 40
1.0
 40
1.0
 40
2.0
 40
2.0
 40
2.0
 40
3.0
 40
3.0
 40
3.0
 40
4.0
 40
4.0
 40
4.0
 40
5.0
 40
5.0
 40
5.0
 40
6.0
 40
6.0
 40
6.0
 40
6.0
 10
152.6497693845806
 20
-245.3917398475062
 30
0.0
 10
152.3081881672181
 20
-244.8198539969548
 30
0.0
 10
151.9741861599231
 20
-244.2428005031754
 30
0.0
 10
151.6472465983729
 20
-243.6612683852653
 30
0.0
 10
151.6472465983729
 20
-243.6612683852653
 30
0.0
 10
150.5217339033418
 20
-244.3110133937834
 30
0.0
 10
150.5217339033418
 20
-244.3110133937834
 30
0.0
 10
150.5217339033418
 20
-244.3110133937834
 30
0.0
 10
150.5215616485675
 20
-244.3110133937834
 30
0.0
 10
150.5215616485675
 20
-244.3110133937834
 30
0.0
 10
150.5215616485675
 20
-244.3110133937834
 30
0.0
 10
139.537908222494
 20
-250.6524006534827
 30
0.0
 10
139.537908222494
 20
-250.6524006534827
 30
0.0
 10
139.866053567464
 20
-251.2332437522959
 30
0.0
 10
140.2019503772759
 20
-251.8092637174296
 30
0.0
 10
140.5424980659928
 20
-252.3818385870782
 30
0.0
 10
140.5424980659928
 20
-252.3818385870782
 30
0.0
 10
152.6497693845806
 20
-245.3917398475062
 30
0.0
 10
152.6497693845806
 20
-245.3917398475062
 30
0.0
  0
HATCH
  5
6F
330
3E
100
AcDbEntity
  8
Wood_01_SensorSupport_3mmThick
 62
     7
100
AcDbHatch
 10
0.0
 20
0.0
 30
0.0
210
0.0
220
0.0
230
1.0
  2
SOLID
 70
     1
 71
     0
 91
        1
 92
        1
 93
        1
 72
     4
 94
        3
 73
     0
 74
     1
 95
       23
 96
       19
 40
0.0
 40
0.0
 40
0.0
 40
0.0
 40
1.0
 40
1.0
 40
1.0
 40
2.0
 40
2.0
 40
2.0
 40
3.0
 40
3.0
 40
3.0
 40
4.0
 40
4.0
 40
4.0
 40
5.0
 40
5.0
 40
5.0
 40
6.0
 40
6.0
 40
6.0
 40
6.0
 10
152.6497693845806
 20
-245.3917398475062
 10
152.3081881672181
 20
-244.8198539969548
 10
151.9741861599231
 20
-244.2428005031754
 10
151.6472465983729
 20
-243.6612683852653
 10
151.6472465983729
 20
-243.6612683852653
 10
150.5217339033418
 20
-244.3110133937834
 10
150.5217339033418
 20
-244.3110133937834
 10
150.5217339033418
 20
-244.3110133937834
 10
150.5215616485675
 20
-244.3110133937834
 10
150.5215616485675
 20
-244.3110133937834
 10
150.5215616485675
 20
-244.3110133937834
 10
139.537908222494
 20
-250.6524006534827
 10
139.537908222494
 20
-250.6524006534827
 10
139.866053567464
 20
-251.2332437522959
 10
140.2019503772759
 20
-251.8092637174296
 10
140.5424980659928
 20
-252.3818385870782
 10
140.5424980659928
 20
-252.3818385870782
 10
152.6497693845806
 20
-245.3917398475062
 10
152.6497693845806
 20
-245.3917398475062
 97
        0
 75
     2
 76
     1
 98
        0
  0
ENDBLK
  5
41
330
3E
100
AcDbEntity
  8
0
100
AcDbBlockEnd
  0
ENDSEC
  0
SECTION
  2
ENTITIES
  0
INSERT
  5
3F
330
1F
100
AcDbEntity
  8
Wood_01_SensorSupport_3mmThick
100
AcDbBlockReference
  2
block 2
 10
0.0
 20
0.0
 30
0.0
  0
POLYLINE
  5
70
330
1F
100
AcDbEntity
  8
Wood_01_SensorSupport_3mmThick
370
     0
100
AcDb2dPolyline
 66
     1
 10
0.0
 20
0.0
 30
0.0
  0
VERTEX
  5
71
330
70
100
AcDbEntity
  8
Wood_01_SensorSupport_3mmThick
370
     0
100
AcDbVertex
100
AcDb2dVertex
 10
288.0358207830258
 20
-134.9461127049788
 30
0.0
  0
VERTEX
  5
72
330
70
100
AcDbEntity
  8
Wood_01_SensorSupport_3mmThick
370
     0
100
AcDbVertex
100
AcDb2dVertex
 10
302.0201523767519
 20
-134.9461127049788
 30
0.0
  0
VERTEX
  5
73
330
70
100
AcDbEntity
  8
Wood_01_SensorSupport_3mmThick
370
     0
100
AcDbVertex
100
AcDb2dVertex
 10
302.0201523767519
 20
-132.9462347757912
 30
0.0
  0
VERTEX
  5
74
330
70
100
AcDbEntity
  8
Wood_01_SensorSupport_3mmThick
370
     0
100
AcDbVertex
100
AcDb2dVertex
 10
288.0358207830258
 20
-132.9462347757912
 30
0.0
  0
VERTEX
  5
75
330
70
100
AcDbEntity
  8
Wood_01_SensorSupport_3mmThick
370
     0
100
AcDbVertex
100
AcDb2dVertex
 10
288.0358207830258
 20
-134.9461127049788
 30
0.0
  0
SEQEND
  5
76
330
70
100
AcDbEntity
  8
Wood_01_SensorSupport_3mmThick
370
     0
  0
HATCH
  5
77
330
1F
100
AcDbEntity
  8
Wood_01_SensorSupport_3mmThick
 62
     7
100
AcDbHatch
 10
0.0
 20
0.0
 30
0.0
210
0.0
220
0.0
230
1.0
  2
SOLID
 70
     1
 71
     0
 91
        1
 92
        1
 93
        4
 72
     1
 10
288.0358207830258
 20
-134.9461127049788
 11
302.0201523767519
 21
-134.9461127049788
 72
     1
 10
302.0201523767519
 20
-134.9461127049788
 11
302.0201523767519
 21
-132.9462347757912
 72
     1
 10
302.0201523767519
 20
-132.9462347757912
 11
288.0358207830258
 21
-132.9462347757912
 72
     1
 10
288.0358207830258
 20
-132.9462347757912
 11
288.0358207830258
 21
-134.9461127049788
 97
        0
 75
     2
 76
     1
 98
        0
  0
POLYLINE
  5
78
330
1F
100
AcDbEntity
  8
Wood_01_SensorSupport_3mmThick
370
     0
100
AcDb2dPolyline
 66
     1
 10
0.0
 20
0.0
 30
0.0
  0
VERTEX
  5
79
330
78
100
AcDbEntity
  8
Wood_01_SensorSupport_3mmThick
370
     0
100
AcDbVertex
100
AcDb2dVertex
 10
288.0358207830258
 20
-153.6054388721889
 30
0.0
  0
VERTEX
  5
7A
330
78
100
AcDbEntity
  8
Wood_01_SensorSupport_3mmThick
370
     0
100
AcDbVertex
100
AcDb2dVertex
 10
302.0201523767519
 20
-153.6054388721889
 30
0.0
  0
VERTEX
  5
7B
330
78
100
AcDbEntity
  8
Wood_01_SensorSupport_3mmThick
370
     0
100
AcDbVertex
100
AcDb2dVertex
 10
302.0201523767519
 20
-151.6055609430014
 30
0.0
  0
VERTEX
  5
7C
330
78
100
AcDbEntity
  8
Wood_01_SensorSupport_3mmThick
370
     0
100
AcDbVertex
100
AcDb2dVertex
 10
288.0358207830258
 20
-151.6055609430014
 30
0.0
  0
VERTEX
  5
7D
330
78
100
AcDbEntity
  8
Wood_01_SensorSupport_3mmThick
370
     0
100
AcDbVertex
100
AcDb2dVertex
 10
288.0358207830258
 20
-153.6054388721889
 30
0.0
  0
SEQEND
  5
7E
330
78
100
AcDbEntity
  8
Wood_01_SensorSupport_3mmThick
370
     0
  0
HATCH
  5
7F
330
1F
100
AcDbEntity
  8
Wood_01_SensorSupport_3mmThick
 62
     7
100
AcDbHatch
 10
0.0
 20
0.0
 30
0.0
210
0.0
220
0.0
230
1.0
  2
SOLID
 70
     1
 71
     0
 91
        1
 92
        1
 93
        4
 72
     1
 10
288.0358207830258
 20
-153.6054388721889
 11
302.0201523767519
 21
-153.6054388721889
 72
     1
 10
302.0201523767519
 20
-153.6054388721889
 11
302.0201523767519
 21
-151.6055609430014
 72
     1
 10
302.0201523767519
 20
-151.6055609430014
 11
288.0358207830258
 21
-151.6055609430014
 72
     1
 10
288.0358207830258
 20
-151.6055609430014
 11
288.0358207830258
 21
-153.6054388721889
 97
        0
 75
     2
 76
     1
 98
        0
  0
POLYLINE
  5
80
330
1F
100
AcDbEntity
  8
Wood_01_SensorSupport_3mmThick
370
     0
100
AcDb2dPolyline
 66
     1
 10
0.0
 20
0.0
 30
0.0
  0
VERTEX
  5
81
330
80
100
AcDbEntity
  8
Wood_01_SensorSupport_3mmThick
370
     0
100
AcDbVertex
100
AcDb2dVertex
 10
288.0358207830258
 20
-172.2644205298506
 30
0.0
  0
VERTEX
  5
82
330
80
100
AcDbEntity
  8
Wood_01_SensorSupport_3mmThick
370
     0
100
AcDbVertex
100
AcDb2dVertex
 10
302.0201523767519
 20
-172.2644205298506
 30
0.0
  0
VERTEX
  5
83
330
80
100
AcDbEntity
  8
Wood_01_SensorSupport_3mmThick
370
     0
100
AcDbVertex
100
AcDb2dVertex
 10
302.0201523767519
 20
-170.264542600663
 30
0.0
  0
VERTEX
  5
84
330
80
100
AcDbEntity
  8
Wood_01_SensorSupport_3mmThick
370
     0
100
AcDbVertex
100
AcDb2dVertex
 10
288.0358207830258
 20
-170.264542600663
 30
0.0
  0
VERTEX
  5
85
330
80
100
AcDbEntity
  8
Wood_01_SensorSupport_3mmThick
370
     0
100
AcDbVertex
100
AcDb2dVertex
 10
288.0358207830258
 20
-172.2644205298506
 30
0.0
  0
SEQEND
  5
86
330
80
100
AcDbEntity
  8
Wood_01_SensorSupport_3mmThick
370
     0
  0
HATCH
  5
87
330
1F
100
AcDbEntity
  8
Wood_01_SensorSupport_3mmThick
 62
     7
100
AcDbHatch
 10
0.0
 20
0.0
 30
0.0
210
0.0
220
0.0
230
1.0
  2
SOLID
 70
     1
 71
     0
 91
        1
 92
        1
 93
        4
 72
     1
 10
288.0358207830258
 20
-172.2644205298506
 11
302.0201523767519
 21
-172.2644205298506
 72
     1
 10
302.0201523767519
 20
-172.2644205298506
 11
302.0201523767519
 21
-170.264542600663
 72
     1
 10
302.0201523767519
 20
-170.264542600663
 11
288.0358207830258
 21
-170.264542600663
 72
     1
 10
288.0358207830258
 20
-170.264542600663
 11
288.0358207830258
 21
-172.2644205298506
 97
        0
 75
     2
 76
     1
 98
        0
  0
POLYLINE
  5
88
330
1F
100
AcDbEntity
  8
Wood_01_SensorSupport_3mmThick
370
     0
100
AcDb2dPolyline
 66
     1
 10
0.0
 20
0.0
 30
0.0
  0
VERTEX
  5
89
330
88
100
AcDbEntity
  8
Wood_01_SensorSupport_3mmThick
370
     0
100
AcDbVertex
100
AcDb2dVertex
 10
288.0358207830258
 20
-190.9237466970607
 30
0.0
  0
VERTEX
  5
8A
330
88
100
AcDbEntity
  8
Wood_01_SensorSupport_3mmThick
370
     0
100
AcDbVertex
100
AcDb2dVertex
 10
302.0201523767519
 20
-190.9237466970607
 30
0.0
  0
VERTEX
  5
8B
330
88
100
AcDbEntity
  8
Wood_01_SensorSupport_3mmThick
370
     0
100
AcDbVertex
100
AcDb2dVertex
 10
302.0201523767519
 20
-188.9238687678732
 30
0.0
  0
VERTEX
  5
8C
330
88
100
AcDbEntity
  8
Wood_01_SensorSupport_3mmThick
370
     0
100
AcDbVertex
100
AcDb2dVertex
 10
288.0358207830258
 20
-188.9238687678732
 30
0.0
  0
VERTEX
  5
8D
330
88
100
AcDbEntity
  8
Wood_01_SensorSupport_3mmThick
370
     0
100
AcDbVertex
100
AcDb2dVertex
 10
288.0358207830258
 20
-190.9237466970607
 30
0.0
  0
SEQEND
  5
8E
330
88
100
AcDbEntity
  8
Wood_01_SensorSupport_3mmThick
370
     0
  0
HATCH
  5
8F
330
1F
100
AcDbEntity
  8
Wood_01_SensorSupport_3mmThick
 62
     7
100
AcDbHatch
 10
0.0
 20
0.0
 30
0.0
210
0.0
220
0.0
230
1.0
  2
SOLID
 70
     1
 71
     0
 91
        1
 92
        1
 93
        4
 72
     1
 10
288.0358207830258
 20
-190.9237466970607
 11
302.0201523767519
 21
-190.9237466970607
 72
     1
 10
302.0201523767519
 20
-190.9237466970607
 11
302.0201523767519
 21
-188.9238687678732
 72
     1
 10
302.0201523767519
 20
-188.9238687678732
 11
288.0358207830258
 21
-188.9238687678732
 72
     1
 10
288.0358207830258
 20
-188.9238687678732
 11
288.0358207830258
 21
-190.9237466970607
 97
        0
 75
     2
 76
     1
 98
        0
  0
POLYLINE
  5
90
330
1F
100
AcDbEntity
  8
Wood_01_SensorSupport_3mmThick
370
     0
100
AcDb2dPolyline
 66
     1
 10
0.0
 20
0.0
 30
0.0
  0
VERTEX
  5
91
330
90
100
AcDbEntity
  8
Wood_01_SensorSupport_3mmThick
370
     0
100
AcDbVertex
100
AcDb2dVertex
 10
288.0358207830258
 20
-209.5830728642709
 30
0.0
  0
VERTEX
  5
92
330
90
100
AcDbEntity
  8
Wood_01_SensorSupport_3mmThick
370
     0
100
AcDbVertex
100
AcDb2dVertex
 10
302.0201523767519
 20
-209.5830728642709
 30
0.0
  0
VERTEX
  5
93
330
90
100
AcDbEntity
  8
Wood_01_SensorSupport_3mmThick
370
     0
100
AcDbVertex
100
AcDb2dVertex
 10
302.0201523767519
 20
-207.5831949350834
 30
0.0
  0
VERTEX
  5
94
330
90
100
AcDbEntity
  8
Wood_01_SensorSupport_3mmThick
370
     0
100
AcDbVertex
100
AcDb2dVertex
 10
288.0358207830258
 20
-207.5831949350834
 30
0.0
  0
VERTEX
  5
95
330
90
100
AcDbEntity
  8
Wood_01_SensorSupport_3mmThick
370
     0
100
AcDbVertex
100
AcDb2dVertex
 10
288.0358207830258
 20
-209.5830728642709
 30
0.0
  0
SEQEND
  5
96
330
90
100
AcDbEntity
  8
Wood_01_SensorSupport_3mmThick
370
     0
  0
HATCH
  5
97
330
1F
100
AcDbEntity
  8
Wood_01_SensorSupport_3mmThick
 62
     7
100
AcDbHatch
 10
0.0
 20
0.0
 30
0.0
210
0.0
220
0.0
230
1.0
  2
SOLID
 70
     1
 71
     0
 91
        1
 92
        1
 93
        4
 72
     1
 10
288.0358207830258
 20
-209.5830728642709
 11
302.0201523767519
 21
-209.5830728642709
 72
     1
 10
302.0201523767519
 20
-209.5830728642709
 11
302.0201523767519
 21
-207.5831949350834
 72
     1
 10
302.0201523767519
 20
-207.5831949350834
 11
288.0358207830258
 21
-207.5831949350834
 72
     1
 10
288.0358207830258
 20
-207.5831949350834
 11
288.0358207830258
 21
-209.5830728642709
 97
        0
 75
     2
 76
     1
 98
        0
  0
POLYLINE
  5
98
330
1F
100
AcDbEntity
  8
Wood_01_SensorSupport_3mmThick
370
     0
100
AcDb2dPolyline
 66
     1
 10
0.0
 20
0.0
 30
0.0
  0
VERTEX
  5
99
330
98
100
AcDbEntity
  8
Wood_01_SensorSupport_3mmThick
370
     0
100
AcDbVertex
100
AcDb2dVertex
 10
288.0358207830258
 20
-228.2420545219325
 30
0.0
  0
VERTEX
  5
9A
330
98
100
AcDbEntity
  8
Wood_01_SensorSupport_3mmThick
370
     0
100
AcDbVertex
100
AcDb2dVertex
 10
302.0201523767519
 20
-228.2420545219325
 30
0.0
  0
VERTEX
  5
9B
330
98
100
AcDbEntity
  8
Wood_01_SensorSupport_3mmThick
370
     0
100
AcDbVertex
100
AcDb2dVertex
 10
302.0201523767519
 20
-226.242176592745
 30
0.0
  0
VERTEX
  5
9C
330
98
100
AcDbEntity
  8
Wood_01_SensorSupport_3mmThick
370
     0
100
AcDbVertex
100
AcDb2dVertex
 10
288.0358207830258
 20
-226.242176592745
 30
0.0
  0
VERTEX
  5
9D
330
98
100
AcDbEntity
  8
Wood_01_SensorSupport_3mmThick
370
     0
100
AcDbVertex
100
AcDb2dVertex
 10
288.0358207830258
 20
-228.2420545219325
 30
0.0
  0
SEQEND
  5
9E
330
98
100
AcDbEntity
  8
Wood_01_SensorSupport_3mmThick
370
     0
  0
HATCH
  5
9F
330
1F
100
AcDbEntity
  8
Wood_01_SensorSupport_3mmThick
 62
     7
100
AcDbHatch
 10
0.0
 20
0.0
 30
0.0
210
0.0
220
0.0
230
1.0
  2
SOLID
 70
     1
 71
     0
 91
        1
 92
        1
 93
        4
 72
     1
 10
288.0358207830258
 20
-228.2420545219325
 11
302.0201523767519
 21
-228.2420545219325
 72
     1
 10
302.0201523767519
 20
-228.2420545219325
 11
302.0201523767519
 21
-226.242176592745
 72
     1
 10
302.0201523767519
 20
-226.242176592745
 11
288.0358207830258
 21
-226.242176592745
 72
     1
 10
288.0358207830258
 20
-226.242176592745
 11
288.0358207830258
 21
-228.2420545219325
 97
        0
 75
     2
 76
     1
 98
        0
  0
ENDSEC
  0
SECTION
  2
OBJECTS
  0
DICTIONARY
  5
C
330
0
100
AcDbDictionary
281
     1
  3
ACAD_GROUP
350
D
  3
ACAD_LAYOUT
350
1A
  3
ACAD_MLINESTYLE
350
17
  3
ACAD_PLOTSETTINGS
350
19
  3
ACAD_PLOTSTYLENAME
350
E
  3
ACAD_TABLESTYLE
350
A4
  3
ACAD_VISUALSTYLE
350
2A
  0
DICTIONARY
  5
D
102
{ACAD_REACTORS
330
C
102
}
330
C
100
AcDbDictionary
281
     1
  0
DICTIONARY
  5
1A
102
{ACAD_REACTORS
330
C
102
}
330
C
100
AcDbDictionary
281
     1
  3
Layout1
350
1E
  3
Layout2
350
26
  3
Model
350
22
  0
DICTIONARY
  5
17
102
{ACAD_REACTORS
330
C
102
}
330
C
100
AcDbDictionary
281
     1
  3
Standard
350
18
  0
DICTIONARY
  5
19
102
{ACAD_REACTORS
330
C
102
}
330
C
100
AcDbDictionary
281
     1
  0
ACDBDICTIONARYWDFLT
  5
E
102
{ACAD_REACTORS
330
C
102
}
330
C
100
AcDbDictionary
281
     1
  3
Normal
350
F
100
AcDbDictionaryWithDefault
340
F
  0
DICTIONARY
  5
A4
102
{ACAD_REACTORS
330
C
102
}
330
C
100
AcDbDictionary
281
     1
  0
DICTIONARY
  5
2A
102
{ACAD_REACTORS
330
C
102
}
330
C
100
AcDbDictionary
281
     1
  3
2dWireframe
350
2F
  3
3D Hidden
350
31
  3
3dWireframe
350
30
  3
Basic
350
32
  3
Brighten
350
36
  3
ColorChange
350
3A
  3
Conceptual
350
34
  3
Dim
350
35
  3
Facepattern
350
39
  3
Flat
350
2B
  3
FlatWithEdges
350
2C
  3
Gouraud
350
2D
  3
GouraudWithEdges
350
2E
  3
Linepattern
350
38
  3
Realistic
350
33
  3
Thicken
350
37
  0
LAYOUT
  5
1E
102
{ACAD_REACTORS
330
1A
102
}
330
1A
100
AcDbPlotSettings
  1

  2
none_device
  4

  6

 40
0.0
 41
0.0
 42
0.0
 43
0.0
 44
0.0
 45
0.0
 46
0.0
 47
0.0
 48
0.0
 49
0.0
140
0.0
141
0.0
142
1.0
143
1.0
 70
   688
 72
     0
 73
     0
 74
     5
  7

 75
    16
147
1.0
148
0.0
149
0.0
100
AcDbLayout
  1
Layout1
 70
     1
 71
     1
 10
0.0
 20
0.0
 11
12.0
 21
9.0
 12
0.0
 22
0.0
 32
0.0
 14
1.000000000000000E+20
 24
1.000000000000000E+20
 34
1.000000000000000E+20
 15
-1.000000000000000E+20
 25
-1.000000000000000E+20
 35
-1.000000000000000E+20
146
0.0
 13
0.0
 23
0.0
 33
0.0
 16
1.0
 26
0.0
 36
0.0
 17
0.0
 27
1.0
 37
0.0
 76
     0
330
1B
  0
LAYOUT
  5
26
102
{ACAD_REACTORS
330
1A
102
}
330
1A
100
AcDbPlotSettings
  1

  2
none_device
  4

  6

 40
0.0
 41
0.0
 42
0.0
 43
0.0
 44
0.0
 45
0.0
 46
0.0
 47
0.0
 48
0.0
 49
0.0
140
0.0
141
0.0
142
1.0
143
1.0
 70
   688
 72
     0
 73
     0
 74
     5
  7

 75
    16
147
1.0
148
0.0
149
0.0
100
AcDbLayout
  1
Layout2
 70
     1
 71
     2
 10
0.0
 20
0.0
 11
0.0
 21
0.0
 12
0.0
 22
0.0
 32
0.0
 14
0.0
 24
0.0
 34
0.0
 15
0.0
 25
0.0
 35
0.0
146
0.0
 13
0.0
 23
0.0
 33
0.0
 16
1.0
 26
0.0
 36
0.0
 17
0.0
 27
1.0
 37
0.0
 76
     0
330
23
  0
LAYOUT
  5
22
102
{ACAD_REACTORS
330
1A
102
}
330
1A
100
AcDbPlotSettings
  1

  2
none_device
  4

  6

 40
0.0
 41
0.0
 42
0.0
 43
0.0
 44
0.0
 45
0.0
 46
0.0
 47
0.0
 48
0.0
 49
0.0
140
0.0
141
0.0
142
1.0
143
1.0
 70
  1712
 72
     0
 73
     0
 74
     0
  7

 75
     0
147
1.0
148
0.0
149
0.0
100
AcDbLayout
  1
Model
 70
     1
 71
     0
 10
0.0
 20
0.0
 11
12.0
 21
9.0
 12
0.0
 22
0.0
 32
0.0
 14
1.000000000000000E+20
 24
1.000000000000000E+20
 34
1.000000000000000E+20
 15
-1.000000000000000E+20
 25
-1.000000000000000E+20
 35
-1.000000000000000E+20
146
0.0
 13
0.0
 23
0.0
 33
0.0
 16
1.0
 26
0.0
 36
0.0
 17
0.0
 27
1.0
 37
0.0
 76
     0
330
1F
331
29
  0
MLINESTYLE
  5
18
102
{ACAD_REACTORS
330
17
102
}
330
17
100
AcDbMlineStyle
  2
Standard
 70
     0
  3

 62
   256
 51
90.0
 52
90.0
 71
     2
 49
0.5
 62
   256
  6
BYLAYER
 49
-0.5
 62
   256
  6
BYLAYER
  0
ACDBPLACEHOLDER
  5
F
102
{ACAD_REACTORS
330
E
102
}
330
E
  0
VISUALSTYLE
  5
2F
102
{ACAD_REACTORS
330
2A
102
}
330
2A
100
AcDbVisualStyle
  2
2dWireframe
 70
     4
 71
     0
 72
     2
 73
     0
 90
        0
 40
-0.6
 41
-30.0
 62
     5
 63
     7
 74
     1
 91
        4
 64
     7
 65
   257
 75
     1
175
     1
 42
1.0
 92
        0
 66
   257
 43
1.0
 76
     1
 77
     6
 78
     2
 67
     7
 79
     5
170
     0
171
     0
290
     0
174
     0
 93
        1
 44
0.0
173
     0
291
     0
 45
0.0
1001
ACAD
1000
AcDbSavedByObjectVersion
1070
     0
  0
VISUALSTYLE
  5
31
102
{ACAD_REACTORS
330
2A
102
}
330
2A
100
AcDbVisualStyle
  2
3D Hidden
 70
     6
 71
     1
 72
     2
 73
     2
 90
        0
 40
-0.6
 41
-30.0
 62
     5
 63
     7
 74
     2
 91
        2
 64
     7
 65
   257
 75
     2
175
     1
 42
40.0
 92
        0
 66
   257
 43
1.0
 76
     1
 77
     6
 78
     2
 67
     7
 79
     3
170
     0
171
     0
290
     0
174
     0
 93
        1
 44
0.0
173
     0
291
     0
 45
0.0
1001
ACAD
1000
AcDbSavedByObjectVersion
1070
     0
  0
VISUALSTYLE
  5
30
102
{ACAD_REACTORS
330
2A
102
}
330
2A
100
AcDbVisualStyle
  2
3dWireframe
 70
     5
 71
     0
 72
     2
 73
     0
 90
        0
 40
-0.6
 41
-30.0
 62
     5
 63
     7
 74
     1
 91
        4
 64
     7
 65
   257
 75
     1
175
     1
 42
1.0
 92
        0
 66
   257
 43
1.0
 76
     1
 77
     6
 78
     2
 67
     7
 79
     5
170
     0
171
     0
290
     0
174
     0
 93
        1
 44
0.0
173
     0
291
     0
 45
0.0
1001
ACAD
1000
AcDbSavedByObjectVersion
1070
     0
  0
VISUALSTYLE
  5
32
102
{ACAD_REACTORS
330
2A
102
}
330
2A
100
AcDbVisualStyle
  2
Basic
 70
     7
 71
     1
 72
     0
 73
     1
 90
        0
 40
-0.6
 41
-30.0
 62
     5
 63
     7
 74
     0
 91
        4
 64
     7
 65
   257
 75
     1
175
     1
 42
1.0
 92
        8
 66
     7
 43
1.0
 76
     1
 77
     6
 78
     2
 67
     7
 79
     5
170
     0
171
     0
290
     0
174
     0
 93
        1
 44
0.0
173
     0
291
     1
 45
0.0
1001
ACAD
1000
AcDbSavedByObjectVersion
1070
     0
  0
VISUALSTYLE
  5
36
102
{ACAD_REACTORS
330
2A
102
}
330
2A
100
AcDbVisualStyle
  2
Brighten
 70
    12
 71
     2
 72
     2
 73
     0
 90
        0
 40
-0.6
 41
-30.0
 62
     5
 63
     7
 74
     1
 91
        4
 64
     7
 65
   257
 75
     1
175
     1
 42
1.0
 92
        8
 66
     7
 43
1.0
 76
     1
 77
     6
 78
     2
 67
     7
 79
     5
170
     0
171
     0
290
     0
174
     0
 93
        1
 44
50.0
173
     0
291
     1
 45
0.0
1001
ACAD
1000
AcDbSavedByObjectVersion
1070
     0
  0
VISUALSTYLE
  5
3A
102
{ACAD_REACTORS
330
2A
102
}
330
2A
100
AcDbVisualStyle
  2
ColorChange
 70
    16
 71
     2
 72
     2
 73
     3
 90
        0
 40
-0.6
 41
-30.0
 62
     5
 63
     8
 74
     1
 91
        4
 64
     7
 65
   257
 75
     1
175
     1
 42
1.0
 92
        8
 66
     8
 43
1.0
 76
     1
 77
     6
 78
     2
 67
     7
 79
     5
170
     0
171
     0
290
     0
174
     0
 93
        1
 44
0.0
173
     0
291
     1
 45
0.0
1001
ACAD
1000
AcDbSavedByObjectVersion
1070
     0
  0
VISUALSTYLE
  5
34
102
{ACAD_REACTORS
330
2A
102
}
330
2A
100
AcDbVisualStyle
  2
Conceptual
 70
     9
 71
     3
 72
     2
 73
     0
 90
        0
 40
-0.6
 41
-30.0
 62
     5
 63
     7
 74
     2
 91
        2
 64
     7
 65
   257
 75
     1
175
     1
 42
40.0
 92
        8
 66
     7
 43
1.0
 76
     1
 77
     6
 78
     2
 67
     7
 79
     3
170
     0
171
     0
290
     0
174
     0
 93
        1
 44
0.0
173
     0
291
     0
 45
0.0
1001
ACAD
1000
AcDbSavedByObjectVersion
1070
     0
  0
VISUALSTYLE
  5
35
102
{ACAD_REACTORS
330
2A
102
}
330
2A
100
AcDbVisualStyle
  2
Dim
 70
    11
 71
     2
 72
     2
 73
     0
 90
        0
 40
-0.6
 41
-30.0
 62
     5
 63
     7
 74
     1
 91
        4
 64
     7
 65
   257
 75
     1
175
     1
 42
1.0
 92
        8
 66
     7
 43
1.0
 76
     1
 77
     6
 78
     2
 67
     7
 79
     5
170
     0
171
     0
290
     0
174
     0
 93
        1
 44
-50.0
173
     0
291
     1
 45
0.0
1001
ACAD
1000
AcDbSavedByObjectVersion
1070
     0
  0
VISUALSTYLE
  5
39
102
{ACAD_REACTORS
330
2A
102
}
330
2A
100
AcDbVisualStyle
  2
Facepattern
 70
    15
 71
     2
 72
     2
 73
     0
 90
        0
 40
-0.6
 41
-30.0
 62
     5
 63
     7
 74
     1
 91
        4
 64
     7
 65
   257
 75
     1
175
     1
 42
1.0
 92
        8
 66
     7
 43
1.0
 76
     1
 77
     6
 78
     2
 67
     7
 79
     5
170
     0
171
     0
290
     0
174
     0
 93
        1
 44
0.0
173
     0
291
     1
 45
0.0
1001
ACAD
1000
AcDbSavedByObjectVersion
1070
     0
  0
VISUALSTYLE
  5
2B
102
{ACAD_REACTORS
330
2A
102
}
330
2A
100
AcDbVisualStyle
  2
Flat
 70
     0
 71
     2
 72
     1
 73
     1
 90
        2
 40
-0.6
 41
30.0
 62
     5
 63
     7
 74
     0
 91
        4
 64
     7
 65
   257
 75
     1
175
     1
 42
1.0
 92
        8
 66
     7
 43
1.0
 76
     1
 77
     6
 78
     2
 67
     7
 79
     5
170
     0
171
     0
290
     0
174
     0
 93
       13
 44
0.0
173
     0
291
     1
 45
0.0
1001
ACAD
1000
AcDbSavedByObjectVersion
1070
     0
  0
VISUALSTYLE
  5
2C
102
{ACAD_REACTORS
330
2A
102
}
330
2A
100
AcDbVisualStyle
  2
FlatWithEdges
 70
     1
 71
     2
 72
     1
 73
     1
 90
        2
 40
-0.6
 41
30.0
 62
     5
 63
     7
 74
     1
 91
        4
 64
     7
 65
   257
 75
     1
175
     1
 42
1.0
 92
        0
 66
   257
 43
1.0
 76
     1
 77
     6
 78
     2
 67
     7
 79
     5
170
     0
171
     0
290
     0
174
     0
 93
       13
 44
0.0
173
     0
291
     1
 45
0.0
1001
ACAD
1000
AcDbSavedByObjectVersion
1070
     0
  0
VISUALSTYLE
  5
2D
102
{ACAD_REACTORS
330
2A
102
}
330
2A
100
AcDbVisualStyle
  2
Gouraud
 70
     2
 71
     2
 72
     2
 73
     1
 90
        2
 40
-0.6
 41
30.0
 62
     5
 63
     7
 74
     0
 91
        4
 64
     7
 65
   257
 75
     1
175
     1
 42
1.0
 92
        0
 66
     7
 43
1.0
 76
     1
 77
     6
 78
     2
 67
     7
 79
     5
170
     0
171
     0
290
     0
174
     0
 93
       13
 44
0.0
173
     0
291
     1
 45
0.0
1001
ACAD
1000
AcDbSavedByObjectVersion
1070
     0
  0
VISUALSTYLE
  5
2E
102
{ACAD_REACTORS
330
2A
102
}
330
2A
100
AcDbVisualStyle
  2
GouraudWithEdges
 70
     3
 71
     2
 72
     2
 73
     1
 90
        2
 40
-0.6
 41
30.0
 62
     5
 63
     7
 74
     1
 91
        4
 64
     7
 65
   257
 75
     1
175
     1
 42
1.0
 92
        0
 66
   257
 43
1.0
 76
     1
 77
     6
 78
     2
 67
     7
 79
     5
170
     0
171
     0
290
     0
174
     0
 93
       13
 44
0.0
173
     0
291
     1
 45
0.0
1001
ACAD
1000
AcDbSavedByObjectVersion
1070
     0
  0
VISUALSTYLE
  5
38
102
{ACAD_REACTORS
330
2A
102
}
330
2A
100
AcDbVisualStyle
  2
Linepattern
 70
    14
 71
     2
 72
     2
 73
     0
 90
        0
 40
-0.6
 41
-30.0
 62
     5
 63
     7
 74
     1
 91
        4
 64
     7
 65
   257
 75
     7
175
     7
 42
1.0
 92
        8
 66
     7
 43
1.0
 76
     1
 77
     6
 78
     2
 67
     7
 79
     5
170
     0
171
     0
290
     0
174
     0
 93
        1
 44
0.0
173
     0
291
     1
 45
0.0
1001
ACAD
1000
AcDbSavedByObjectVersion
1070
     0
  0
VISUALSTYLE
  5
33
102
{ACAD_REACTORS
330
2A
102
}
330
2A
100
AcDbVisualStyle
  2
Realistic
 70
     8
 71
     2
 72
     2
 73
     0
 90
        0
 40
-0.6
 41
-30.0
 62
     5
 63
     7
 74
     1
 91
        0
 64
     7
 65
   257
 75
     1
175
     1
 42
1.0
 92
        8
 66
     8
 43
1.0
 76
     1
 77
     6
 78
     2
 67
     7
 79
     5
170
     0
171
     0
290
     0
174
     0
 93
       13
 44
0.0
173
     0
291
     0
 45
0.0
1001
ACAD
1000
AcDbSavedByObjectVersion
1070
     0
  0
VISUALSTYLE
  5
37
102
{ACAD_REACTORS
330
2A
102
}
330
2A
100
AcDbVisualStyle
  2
Thicken
 70
    13
 71
     2
 72
     2
 73
     0
 90
        0
 40
-0.6
 41
-30.0
 62
     5
 63
     7
 74
     1
 91
        4
 64
     7
 65
   257
 75
     1
175
     1
 42
1.0
 92
       12
 66
     7
 43
1.0
 76
     1
 77
     6
 78
     2
 67
     7
 79
     5
170
     0
171
     0
290
     0
174
     0
 93
        1
 44
0.0
173
     0
291
     1
 45
0.0
1001
ACAD
1000
AcDbSavedByObjectVersion
1070
     0
  0
ENDSEC
  0
EOF
